%TF.GenerationSoftware,KiCad,Pcbnew,8.0.0*%
%TF.CreationDate,2024-03-31T18:51:28-04:00*%
%TF.ProjectId,2_spaceship_interface_shield,325f7370-6163-4657-9368-69705f696e74,rev?*%
%TF.SameCoordinates,Original*%
%TF.FileFunction,Copper,L2,Bot*%
%TF.FilePolarity,Positive*%
%FSLAX46Y46*%
G04 Gerber Fmt 4.6, Leading zero omitted, Abs format (unit mm)*
G04 Created by KiCad (PCBNEW 8.0.0) date 2024-03-31 18:51:28*
%MOMM*%
%LPD*%
G01*
G04 APERTURE LIST*
%TA.AperFunction,ComponentPad*%
%ADD10R,1.700000X1.700000*%
%TD*%
%TA.AperFunction,ComponentPad*%
%ADD11O,1.700000X1.700000*%
%TD*%
%TA.AperFunction,ComponentPad*%
%ADD12C,1.600000*%
%TD*%
%TA.AperFunction,ComponentPad*%
%ADD13O,1.600000X1.600000*%
%TD*%
%TA.AperFunction,ComponentPad*%
%ADD14R,1.800000X1.800000*%
%TD*%
%TA.AperFunction,ComponentPad*%
%ADD15C,1.800000*%
%TD*%
%TA.AperFunction,ComponentPad*%
%ADD16C,1.524000*%
%TD*%
%TA.AperFunction,Conductor*%
%ADD17C,0.250000*%
%TD*%
%ADD18C,0.350000*%
G04 APERTURE END LIST*
D10*
%TO.P,J1,1,Pin_1*%
%TO.N,unconnected-(J1-Pin_1-Pad1)*%
X27940000Y2540000D03*
D11*
%TO.P,J1,2,Pin_2*%
%TO.N,/IOREF*%
X30480000Y2540000D03*
%TO.P,J1,3,Pin_3*%
%TO.N,/~{RESET}*%
X33020000Y2540000D03*
%TO.P,J1,4,Pin_4*%
%TO.N,+3V3*%
X35560000Y2540000D03*
%TO.P,J1,5,Pin_5*%
%TO.N,+5V*%
X38100000Y2540000D03*
%TO.P,J1,6,Pin_6*%
%TO.N,GND*%
X40640000Y2540000D03*
%TO.P,J1,7,Pin_7*%
X43180000Y2540000D03*
%TO.P,J1,8,Pin_8*%
%TO.N,VCC*%
X45720000Y2540000D03*
%TD*%
D10*
%TO.P,J3,1,Pin_1*%
%TO.N,/A0*%
X50800000Y2540000D03*
D11*
%TO.P,J3,2,Pin_2*%
%TO.N,/A1*%
X53340000Y2540000D03*
%TO.P,J3,3,Pin_3*%
%TO.N,/A2*%
X55880000Y2540000D03*
%TO.P,J3,4,Pin_4*%
%TO.N,/A3*%
X58420000Y2540000D03*
%TO.P,J3,5,Pin_5*%
%TO.N,/SDA{slash}A4*%
X60960000Y2540000D03*
%TO.P,J3,6,Pin_6*%
%TO.N,/SCL{slash}A5*%
X63500000Y2540000D03*
%TD*%
D10*
%TO.P,J2,1,Pin_1*%
%TO.N,/SCL{slash}A5*%
X18796000Y50800000D03*
D11*
%TO.P,J2,2,Pin_2*%
%TO.N,/SDA{slash}A4*%
X21336000Y50800000D03*
%TO.P,J2,3,Pin_3*%
%TO.N,/AREF*%
X23876000Y50800000D03*
%TO.P,J2,4,Pin_4*%
%TO.N,GND*%
X26416000Y50800000D03*
%TO.P,J2,5,Pin_5*%
%TO.N,/13*%
X28956000Y50800000D03*
%TO.P,J2,6,Pin_6*%
%TO.N,/12*%
X31496000Y50800000D03*
%TO.P,J2,7,Pin_7*%
%TO.N,/\u002A11*%
X34036000Y50800000D03*
%TO.P,J2,8,Pin_8*%
%TO.N,/\u002A10*%
X36576000Y50800000D03*
%TO.P,J2,9,Pin_9*%
%TO.N,/\u002A9*%
X39116000Y50800000D03*
%TO.P,J2,10,Pin_10*%
%TO.N,/8*%
X41656000Y50800000D03*
%TD*%
D10*
%TO.P,J4,1,Pin_1*%
%TO.N,/7*%
X45720000Y50800000D03*
D11*
%TO.P,J4,2,Pin_2*%
%TO.N,/\u002A6*%
X48260000Y50800000D03*
%TO.P,J4,3,Pin_3*%
%TO.N,/\u002A5*%
X50800000Y50800000D03*
%TO.P,J4,4,Pin_4*%
%TO.N,/4*%
X53340000Y50800000D03*
%TO.P,J4,5,Pin_5*%
%TO.N,/\u002A3*%
X55880000Y50800000D03*
%TO.P,J4,6,Pin_6*%
%TO.N,/2*%
X58420000Y50800000D03*
%TO.P,J4,7,Pin_7*%
%TO.N,/TX{slash}1*%
X60960000Y50800000D03*
%TO.P,J4,8,Pin_8*%
%TO.N,/RX{slash}0*%
X63500000Y50800000D03*
%TD*%
D12*
%TO.P,R1,1*%
%TO.N,/SDA{slash}A4*%
X21000000Y28920000D03*
D13*
%TO.P,R1,2*%
%TO.N,GND*%
X21000000Y39080000D03*
%TD*%
D12*
%TO.P,R3,1*%
%TO.N,GND*%
X47500000Y20340000D03*
D13*
%TO.P,R3,2*%
%TO.N,Net-(D2-K)*%
X47500000Y30500000D03*
%TD*%
D14*
%TO.P,D1,1,K*%
%TO.N,Net-(D1-K)*%
X57000000Y35460000D03*
D15*
%TO.P,D1,2,A*%
%TO.N,/2*%
X57000000Y38000000D03*
%TD*%
D14*
%TO.P,D2,1,K*%
%TO.N,Net-(D2-K)*%
X47500000Y35500000D03*
D15*
%TO.P,D2,2,A*%
%TO.N,/\u002A3*%
X47500000Y38040000D03*
%TD*%
D12*
%TO.P,R4,1*%
%TO.N,GND*%
X38000000Y20340000D03*
D13*
%TO.P,R4,2*%
%TO.N,Net-(D3-K)*%
X38000000Y30500000D03*
%TD*%
D12*
%TO.P,R2,1*%
%TO.N,GND*%
X57000000Y20340000D03*
D13*
%TO.P,R2,2*%
%TO.N,Net-(D1-K)*%
X57000000Y30500000D03*
%TD*%
D14*
%TO.P,D3,1,K*%
%TO.N,Net-(D3-K)*%
X38000000Y35500000D03*
D15*
%TO.P,D3,2,A*%
%TO.N,/4*%
X38000000Y38040000D03*
%TD*%
D16*
%TO.P,SW1,1,1*%
%TO.N,/SDA{slash}A4*%
X24000000Y19500000D03*
%TO.P,SW1,2,2*%
%TO.N,+5V*%
X17500000Y19500000D03*
%TO.P,SW1,3*%
%TO.N,N/C*%
X17500000Y24000000D03*
%TO.P,SW1,4*%
X24000000Y24000000D03*
%TD*%
D17*
%TO.N,/SDA{slash}A4*%
X65000000Y5000000D02*
X66000000Y4000000D01*
X66000000Y3500000D02*
X65500000Y3000000D01*
X65500000Y3000000D02*
X65500000Y500000D01*
X65500000Y500000D02*
X63000000Y500000D01*
X28000000Y44136000D02*
X28000000Y28000000D01*
X62500000Y5000000D02*
X65000000Y5000000D01*
X52000000Y15500000D02*
X62500000Y5000000D01*
X66000000Y4000000D02*
X66000000Y3500000D01*
X28000000Y28000000D02*
X40500000Y15500000D01*
X40500000Y15500000D02*
X52000000Y15500000D01*
X63000000Y500000D02*
X60960000Y2540000D01*
X21336000Y50800000D02*
X28000000Y44136000D01*
%TO.N,/SCL{slash}A5*%
X63500000Y2540000D02*
X51540000Y14500000D01*
X26500000Y28500000D02*
X26500000Y42500000D01*
X51540000Y14500000D02*
X40500000Y14500000D01*
X40500000Y14500000D02*
X26500000Y28500000D01*
X21500000Y47500000D02*
X20000000Y47500000D01*
X26500000Y42500000D02*
X21500000Y47500000D01*
X18796000Y48704000D02*
X18796000Y50800000D01*
X20000000Y47500000D02*
X18796000Y48704000D01*
%TD*%
D18*
X27940000Y2540000D03*
X30480000Y2540000D03*
X33020000Y2540000D03*
X35560000Y2540000D03*
X38100000Y2540000D03*
X40640000Y2540000D03*
X43180000Y2540000D03*
X45720000Y2540000D03*
X50800000Y2540000D03*
X53340000Y2540000D03*
X55880000Y2540000D03*
X58420000Y2540000D03*
X60960000Y2540000D03*
X63500000Y2540000D03*
X18796000Y50800000D03*
X21336000Y50800000D03*
X23876000Y50800000D03*
X26416000Y50800000D03*
X28956000Y50800000D03*
X31496000Y50800000D03*
X34036000Y50800000D03*
X36576000Y50800000D03*
X39116000Y50800000D03*
X41656000Y50800000D03*
X45720000Y50800000D03*
X48260000Y50800000D03*
X50800000Y50800000D03*
X53340000Y50800000D03*
X55880000Y50800000D03*
X58420000Y50800000D03*
X60960000Y50800000D03*
X63500000Y50800000D03*
X21000000Y28920000D03*
X21000000Y39080000D03*
X47500000Y20340000D03*
X47500000Y30500000D03*
X57000000Y35460000D03*
X57000000Y38000000D03*
X47500000Y35500000D03*
X47500000Y38040000D03*
X15240000Y50800000D03*
X38000000Y20340000D03*
X38000000Y30500000D03*
X57000000Y20340000D03*
X57000000Y30500000D03*
X38000000Y35500000D03*
X38000000Y38040000D03*
X24000000Y19500000D03*
X17500000Y19500000D03*
X17500000Y24000000D03*
X24000000Y24000000D03*
X13970000Y2540000D03*
X66040000Y35560000D03*
X66040000Y7620000D03*
M02*
