%TF.GenerationSoftware,KiCad,Pcbnew,8.0.0*%
%TF.CreationDate,2024-03-31T18:51:28-04:00*%
%TF.ProjectId,2_spaceship_interface_shield,325f7370-6163-4657-9368-69705f696e74,rev?*%
%TF.SameCoordinates,Original*%
%TF.FileFunction,Copper,L1,Top*%
%TF.FilePolarity,Positive*%
%FSLAX46Y46*%
G04 Gerber Fmt 4.6, Leading zero omitted, Abs format (unit mm)*
G04 Created by KiCad (PCBNEW 8.0.0) date 2024-03-31 18:51:28*
%MOMM*%
%LPD*%
G01*
G04 APERTURE LIST*
%TA.AperFunction,ComponentPad*%
%ADD10R,1.700000X1.700000*%
%TD*%
%TA.AperFunction,ComponentPad*%
%ADD11O,1.700000X1.700000*%
%TD*%
%TA.AperFunction,ComponentPad*%
%ADD12C,1.600000*%
%TD*%
%TA.AperFunction,ComponentPad*%
%ADD13O,1.600000X1.600000*%
%TD*%
%TA.AperFunction,ComponentPad*%
%ADD14R,1.800000X1.800000*%
%TD*%
%TA.AperFunction,ComponentPad*%
%ADD15C,1.800000*%
%TD*%
%TA.AperFunction,ComponentPad*%
%ADD16C,1.524000*%
%TD*%
%TA.AperFunction,Conductor*%
%ADD17C,0.250000*%
%TD*%
%ADD18C,0.350000*%
G04 APERTURE END LIST*
D10*
%TO.P,J1,1,Pin_1*%
%TO.N,unconnected-(J1-Pin_1-Pad1)*%
X27940000Y2540000D03*
D11*
%TO.P,J1,2,Pin_2*%
%TO.N,/IOREF*%
X30480000Y2540000D03*
%TO.P,J1,3,Pin_3*%
%TO.N,/~{RESET}*%
X33020000Y2540000D03*
%TO.P,J1,4,Pin_4*%
%TO.N,+3V3*%
X35560000Y2540000D03*
%TO.P,J1,5,Pin_5*%
%TO.N,+5V*%
X38100000Y2540000D03*
%TO.P,J1,6,Pin_6*%
%TO.N,GND*%
X40640000Y2540000D03*
%TO.P,J1,7,Pin_7*%
X43180000Y2540000D03*
%TO.P,J1,8,Pin_8*%
%TO.N,VCC*%
X45720000Y2540000D03*
%TD*%
D10*
%TO.P,J3,1,Pin_1*%
%TO.N,/A0*%
X50800000Y2540000D03*
D11*
%TO.P,J3,2,Pin_2*%
%TO.N,/A1*%
X53340000Y2540000D03*
%TO.P,J3,3,Pin_3*%
%TO.N,/A2*%
X55880000Y2540000D03*
%TO.P,J3,4,Pin_4*%
%TO.N,/A3*%
X58420000Y2540000D03*
%TO.P,J3,5,Pin_5*%
%TO.N,/SDA{slash}A4*%
X60960000Y2540000D03*
%TO.P,J3,6,Pin_6*%
%TO.N,/SCL{slash}A5*%
X63500000Y2540000D03*
%TD*%
D10*
%TO.P,J2,1,Pin_1*%
%TO.N,/SCL{slash}A5*%
X18796000Y50800000D03*
D11*
%TO.P,J2,2,Pin_2*%
%TO.N,/SDA{slash}A4*%
X21336000Y50800000D03*
%TO.P,J2,3,Pin_3*%
%TO.N,/AREF*%
X23876000Y50800000D03*
%TO.P,J2,4,Pin_4*%
%TO.N,GND*%
X26416000Y50800000D03*
%TO.P,J2,5,Pin_5*%
%TO.N,/13*%
X28956000Y50800000D03*
%TO.P,J2,6,Pin_6*%
%TO.N,/12*%
X31496000Y50800000D03*
%TO.P,J2,7,Pin_7*%
%TO.N,/\u002A11*%
X34036000Y50800000D03*
%TO.P,J2,8,Pin_8*%
%TO.N,/\u002A10*%
X36576000Y50800000D03*
%TO.P,J2,9,Pin_9*%
%TO.N,/\u002A9*%
X39116000Y50800000D03*
%TO.P,J2,10,Pin_10*%
%TO.N,/8*%
X41656000Y50800000D03*
%TD*%
D10*
%TO.P,J4,1,Pin_1*%
%TO.N,/7*%
X45720000Y50800000D03*
D11*
%TO.P,J4,2,Pin_2*%
%TO.N,/\u002A6*%
X48260000Y50800000D03*
%TO.P,J4,3,Pin_3*%
%TO.N,/\u002A5*%
X50800000Y50800000D03*
%TO.P,J4,4,Pin_4*%
%TO.N,/4*%
X53340000Y50800000D03*
%TO.P,J4,5,Pin_5*%
%TO.N,/\u002A3*%
X55880000Y50800000D03*
%TO.P,J4,6,Pin_6*%
%TO.N,/2*%
X58420000Y50800000D03*
%TO.P,J4,7,Pin_7*%
%TO.N,/TX{slash}1*%
X60960000Y50800000D03*
%TO.P,J4,8,Pin_8*%
%TO.N,/RX{slash}0*%
X63500000Y50800000D03*
%TD*%
D12*
%TO.P,R1,1*%
%TO.N,/SDA{slash}A4*%
X21000000Y28920000D03*
D13*
%TO.P,R1,2*%
%TO.N,GND*%
X21000000Y39080000D03*
%TD*%
D12*
%TO.P,R3,1*%
%TO.N,GND*%
X47500000Y20340000D03*
D13*
%TO.P,R3,2*%
%TO.N,Net-(D2-K)*%
X47500000Y30500000D03*
%TD*%
D14*
%TO.P,D1,1,K*%
%TO.N,Net-(D1-K)*%
X57000000Y35460000D03*
D15*
%TO.P,D1,2,A*%
%TO.N,/2*%
X57000000Y38000000D03*
%TD*%
D14*
%TO.P,D2,1,K*%
%TO.N,Net-(D2-K)*%
X47500000Y35500000D03*
D15*
%TO.P,D2,2,A*%
%TO.N,/\u002A3*%
X47500000Y38040000D03*
%TD*%
D12*
%TO.P,R4,1*%
%TO.N,GND*%
X38000000Y20340000D03*
D13*
%TO.P,R4,2*%
%TO.N,Net-(D3-K)*%
X38000000Y30500000D03*
%TD*%
D12*
%TO.P,R2,1*%
%TO.N,GND*%
X57000000Y20340000D03*
D13*
%TO.P,R2,2*%
%TO.N,Net-(D1-K)*%
X57000000Y30500000D03*
%TD*%
D14*
%TO.P,D3,1,K*%
%TO.N,Net-(D3-K)*%
X38000000Y35500000D03*
D15*
%TO.P,D3,2,A*%
%TO.N,/4*%
X38000000Y38040000D03*
%TD*%
D16*
%TO.P,SW1,1,1*%
%TO.N,/SDA{slash}A4*%
X24000000Y19500000D03*
%TO.P,SW1,2,2*%
%TO.N,+5V*%
X17500000Y19500000D03*
%TO.P,SW1,3*%
%TO.N,N/C*%
X17500000Y24000000D03*
%TO.P,SW1,4*%
X24000000Y24000000D03*
%TD*%
D17*
%TO.N,+5V*%
X17500000Y13500000D02*
X22500000Y8500000D01*
X32140000Y8500000D02*
X38100000Y2540000D01*
X17500000Y19500000D02*
X17500000Y13500000D01*
X22500000Y8500000D02*
X32140000Y8500000D01*
%TO.N,/SDA{slash}A4*%
X24000000Y19500000D02*
X31500000Y19500000D01*
X31500000Y19500000D02*
X44500000Y6500000D01*
X21000000Y22500000D02*
X21000000Y28920000D01*
X24000000Y19500000D02*
X21000000Y22500000D01*
X44500000Y6500000D02*
X57000000Y6500000D01*
X57000000Y6500000D02*
X60960000Y2540000D01*
%TO.N,/4*%
X53340000Y50800000D02*
X44540000Y42000000D01*
X44540000Y42000000D02*
X41960000Y42000000D01*
X41960000Y42000000D02*
X38000000Y38040000D01*
%TO.N,/2*%
X58420000Y39420000D02*
X57000000Y38000000D01*
X58420000Y50800000D02*
X58420000Y39420000D01*
%TO.N,/\u002A3*%
X55880000Y50800000D02*
X47500000Y42420000D01*
X47500000Y42420000D02*
X47500000Y38040000D01*
%TO.N,Net-(D1-K)*%
X57000000Y35460000D02*
X57000000Y30500000D01*
%TO.N,Net-(D2-K)*%
X47500000Y35500000D02*
X47500000Y30500000D01*
%TO.N,Net-(D3-K)*%
X38000000Y35500000D02*
X38000000Y30500000D01*
%TD*%
%TA.AperFunction,Conductor*%
%TO.N,GND*%
G36*
X42714075Y2732993D02*
G01*
X42680000Y2605826D01*
X42680000Y2474174D01*
X42714075Y2347007D01*
X42746988Y2290000D01*
X41073012Y2290000D01*
X41105925Y2347007D01*
X41140000Y2474174D01*
X41140000Y2605826D01*
X41105925Y2732993D01*
X41073012Y2790000D01*
X42746988Y2790000D01*
X42714075Y2732993D01*
G37*
%TD.AperFunction*%
%TA.AperFunction,Conductor*%
G36*
X63949217Y52500404D02*
G01*
X64016095Y52480188D01*
X64035911Y52464089D01*
X64326455Y52173545D01*
X64359940Y52112222D01*
X64354956Y52042530D01*
X64313084Y51986597D01*
X64247620Y51962180D01*
X64179757Y51976809D01*
X64047580Y52048339D01*
X64047577Y52048341D01*
X64047574Y52048342D01*
X64047571Y52048343D01*
X64047569Y52048344D01*
X63834637Y52121444D01*
X63612569Y52158500D01*
X63387431Y52158500D01*
X63165362Y52121444D01*
X62952430Y52048344D01*
X62952419Y52048339D01*
X62754427Y51941192D01*
X62754422Y51941188D01*
X62576761Y51802908D01*
X62576756Y51802903D01*
X62424284Y51637277D01*
X62424276Y51637266D01*
X62333808Y51498794D01*
X62280662Y51453438D01*
X62211431Y51444014D01*
X62148095Y51473516D01*
X62126192Y51498794D01*
X62061170Y51598317D01*
X62035722Y51637268D01*
X62035719Y51637271D01*
X62035715Y51637277D01*
X61883243Y51802903D01*
X61883238Y51802908D01*
X61705577Y51941188D01*
X61705572Y51941192D01*
X61507580Y52048339D01*
X61507577Y52048341D01*
X61507574Y52048342D01*
X61507571Y52048343D01*
X61507569Y52048344D01*
X61294637Y52121444D01*
X61072569Y52158500D01*
X60847431Y52158500D01*
X60625362Y52121444D01*
X60412430Y52048344D01*
X60412419Y52048339D01*
X60214427Y51941192D01*
X60214422Y51941188D01*
X60036761Y51802908D01*
X60036756Y51802903D01*
X59884284Y51637277D01*
X59884276Y51637266D01*
X59793808Y51498794D01*
X59740662Y51453438D01*
X59671431Y51444014D01*
X59608095Y51473516D01*
X59586192Y51498794D01*
X59521170Y51598317D01*
X59495722Y51637268D01*
X59495719Y51637271D01*
X59495715Y51637277D01*
X59343243Y51802903D01*
X59343238Y51802908D01*
X59165577Y51941188D01*
X59165572Y51941192D01*
X58967580Y52048339D01*
X58967577Y52048341D01*
X58967574Y52048342D01*
X58967571Y52048343D01*
X58967569Y52048344D01*
X58754637Y52121444D01*
X58532569Y52158500D01*
X58307431Y52158500D01*
X58085362Y52121444D01*
X57872430Y52048344D01*
X57872419Y52048339D01*
X57674427Y51941192D01*
X57674422Y51941188D01*
X57496761Y51802908D01*
X57496756Y51802903D01*
X57344284Y51637277D01*
X57344276Y51637266D01*
X57253808Y51498794D01*
X57200662Y51453438D01*
X57131431Y51444014D01*
X57068095Y51473516D01*
X57046192Y51498794D01*
X56981170Y51598317D01*
X56955722Y51637268D01*
X56955719Y51637271D01*
X56955715Y51637277D01*
X56803243Y51802903D01*
X56803238Y51802908D01*
X56625577Y51941188D01*
X56625572Y51941192D01*
X56427580Y52048339D01*
X56427577Y52048341D01*
X56427574Y52048342D01*
X56427571Y52048343D01*
X56427569Y52048344D01*
X56214637Y52121444D01*
X55992569Y52158500D01*
X55767431Y52158500D01*
X55545362Y52121444D01*
X55332430Y52048344D01*
X55332419Y52048339D01*
X55134427Y51941192D01*
X55134422Y51941188D01*
X54956761Y51802908D01*
X54956756Y51802903D01*
X54804284Y51637277D01*
X54804276Y51637266D01*
X54713808Y51498794D01*
X54660662Y51453438D01*
X54591431Y51444014D01*
X54528095Y51473516D01*
X54506192Y51498794D01*
X54441170Y51598317D01*
X54415722Y51637268D01*
X54415719Y51637271D01*
X54415715Y51637277D01*
X54263243Y51802903D01*
X54263238Y51802908D01*
X54085577Y51941188D01*
X54085572Y51941192D01*
X53887580Y52048339D01*
X53887577Y52048341D01*
X53887574Y52048342D01*
X53887571Y52048343D01*
X53887569Y52048344D01*
X53674637Y52121444D01*
X53452569Y52158500D01*
X53227431Y52158500D01*
X53005362Y52121444D01*
X52792430Y52048344D01*
X52792419Y52048339D01*
X52594427Y51941192D01*
X52594422Y51941188D01*
X52416761Y51802908D01*
X52416756Y51802903D01*
X52264284Y51637277D01*
X52264276Y51637266D01*
X52173808Y51498794D01*
X52120662Y51453438D01*
X52051431Y51444014D01*
X51988095Y51473516D01*
X51966192Y51498794D01*
X51901170Y51598317D01*
X51875722Y51637268D01*
X51875719Y51637271D01*
X51875715Y51637277D01*
X51723243Y51802903D01*
X51723238Y51802908D01*
X51545577Y51941188D01*
X51545572Y51941192D01*
X51347580Y52048339D01*
X51347577Y52048341D01*
X51347574Y52048342D01*
X51347571Y52048343D01*
X51347569Y52048344D01*
X51134637Y52121444D01*
X50912569Y52158500D01*
X50687431Y52158500D01*
X50465362Y52121444D01*
X50252430Y52048344D01*
X50252419Y52048339D01*
X50054427Y51941192D01*
X50054422Y51941188D01*
X49876761Y51802908D01*
X49876756Y51802903D01*
X49724284Y51637277D01*
X49724276Y51637266D01*
X49633808Y51498794D01*
X49580662Y51453438D01*
X49511431Y51444014D01*
X49448095Y51473516D01*
X49426192Y51498794D01*
X49361170Y51598317D01*
X49335722Y51637268D01*
X49335719Y51637271D01*
X49335715Y51637277D01*
X49183243Y51802903D01*
X49183238Y51802908D01*
X49005577Y51941188D01*
X49005572Y51941192D01*
X48807580Y52048339D01*
X48807577Y52048341D01*
X48807574Y52048342D01*
X48807571Y52048343D01*
X48807569Y52048344D01*
X48594637Y52121444D01*
X48372569Y52158500D01*
X48147431Y52158500D01*
X47925362Y52121444D01*
X47712430Y52048344D01*
X47712419Y52048339D01*
X47514427Y51941192D01*
X47514422Y51941188D01*
X47336761Y51802908D01*
X47273548Y51734240D01*
X47213661Y51698250D01*
X47143823Y51700351D01*
X47086207Y51739876D01*
X47066138Y51774890D01*
X47020889Y51896204D01*
X46987214Y51941188D01*
X46933261Y52013261D01*
X46816204Y52100889D01*
X46679203Y52151989D01*
X46618654Y52158500D01*
X46618638Y52158500D01*
X44821362Y52158500D01*
X44821345Y52158500D01*
X44760797Y52151989D01*
X44760795Y52151989D01*
X44623795Y52100889D01*
X44506739Y52013261D01*
X44419111Y51896205D01*
X44368011Y51759205D01*
X44368011Y51759203D01*
X44361500Y51698655D01*
X44361500Y49901346D01*
X44368011Y49840798D01*
X44368011Y49840796D01*
X44419111Y49703796D01*
X44506739Y49586739D01*
X44623796Y49499111D01*
X44760799Y49448011D01*
X44788050Y49445082D01*
X44821345Y49441501D01*
X44821362Y49441500D01*
X46618638Y49441500D01*
X46618654Y49441501D01*
X46645692Y49444409D01*
X46679201Y49448011D01*
X46816204Y49499111D01*
X46933261Y49586739D01*
X47020889Y49703796D01*
X47066138Y49825113D01*
X47108009Y49881044D01*
X47173474Y49905461D01*
X47241746Y49890609D01*
X47273545Y49865764D01*
X47336760Y49797094D01*
X47514424Y49658811D01*
X47514425Y49658811D01*
X47514427Y49658809D01*
X47561516Y49633326D01*
X47712426Y49551658D01*
X47925365Y49478556D01*
X48147431Y49441500D01*
X48372569Y49441500D01*
X48594635Y49478556D01*
X48807574Y49551658D01*
X49005576Y49658811D01*
X49183240Y49797094D01*
X49304594Y49928918D01*
X49335715Y49962724D01*
X49335715Y49962725D01*
X49335722Y49962732D01*
X49426193Y50101210D01*
X49479338Y50146563D01*
X49548569Y50155987D01*
X49611905Y50126485D01*
X49633804Y50101213D01*
X49724278Y49962732D01*
X49724283Y49962727D01*
X49724284Y49962724D01*
X49845240Y49831333D01*
X49876760Y49797094D01*
X50054424Y49658811D01*
X50054425Y49658811D01*
X50054427Y49658809D01*
X50101516Y49633326D01*
X50252426Y49551658D01*
X50465365Y49478556D01*
X50687431Y49441500D01*
X50786233Y49441500D01*
X50853272Y49421815D01*
X50899027Y49369011D01*
X50908971Y49299853D01*
X50879946Y49236297D01*
X50873914Y49229819D01*
X44313915Y42669819D01*
X44252592Y42636334D01*
X44226234Y42633500D01*
X41897602Y42633500D01*
X41775219Y42609157D01*
X41775214Y42609155D01*
X41741448Y42595171D01*
X41741449Y42595170D01*
X41659926Y42561402D01*
X41659922Y42561400D01*
X41556171Y42492076D01*
X41556163Y42492070D01*
X38496394Y39432300D01*
X38435071Y39398815D01*
X38368450Y39402700D01*
X38346954Y39410080D01*
X38174271Y39438895D01*
X38116712Y39448500D01*
X37883288Y39448500D01*
X37837240Y39440816D01*
X37653045Y39410080D01*
X37432280Y39334290D01*
X37432266Y39334284D01*
X37226988Y39223194D01*
X37226985Y39223192D01*
X37042781Y39079819D01*
X37042776Y39079815D01*
X36884686Y38908085D01*
X36757015Y38712669D01*
X36663251Y38498908D01*
X36605948Y38272623D01*
X36586673Y38040006D01*
X36586673Y38039995D01*
X36605948Y37807378D01*
X36663251Y37581093D01*
X36757015Y37367332D01*
X36884686Y37171916D01*
X36971856Y37077225D01*
X37002779Y37014571D01*
X36994919Y36945145D01*
X36950772Y36890989D01*
X36923963Y36877061D01*
X36853794Y36850889D01*
X36736739Y36763261D01*
X36649111Y36646205D01*
X36598011Y36509205D01*
X36598011Y36509203D01*
X36591500Y36448655D01*
X36591500Y34551346D01*
X36598011Y34490798D01*
X36598011Y34490796D01*
X36649111Y34353796D01*
X36736739Y34236739D01*
X36853796Y34149111D01*
X36990799Y34098011D01*
X37018050Y34095082D01*
X37051345Y34091501D01*
X37051362Y34091500D01*
X37242500Y34091500D01*
X37309539Y34071815D01*
X37355294Y34019011D01*
X37366500Y33967500D01*
X37366500Y31718353D01*
X37346815Y31651314D01*
X37313624Y31616779D01*
X37155699Y31506198D01*
X36993806Y31344305D01*
X36993803Y31344302D01*
X36993802Y31344300D01*
X36941879Y31270146D01*
X36862476Y31156748D01*
X36862475Y31156746D01*
X36765718Y30949250D01*
X36765714Y30949239D01*
X36706457Y30728090D01*
X36706456Y30728082D01*
X36686502Y30500002D01*
X36686502Y30499999D01*
X36706456Y30271919D01*
X36706457Y30271911D01*
X36765714Y30050762D01*
X36765718Y30050751D01*
X36823798Y29926198D01*
X36862477Y29843251D01*
X36993802Y29655700D01*
X37155700Y29493802D01*
X37343251Y29362477D01*
X37422751Y29325406D01*
X37550750Y29265719D01*
X37550752Y29265719D01*
X37550757Y29265716D01*
X37771913Y29206457D01*
X37934832Y29192204D01*
X37999998Y29186502D01*
X38000000Y29186502D01*
X38000002Y29186502D01*
X38057021Y29191491D01*
X38228087Y29206457D01*
X38449243Y29265716D01*
X38656749Y29362477D01*
X38844300Y29493802D01*
X39006198Y29655700D01*
X39137523Y29843251D01*
X39234284Y30050757D01*
X39287943Y30251013D01*
X41248000Y30251013D01*
X41248000Y28749013D01*
X42750000Y28749013D01*
X42750000Y30251013D01*
X43748000Y30251013D01*
X43748000Y28749013D01*
X45250000Y28749013D01*
X49008906Y28749013D01*
X50250000Y28749013D01*
X50250000Y30251013D01*
X51248000Y30251013D01*
X51248000Y28749013D01*
X52750000Y28749013D01*
X52750000Y30251013D01*
X53748000Y30251013D01*
X53748000Y28749013D01*
X55250000Y28749013D01*
X58748000Y28749013D01*
X60250000Y28749013D01*
X60250000Y30251013D01*
X61248000Y30251013D01*
X61248000Y28749013D01*
X62750000Y28749013D01*
X62750000Y30251013D01*
X63748000Y30251013D01*
X63748000Y28749013D01*
X64376000Y28749013D01*
X64376000Y30251013D01*
X63748000Y30251013D01*
X62750000Y30251013D01*
X61248000Y30251013D01*
X60250000Y30251013D01*
X59293526Y30251013D01*
X59285847Y30163238D01*
X59285258Y30157861D01*
X59280987Y30125417D01*
X59280165Y30120071D01*
X59272602Y30077175D01*
X59271546Y30071868D01*
X59264461Y30039908D01*
X59263175Y30034651D01*
X59192639Y29771409D01*
X59191124Y29766212D01*
X59181275Y29734978D01*
X59179535Y29729854D01*
X59164636Y29688924D01*
X59162675Y29683882D01*
X59150156Y29653662D01*
X59147979Y29648715D01*
X59032817Y29401747D01*
X59030425Y29396895D01*
X59015317Y29367872D01*
X59012715Y29363130D01*
X58990936Y29325406D01*
X58988131Y29320782D01*
X58970539Y29293166D01*
X58967531Y29288664D01*
X58811221Y29065432D01*
X58808022Y29061070D01*
X58788103Y29035111D01*
X58784718Y29030893D01*
X58756721Y28997526D01*
X58753153Y28993458D01*
X58748000Y28987835D01*
X58748000Y28749013D01*
X55250000Y28749013D01*
X55250000Y28990018D01*
X55246847Y28993458D01*
X55243279Y28997526D01*
X55215282Y29030893D01*
X55211897Y29035111D01*
X55191978Y29061070D01*
X55188779Y29065432D01*
X55032469Y29288664D01*
X55029461Y29293166D01*
X55011869Y29320782D01*
X55009064Y29325406D01*
X54987285Y29363130D01*
X54984683Y29367872D01*
X54969575Y29396895D01*
X54967183Y29401747D01*
X54852021Y29648715D01*
X54849844Y29653662D01*
X54837325Y29683882D01*
X54835364Y29688924D01*
X54820465Y29729854D01*
X54818725Y29734978D01*
X54808876Y29766212D01*
X54807361Y29771409D01*
X54736825Y30034651D01*
X54735539Y30039908D01*
X54728454Y30071868D01*
X54727398Y30077175D01*
X54719835Y30120071D01*
X54719013Y30125417D01*
X54714742Y30157861D01*
X54714153Y30163238D01*
X54706474Y30251013D01*
X53748000Y30251013D01*
X52750000Y30251013D01*
X51248000Y30251013D01*
X50250000Y30251013D01*
X49793526Y30251013D01*
X49785847Y30163238D01*
X49785258Y30157861D01*
X49780987Y30125417D01*
X49780165Y30120071D01*
X49772602Y30077175D01*
X49771546Y30071868D01*
X49764461Y30039908D01*
X49763175Y30034651D01*
X49692639Y29771409D01*
X49691124Y29766212D01*
X49681275Y29734978D01*
X49679535Y29729854D01*
X49664636Y29688924D01*
X49662675Y29683882D01*
X49650156Y29653662D01*
X49647979Y29648715D01*
X49532817Y29401747D01*
X49530425Y29396895D01*
X49515317Y29367872D01*
X49512715Y29363130D01*
X49490936Y29325406D01*
X49488131Y29320782D01*
X49470539Y29293166D01*
X49467531Y29288664D01*
X49311221Y29065432D01*
X49308022Y29061070D01*
X49288103Y29035111D01*
X49284718Y29030893D01*
X49256721Y28997526D01*
X49253153Y28993458D01*
X49231035Y28969320D01*
X49227293Y28965411D01*
X49034589Y28772707D01*
X49030680Y28768965D01*
X49008906Y28749013D01*
X45250000Y28749013D01*
X45250000Y29985482D01*
X45236825Y30034651D01*
X45235539Y30039908D01*
X45228454Y30071868D01*
X45227398Y30077175D01*
X45219835Y30120071D01*
X45219013Y30125417D01*
X45214742Y30157861D01*
X45214153Y30163238D01*
X45206474Y30251013D01*
X43748000Y30251013D01*
X42750000Y30251013D01*
X41248000Y30251013D01*
X39287943Y30251013D01*
X39293543Y30271913D01*
X39313498Y30500000D01*
X39293543Y30728087D01*
X39234284Y30949243D01*
X39137523Y31156749D01*
X39006198Y31344300D01*
X38844300Y31506198D01*
X38686376Y31616779D01*
X38642751Y31671356D01*
X38633500Y31718353D01*
X38633500Y32751013D01*
X39631500Y32751013D01*
X39631500Y32130382D01*
X39727293Y32034589D01*
X39731035Y32030680D01*
X39753153Y32006542D01*
X39756721Y32002474D01*
X39784718Y31969107D01*
X39788103Y31964889D01*
X39808022Y31938930D01*
X39811221Y31934568D01*
X39967531Y31711336D01*
X39970539Y31706834D01*
X39988131Y31679218D01*
X39990936Y31674594D01*
X40012715Y31636870D01*
X40015317Y31632128D01*
X40030425Y31603105D01*
X40032817Y31598253D01*
X40147979Y31351285D01*
X40150156Y31346338D01*
X40162675Y31316118D01*
X40164636Y31311076D01*
X40179535Y31270146D01*
X40181275Y31265022D01*
X40186323Y31249013D01*
X40250000Y31249013D01*
X40250000Y32751013D01*
X41248000Y32751013D01*
X41248000Y31249013D01*
X42750000Y31249013D01*
X42750000Y32751013D01*
X43748000Y32751013D01*
X43748000Y31249013D01*
X45250000Y31249013D01*
X45250000Y32751013D01*
X43748000Y32751013D01*
X42750000Y32751013D01*
X41248000Y32751013D01*
X40250000Y32751013D01*
X39631500Y32751013D01*
X38633500Y32751013D01*
X38633500Y33967500D01*
X38653185Y34034539D01*
X38705989Y34080294D01*
X38757500Y34091500D01*
X38948638Y34091500D01*
X38948654Y34091501D01*
X38975692Y34094409D01*
X39009201Y34098011D01*
X39146204Y34149111D01*
X39263261Y34236739D01*
X39350889Y34353796D01*
X39401989Y34490799D01*
X39407065Y34538013D01*
X39408499Y34551346D01*
X39408500Y34551363D01*
X39408500Y35251013D01*
X41248000Y35251013D01*
X41248000Y33749013D01*
X42750000Y33749013D01*
X42750000Y35251013D01*
X43748000Y35251013D01*
X43748000Y33749013D01*
X45250000Y33749013D01*
X45250000Y33919395D01*
X45229882Y33963448D01*
X45226496Y33971624D01*
X45152032Y34171264D01*
X45149551Y34178608D01*
X45135939Y34223487D01*
X45133923Y34230968D01*
X45119579Y34291683D01*
X45118035Y34299271D01*
X45110131Y34345444D01*
X45109064Y34353110D01*
X45097789Y34457974D01*
X45097477Y34461285D01*
X45095864Y34481333D01*
X45095642Y34484648D01*
X45094213Y34511335D01*
X45094080Y34514651D01*
X45093544Y34534699D01*
X45093500Y34538013D01*
X45093500Y35251013D01*
X43748000Y35251013D01*
X42750000Y35251013D01*
X41248000Y35251013D01*
X39408500Y35251013D01*
X39408500Y36448638D01*
X39408499Y36448655D01*
X39402760Y36502026D01*
X39401989Y36509201D01*
X39398458Y36518667D01*
X39365808Y36606205D01*
X39350889Y36646204D01*
X39263261Y36763261D01*
X39146204Y36850889D01*
X39145936Y36850989D01*
X39076037Y36877061D01*
X39020104Y36918933D01*
X38995688Y36984398D01*
X39010541Y37052671D01*
X39028138Y37077220D01*
X39115314Y37171917D01*
X39242984Y37367331D01*
X39336749Y37581093D01*
X39379778Y37751013D01*
X41248000Y37751013D01*
X41248000Y36249013D01*
X42750000Y36249013D01*
X42750000Y37751013D01*
X43748000Y37751013D01*
X43748000Y36249013D01*
X45093500Y36249013D01*
X45093500Y36461987D01*
X45093544Y36465301D01*
X45094080Y36485349D01*
X45094213Y36488665D01*
X45095642Y36515352D01*
X45095864Y36518667D01*
X45097477Y36538715D01*
X45097789Y36542026D01*
X45109064Y36646890D01*
X45110131Y36654556D01*
X45118035Y36700729D01*
X45119579Y36708317D01*
X45133923Y36769032D01*
X45135939Y36776513D01*
X45149551Y36821392D01*
X45152032Y36828736D01*
X45226496Y37028376D01*
X45229882Y37036552D01*
X45250000Y37080606D01*
X45250000Y37178627D01*
X45241024Y37199090D01*
X45239063Y37203823D01*
X45227795Y37232699D01*
X45226032Y37237510D01*
X45212632Y37276539D01*
X45211068Y37281421D01*
X45202217Y37311149D01*
X45200855Y37316093D01*
X45133421Y37582386D01*
X45132266Y37587378D01*
X45125901Y37617732D01*
X45124952Y37622776D01*
X45118162Y37663477D01*
X45117424Y37668545D01*
X45113590Y37699306D01*
X45113062Y37704402D01*
X45109200Y37751013D01*
X43748000Y37751013D01*
X42750000Y37751013D01*
X41248000Y37751013D01*
X39379778Y37751013D01*
X39394051Y37807374D01*
X39410012Y37999995D01*
X39413327Y38039995D01*
X39413327Y38040006D01*
X39394052Y38272618D01*
X39394050Y38272630D01*
X39357694Y38416196D01*
X39360319Y38486016D01*
X39390217Y38534315D01*
X39604915Y38749013D01*
X41248000Y38749013D01*
X42750000Y38749013D01*
X42750000Y40251013D01*
X43748000Y40251013D01*
X43748000Y38749013D01*
X45197083Y38749013D01*
X45200855Y38763907D01*
X45202217Y38768851D01*
X45211068Y38798579D01*
X45212632Y38803461D01*
X45226032Y38842490D01*
X45227795Y38847301D01*
X45239063Y38876177D01*
X45241024Y38880909D01*
X45250000Y38901373D01*
X45250000Y40251013D01*
X43748000Y40251013D01*
X42750000Y40251013D01*
X42518302Y40251013D01*
X41248000Y38980714D01*
X41248000Y38749013D01*
X39604915Y38749013D01*
X42186086Y41330181D01*
X42247409Y41363666D01*
X42273767Y41366500D01*
X44602395Y41366500D01*
X44602396Y41366501D01*
X44724785Y41390845D01*
X44840075Y41438600D01*
X44943833Y41507929D01*
X52883009Y49447107D01*
X52944330Y49480590D01*
X53001143Y49479626D01*
X53005356Y49478559D01*
X53005365Y49478556D01*
X53227431Y49441500D01*
X53326232Y49441500D01*
X53393271Y49421815D01*
X53439026Y49369011D01*
X53448970Y49299853D01*
X53419945Y49236297D01*
X53413913Y49229819D01*
X51701385Y47517290D01*
X47096167Y42912071D01*
X47052047Y42867951D01*
X47007927Y42823832D01*
X46938603Y42720082D01*
X46938598Y42720073D01*
X46890845Y42604786D01*
X46890843Y42604778D01*
X46866500Y42482399D01*
X46866500Y39372582D01*
X46846815Y39305543D01*
X46801519Y39263528D01*
X46726988Y39223194D01*
X46726985Y39223192D01*
X46542781Y39079819D01*
X46542776Y39079815D01*
X46384686Y38908085D01*
X46257015Y38712669D01*
X46163251Y38498908D01*
X46105948Y38272623D01*
X46086673Y38040006D01*
X46086673Y38039995D01*
X46105948Y37807378D01*
X46163251Y37581093D01*
X46257015Y37367332D01*
X46384686Y37171916D01*
X46471856Y37077225D01*
X46502779Y37014571D01*
X46494919Y36945145D01*
X46450772Y36890989D01*
X46423963Y36877061D01*
X46353794Y36850889D01*
X46236739Y36763261D01*
X46149111Y36646205D01*
X46098011Y36509205D01*
X46098011Y36509203D01*
X46091500Y36448655D01*
X46091500Y34551346D01*
X46098011Y34490798D01*
X46098011Y34490796D01*
X46149111Y34353796D01*
X46236739Y34236739D01*
X46353796Y34149111D01*
X46490799Y34098011D01*
X46518050Y34095082D01*
X46551345Y34091501D01*
X46551362Y34091500D01*
X46742500Y34091500D01*
X46809539Y34071815D01*
X46855294Y34019011D01*
X46866500Y33967500D01*
X46866500Y31718353D01*
X46846815Y31651314D01*
X46813624Y31616779D01*
X46655699Y31506198D01*
X46493806Y31344305D01*
X46493803Y31344302D01*
X46493802Y31344300D01*
X46441879Y31270146D01*
X46362476Y31156748D01*
X46362475Y31156746D01*
X46265718Y30949250D01*
X46265714Y30949239D01*
X46206457Y30728090D01*
X46206456Y30728082D01*
X46186502Y30500002D01*
X46186502Y30499999D01*
X46206456Y30271919D01*
X46206457Y30271911D01*
X46265714Y30050762D01*
X46265718Y30050751D01*
X46323798Y29926198D01*
X46362477Y29843251D01*
X46493802Y29655700D01*
X46655700Y29493802D01*
X46843251Y29362477D01*
X46922751Y29325406D01*
X47050750Y29265719D01*
X47050752Y29265719D01*
X47050757Y29265716D01*
X47271913Y29206457D01*
X47434832Y29192204D01*
X47499998Y29186502D01*
X47500000Y29186502D01*
X47500002Y29186502D01*
X47557021Y29191491D01*
X47728087Y29206457D01*
X47949243Y29265716D01*
X48156749Y29362477D01*
X48344300Y29493802D01*
X48506198Y29655700D01*
X48637523Y29843251D01*
X48734284Y30050757D01*
X48793543Y30271913D01*
X48813498Y30500000D01*
X48793543Y30728087D01*
X48734284Y30949243D01*
X48637523Y31156749D01*
X48506198Y31344300D01*
X48344300Y31506198D01*
X48186376Y31616779D01*
X48142751Y31671356D01*
X48133500Y31718353D01*
X48133500Y32751013D01*
X49131500Y32751013D01*
X49131500Y32130382D01*
X49227293Y32034589D01*
X49231035Y32030680D01*
X49253153Y32006542D01*
X49256721Y32002474D01*
X49284718Y31969107D01*
X49288103Y31964889D01*
X49308022Y31938930D01*
X49311221Y31934568D01*
X49467531Y31711336D01*
X49470539Y31706834D01*
X49488131Y31679218D01*
X49490936Y31674594D01*
X49512715Y31636870D01*
X49515317Y31632128D01*
X49530425Y31603105D01*
X49532817Y31598253D01*
X49647979Y31351285D01*
X49650156Y31346338D01*
X49662675Y31316118D01*
X49664636Y31311076D01*
X49679535Y31270146D01*
X49681275Y31265022D01*
X49686323Y31249013D01*
X50250000Y31249013D01*
X50250000Y32751013D01*
X51248000Y32751013D01*
X51248000Y31249013D01*
X52750000Y31249013D01*
X52750000Y32751013D01*
X53748000Y32751013D01*
X53748000Y31249013D01*
X54813677Y31249013D01*
X54818725Y31265022D01*
X54820465Y31270146D01*
X54835364Y31311076D01*
X54837325Y31316118D01*
X54849844Y31346338D01*
X54852021Y31351285D01*
X54967183Y31598253D01*
X54969575Y31603105D01*
X54984683Y31632128D01*
X54987285Y31636870D01*
X55009064Y31674594D01*
X55011869Y31679218D01*
X55029461Y31706834D01*
X55032469Y31711336D01*
X55188779Y31934568D01*
X55191978Y31938930D01*
X55211897Y31964889D01*
X55215282Y31969107D01*
X55243279Y32002474D01*
X55246847Y32006542D01*
X55250000Y32009983D01*
X55250000Y32751013D01*
X53748000Y32751013D01*
X52750000Y32751013D01*
X51248000Y32751013D01*
X50250000Y32751013D01*
X49131500Y32751013D01*
X48133500Y32751013D01*
X48133500Y33749013D01*
X49644811Y33749013D01*
X50250000Y33749013D01*
X50250000Y35251013D01*
X51248000Y35251013D01*
X51248000Y33749013D01*
X52750000Y33749013D01*
X52750000Y35251013D01*
X53748000Y35251013D01*
X53748000Y33749013D01*
X54825503Y33749013D01*
X54823752Y33751535D01*
X54794780Y33796617D01*
X54790261Y33804234D01*
X54756089Y33866822D01*
X54752129Y33874733D01*
X54729882Y33923448D01*
X54726496Y33931624D01*
X54652032Y34131264D01*
X54649551Y34138608D01*
X54635939Y34183487D01*
X54633923Y34190968D01*
X54619579Y34251683D01*
X54618035Y34259271D01*
X54610131Y34305444D01*
X54609064Y34313110D01*
X54597789Y34417974D01*
X54597477Y34421285D01*
X54595864Y34441333D01*
X54595642Y34444648D01*
X54594213Y34471335D01*
X54594080Y34474651D01*
X54593544Y34494699D01*
X54593500Y34498013D01*
X54593500Y35251013D01*
X53748000Y35251013D01*
X52750000Y35251013D01*
X51248000Y35251013D01*
X50250000Y35251013D01*
X49906500Y35251013D01*
X49906500Y34538013D01*
X49906456Y34534699D01*
X49905920Y34514651D01*
X49905787Y34511335D01*
X49904358Y34484648D01*
X49904136Y34481333D01*
X49902523Y34461285D01*
X49902211Y34457974D01*
X49890936Y34353110D01*
X49889869Y34345444D01*
X49881965Y34299271D01*
X49880421Y34291683D01*
X49866077Y34230968D01*
X49864061Y34223487D01*
X49850449Y34178608D01*
X49847968Y34171264D01*
X49773504Y33971624D01*
X49770118Y33963448D01*
X49747871Y33914733D01*
X49743911Y33906822D01*
X49709739Y33844234D01*
X49705220Y33836617D01*
X49676248Y33791535D01*
X49671199Y33784263D01*
X49644811Y33749013D01*
X48133500Y33749013D01*
X48133500Y33967500D01*
X48153185Y34034539D01*
X48205989Y34080294D01*
X48257500Y34091500D01*
X48448638Y34091500D01*
X48448654Y34091501D01*
X48475692Y34094409D01*
X48509201Y34098011D01*
X48646204Y34149111D01*
X48763261Y34236739D01*
X48850889Y34353796D01*
X48901989Y34490799D01*
X48907065Y34538013D01*
X48908499Y34551346D01*
X48908500Y34551363D01*
X48908500Y36448638D01*
X48908499Y36448655D01*
X48902760Y36502026D01*
X48901989Y36509201D01*
X48898458Y36518667D01*
X48865808Y36606205D01*
X48850889Y36646204D01*
X48763261Y36763261D01*
X48646204Y36850889D01*
X48645936Y36850989D01*
X48576037Y36877061D01*
X48520104Y36918933D01*
X48495688Y36984398D01*
X48510541Y37052671D01*
X48528138Y37077220D01*
X48572179Y37125061D01*
X49726503Y37125061D01*
X49743911Y37093178D01*
X49747871Y37085267D01*
X49770118Y37036552D01*
X49773504Y37028376D01*
X49847968Y36828736D01*
X49850449Y36821392D01*
X49864061Y36776513D01*
X49866077Y36769032D01*
X49880421Y36708317D01*
X49881965Y36700729D01*
X49889869Y36654556D01*
X49890936Y36646890D01*
X49902211Y36542026D01*
X49902523Y36538715D01*
X49904136Y36518667D01*
X49904358Y36515352D01*
X49905787Y36488665D01*
X49905920Y36485349D01*
X49906456Y36465301D01*
X49906500Y36461987D01*
X49906500Y36249013D01*
X50250000Y36249013D01*
X50250000Y37751013D01*
X51248000Y37751013D01*
X51248000Y36249013D01*
X52750000Y36249013D01*
X52750000Y37751013D01*
X53748000Y37751013D01*
X53748000Y36249013D01*
X54593500Y36249013D01*
X54593500Y36421987D01*
X54593544Y36425301D01*
X54594080Y36445349D01*
X54594213Y36448665D01*
X54595642Y36475352D01*
X54595864Y36478667D01*
X54597477Y36498715D01*
X54597789Y36502026D01*
X54609064Y36606890D01*
X54610131Y36614556D01*
X54618035Y36660729D01*
X54619579Y36668317D01*
X54633923Y36729032D01*
X54635939Y36736513D01*
X54649551Y36781392D01*
X54652032Y36788736D01*
X54726496Y36988376D01*
X54729882Y36996552D01*
X54752129Y37045267D01*
X54756089Y37053178D01*
X54773496Y37085060D01*
X54741024Y37159090D01*
X54739063Y37163823D01*
X54727795Y37192699D01*
X54726032Y37197510D01*
X54712632Y37236539D01*
X54711068Y37241421D01*
X54702217Y37271149D01*
X54700855Y37276093D01*
X54633421Y37542386D01*
X54632266Y37547378D01*
X54625901Y37577732D01*
X54624952Y37582776D01*
X54618162Y37623477D01*
X54617424Y37628545D01*
X54613590Y37659306D01*
X54613062Y37664402D01*
X54605885Y37751013D01*
X53748000Y37751013D01*
X52750000Y37751013D01*
X51248000Y37751013D01*
X50250000Y37751013D01*
X49890800Y37751013D01*
X49886938Y37704402D01*
X49886410Y37699306D01*
X49882576Y37668545D01*
X49881838Y37663477D01*
X49875048Y37622776D01*
X49874099Y37617732D01*
X49867734Y37587378D01*
X49866579Y37582386D01*
X49799145Y37316093D01*
X49797783Y37311149D01*
X49788932Y37281421D01*
X49787368Y37276539D01*
X49773968Y37237510D01*
X49772205Y37232699D01*
X49760937Y37203823D01*
X49758976Y37199090D01*
X49726503Y37125061D01*
X48572179Y37125061D01*
X48615314Y37171917D01*
X48742984Y37367331D01*
X48836749Y37581093D01*
X48894051Y37807374D01*
X48910012Y37999995D01*
X48913327Y38039995D01*
X48913327Y38040006D01*
X48897366Y38232623D01*
X48894051Y38272626D01*
X48836749Y38498907D01*
X48742984Y38712669D01*
X48712990Y38758579D01*
X48615313Y38908085D01*
X48457223Y39079815D01*
X48457222Y39079816D01*
X48457220Y39079818D01*
X48273017Y39223190D01*
X48273015Y39223191D01*
X48273014Y39223192D01*
X48273011Y39223194D01*
X48198481Y39263528D01*
X48148891Y39312748D01*
X48133500Y39372582D01*
X48133500Y40251013D01*
X49131500Y40251013D01*
X49131500Y39815587D01*
X49148342Y39800081D01*
X49152036Y39796536D01*
X49173952Y39774620D01*
X49177500Y39770922D01*
X49363534Y39568837D01*
X49366928Y39564995D01*
X49386961Y39541342D01*
X49390188Y39537368D01*
X49415536Y39504804D01*
X49418602Y39500692D01*
X49436627Y39475447D01*
X49439520Y39471213D01*
X49589761Y39241250D01*
X49592474Y39236904D01*
X49608345Y39210270D01*
X49610878Y39205812D01*
X49630517Y39169522D01*
X49632861Y39164969D01*
X49646481Y39137111D01*
X49648638Y39132457D01*
X49758976Y38880910D01*
X49760937Y38876177D01*
X49772205Y38847301D01*
X49773968Y38842490D01*
X49787368Y38803461D01*
X49788932Y38798579D01*
X49797783Y38768851D01*
X49799145Y38763907D01*
X49802917Y38749013D01*
X50250000Y38749013D01*
X50250000Y40251013D01*
X51248000Y40251013D01*
X51248000Y38749013D01*
X52750000Y38749013D01*
X52750000Y40251013D01*
X53748000Y40251013D01*
X53748000Y38749013D01*
X54708220Y38749013D01*
X54711068Y38758579D01*
X54712632Y38763461D01*
X54726032Y38802490D01*
X54727795Y38807301D01*
X54739063Y38836177D01*
X54741024Y38840910D01*
X54851362Y39092457D01*
X54853519Y39097111D01*
X54867139Y39124969D01*
X54869483Y39129522D01*
X54889122Y39165812D01*
X54891655Y39170270D01*
X54907526Y39196904D01*
X54910239Y39201250D01*
X55060480Y39431213D01*
X55063373Y39435447D01*
X55081398Y39460692D01*
X55084464Y39464804D01*
X55109812Y39497368D01*
X55113039Y39501342D01*
X55133072Y39524995D01*
X55136465Y39528837D01*
X55250000Y39652169D01*
X55250000Y40251013D01*
X53748000Y40251013D01*
X52750000Y40251013D01*
X51248000Y40251013D01*
X50250000Y40251013D01*
X49131500Y40251013D01*
X48133500Y40251013D01*
X48133500Y41249013D01*
X49131500Y41249013D01*
X50250000Y41249013D01*
X50250000Y42751013D01*
X51248000Y42751013D01*
X51248000Y41249013D01*
X52750000Y41249013D01*
X52750000Y42751013D01*
X53748000Y42751013D01*
X53748000Y41249013D01*
X55250000Y41249013D01*
X55250000Y42751013D01*
X56248000Y42751013D01*
X56248000Y41249013D01*
X56788500Y41249013D01*
X56788500Y42751013D01*
X56248000Y42751013D01*
X55250000Y42751013D01*
X53748000Y42751013D01*
X52750000Y42751013D01*
X51248000Y42751013D01*
X50250000Y42751013D01*
X50138300Y42751013D01*
X49131500Y41744213D01*
X49131500Y41249013D01*
X48133500Y41249013D01*
X48133500Y42106234D01*
X48153185Y42173273D01*
X48169819Y42193915D01*
X49724917Y43749013D01*
X51248000Y43749013D01*
X52750000Y43749013D01*
X52750000Y45251013D01*
X53748000Y45251013D01*
X53748000Y43749013D01*
X55250000Y43749013D01*
X55250000Y45251013D01*
X56248000Y45251013D01*
X56248000Y43749013D01*
X56788500Y43749013D01*
X56788500Y45251013D01*
X56248000Y45251013D01*
X55250000Y45251013D01*
X53748000Y45251013D01*
X52750000Y45251013D01*
X52638300Y45251013D01*
X51248000Y43860713D01*
X51248000Y43749013D01*
X49724917Y43749013D01*
X51226917Y45251013D01*
X52224917Y46249013D01*
X53748000Y46249013D01*
X55250000Y46249013D01*
X55250000Y47751013D01*
X56248000Y47751013D01*
X56248000Y46249013D01*
X56788500Y46249013D01*
X56788500Y47751013D01*
X56248000Y47751013D01*
X55250000Y47751013D01*
X55138300Y47751013D01*
X53748000Y46360713D01*
X53748000Y46249013D01*
X52224917Y46249013D01*
X55423009Y49447106D01*
X55484330Y49480589D01*
X55541128Y49479629D01*
X55545359Y49478558D01*
X55545365Y49478556D01*
X55767431Y49441500D01*
X55992569Y49441500D01*
X56214635Y49478556D01*
X56427574Y49551658D01*
X56625576Y49658811D01*
X56803240Y49797094D01*
X56924594Y49928918D01*
X56955715Y49962724D01*
X56955715Y49962725D01*
X56955722Y49962732D01*
X57046193Y50101210D01*
X57099338Y50146563D01*
X57168569Y50155987D01*
X57231905Y50126485D01*
X57253804Y50101213D01*
X57344278Y49962732D01*
X57344283Y49962727D01*
X57344284Y49962724D01*
X57465240Y49831333D01*
X57496760Y49797094D01*
X57674424Y49658811D01*
X57674426Y49658810D01*
X57674433Y49658805D01*
X57721516Y49633326D01*
X57771107Y49584108D01*
X57786500Y49524271D01*
X57786500Y39733767D01*
X57766815Y39666728D01*
X57750181Y39646086D01*
X57496394Y39392300D01*
X57435071Y39358815D01*
X57368450Y39362700D01*
X57346954Y39370080D01*
X57167170Y39400080D01*
X57116712Y39408500D01*
X56883288Y39408500D01*
X56837240Y39400816D01*
X56653045Y39370080D01*
X56432280Y39294290D01*
X56432266Y39294284D01*
X56226988Y39183194D01*
X56226985Y39183192D01*
X56042781Y39039819D01*
X56042776Y39039815D01*
X55884686Y38868085D01*
X55757015Y38672669D01*
X55663251Y38458908D01*
X55605948Y38232623D01*
X55586673Y38000006D01*
X55586673Y37999995D01*
X55605948Y37767378D01*
X55663251Y37541093D01*
X55757015Y37327332D01*
X55884686Y37131916D01*
X55971856Y37037225D01*
X56002779Y36974571D01*
X55994919Y36905145D01*
X55950772Y36850989D01*
X55923963Y36837061D01*
X55853794Y36810889D01*
X55736739Y36723261D01*
X55649111Y36606205D01*
X55598011Y36469205D01*
X55598011Y36469203D01*
X55591500Y36408655D01*
X55591500Y34511346D01*
X55598011Y34450798D01*
X55598011Y34450796D01*
X55634447Y34353110D01*
X55649111Y34313796D01*
X55736739Y34196739D01*
X55853796Y34109111D01*
X55990799Y34058011D01*
X56018050Y34055082D01*
X56051345Y34051501D01*
X56051362Y34051500D01*
X56242500Y34051500D01*
X56309539Y34031815D01*
X56355294Y33979011D01*
X56366500Y33927500D01*
X56366500Y31718353D01*
X56346815Y31651314D01*
X56313624Y31616779D01*
X56155699Y31506198D01*
X55993806Y31344305D01*
X55993803Y31344302D01*
X55993802Y31344300D01*
X55941879Y31270146D01*
X55862476Y31156748D01*
X55862475Y31156746D01*
X55765718Y30949250D01*
X55765714Y30949239D01*
X55706457Y30728090D01*
X55706456Y30728082D01*
X55686502Y30500002D01*
X55686502Y30499999D01*
X55706456Y30271919D01*
X55706457Y30271911D01*
X55765714Y30050762D01*
X55765718Y30050751D01*
X55823798Y29926198D01*
X55862477Y29843251D01*
X55993802Y29655700D01*
X56155700Y29493802D01*
X56343251Y29362477D01*
X56422751Y29325406D01*
X56550750Y29265719D01*
X56550752Y29265719D01*
X56550757Y29265716D01*
X56771913Y29206457D01*
X56934832Y29192204D01*
X56999998Y29186502D01*
X57000000Y29186502D01*
X57000002Y29186502D01*
X57057021Y29191491D01*
X57228087Y29206457D01*
X57449243Y29265716D01*
X57656749Y29362477D01*
X57844300Y29493802D01*
X58006198Y29655700D01*
X58137523Y29843251D01*
X58234284Y30050757D01*
X58293543Y30271913D01*
X58313498Y30500000D01*
X58293543Y30728087D01*
X58234284Y30949243D01*
X58137523Y31156749D01*
X58006198Y31344300D01*
X57844300Y31506198D01*
X57686376Y31616779D01*
X57642751Y31671356D01*
X57633500Y31718353D01*
X57633500Y32751013D01*
X58748000Y32751013D01*
X58748000Y32012166D01*
X58753153Y32006542D01*
X58756721Y32002474D01*
X58784718Y31969107D01*
X58788103Y31964889D01*
X58808022Y31938930D01*
X58811221Y31934568D01*
X58967531Y31711336D01*
X58970539Y31706834D01*
X58988131Y31679218D01*
X58990936Y31674594D01*
X59012715Y31636870D01*
X59015317Y31632128D01*
X59030425Y31603105D01*
X59032817Y31598253D01*
X59147979Y31351285D01*
X59150156Y31346338D01*
X59162675Y31316118D01*
X59164636Y31311076D01*
X59179535Y31270146D01*
X59181275Y31265022D01*
X59186323Y31249013D01*
X60250000Y31249013D01*
X60250000Y32751013D01*
X61248000Y32751013D01*
X61248000Y31249013D01*
X62750000Y31249013D01*
X62750000Y32751013D01*
X63748000Y32751013D01*
X63748000Y31249013D01*
X64376000Y31249013D01*
X64376000Y32751013D01*
X63748000Y32751013D01*
X62750000Y32751013D01*
X61248000Y32751013D01*
X60250000Y32751013D01*
X58748000Y32751013D01*
X57633500Y32751013D01*
X57633500Y33749013D01*
X59174497Y33749013D01*
X60250000Y33749013D01*
X60250000Y35251013D01*
X61248000Y35251013D01*
X61248000Y33749013D01*
X62750000Y33749013D01*
X62750000Y35251013D01*
X63748000Y35251013D01*
X63748000Y33749013D01*
X64376000Y33749013D01*
X64376000Y35251013D01*
X63748000Y35251013D01*
X62750000Y35251013D01*
X61248000Y35251013D01*
X60250000Y35251013D01*
X59406500Y35251013D01*
X59406500Y34498013D01*
X59406456Y34494699D01*
X59405920Y34474651D01*
X59405787Y34471335D01*
X59404358Y34444648D01*
X59404136Y34441333D01*
X59402523Y34421285D01*
X59402211Y34417974D01*
X59390936Y34313110D01*
X59389869Y34305444D01*
X59381965Y34259271D01*
X59380421Y34251683D01*
X59366077Y34190968D01*
X59364061Y34183487D01*
X59350449Y34138608D01*
X59347968Y34131264D01*
X59273504Y33931624D01*
X59270118Y33923448D01*
X59247871Y33874733D01*
X59243911Y33866822D01*
X59209739Y33804234D01*
X59205220Y33796617D01*
X59176248Y33751535D01*
X59174497Y33749013D01*
X57633500Y33749013D01*
X57633500Y33927500D01*
X57653185Y33994539D01*
X57705989Y34040294D01*
X57757500Y34051500D01*
X57948638Y34051500D01*
X57948654Y34051501D01*
X57975692Y34054409D01*
X58009201Y34058011D01*
X58146204Y34109111D01*
X58263261Y34196739D01*
X58350889Y34313796D01*
X58401989Y34450799D01*
X58407065Y34498013D01*
X58408499Y34511346D01*
X58408500Y34511363D01*
X58408500Y36408638D01*
X58408499Y36408655D01*
X58404553Y36445349D01*
X58401989Y36469201D01*
X58398458Y36478667D01*
X58374826Y36542026D01*
X58350889Y36606204D01*
X58263261Y36723261D01*
X58146204Y36810889D01*
X58076037Y36837061D01*
X58020104Y36878933D01*
X57995688Y36944398D01*
X58010541Y37012671D01*
X58028138Y37037220D01*
X58072179Y37085061D01*
X59226503Y37085061D01*
X59243911Y37053178D01*
X59247871Y37045267D01*
X59270118Y36996552D01*
X59273504Y36988376D01*
X59347968Y36788736D01*
X59350449Y36781392D01*
X59364061Y36736513D01*
X59366077Y36729032D01*
X59380421Y36668317D01*
X59381965Y36660729D01*
X59389869Y36614556D01*
X59390936Y36606890D01*
X59402211Y36502026D01*
X59402523Y36498715D01*
X59404136Y36478667D01*
X59404358Y36475352D01*
X59405787Y36448665D01*
X59405920Y36445349D01*
X59406456Y36425301D01*
X59406500Y36421987D01*
X59406500Y36249013D01*
X60250000Y36249013D01*
X60250000Y37751013D01*
X61248000Y37751013D01*
X61248000Y36249013D01*
X62750000Y36249013D01*
X62750000Y37751013D01*
X63748000Y37751013D01*
X63748000Y36249013D01*
X64376000Y36249013D01*
X64376000Y37751013D01*
X63748000Y37751013D01*
X62750000Y37751013D01*
X61248000Y37751013D01*
X60250000Y37751013D01*
X59394115Y37751013D01*
X59386938Y37664402D01*
X59386410Y37659306D01*
X59382576Y37628545D01*
X59381838Y37623477D01*
X59375048Y37582776D01*
X59374099Y37577732D01*
X59367734Y37547378D01*
X59366579Y37542386D01*
X59299145Y37276093D01*
X59297783Y37271149D01*
X59288932Y37241421D01*
X59287368Y37236539D01*
X59273968Y37197510D01*
X59272205Y37192699D01*
X59260937Y37163823D01*
X59258976Y37159090D01*
X59226503Y37085061D01*
X58072179Y37085061D01*
X58115314Y37131917D01*
X58242984Y37327331D01*
X58336749Y37541093D01*
X58394051Y37767374D01*
X58413327Y38000000D01*
X58410344Y38035994D01*
X58394052Y38232618D01*
X58394051Y38232623D01*
X58394051Y38232626D01*
X58357694Y38376196D01*
X58360319Y38446015D01*
X58390219Y38494316D01*
X58644917Y38749013D01*
X58912071Y39016167D01*
X58981400Y39119925D01*
X59029155Y39235215D01*
X59053500Y39357606D01*
X59053500Y39482394D01*
X59053500Y40251013D01*
X61248000Y40251013D01*
X61248000Y38749013D01*
X62750000Y38749013D01*
X62750000Y40251013D01*
X63748000Y40251013D01*
X63748000Y38749013D01*
X64376000Y38749013D01*
X64376000Y40251013D01*
X63748000Y40251013D01*
X62750000Y40251013D01*
X61248000Y40251013D01*
X59053500Y40251013D01*
X59053500Y42751013D01*
X61248000Y42751013D01*
X61248000Y41249013D01*
X62750000Y41249013D01*
X62750000Y42751013D01*
X63748000Y42751013D01*
X63748000Y41249013D01*
X64376000Y41249013D01*
X64376000Y42751013D01*
X63748000Y42751013D01*
X62750000Y42751013D01*
X61248000Y42751013D01*
X59053500Y42751013D01*
X59053500Y45251013D01*
X61248000Y45251013D01*
X61248000Y43749013D01*
X62750000Y43749013D01*
X62750000Y45251013D01*
X63748000Y45251013D01*
X63748000Y43749013D01*
X64376000Y43749013D01*
X64376000Y45251013D01*
X63748000Y45251013D01*
X62750000Y45251013D01*
X61248000Y45251013D01*
X59053500Y45251013D01*
X59053500Y47751013D01*
X61248000Y47751013D01*
X61248000Y46249013D01*
X62750000Y46249013D01*
X62750000Y47751013D01*
X63748000Y47751013D01*
X63748000Y46249013D01*
X64376000Y46249013D01*
X64376000Y47751013D01*
X63748000Y47751013D01*
X62750000Y47751013D01*
X61248000Y47751013D01*
X59053500Y47751013D01*
X59053500Y49524271D01*
X59073185Y49591310D01*
X59118484Y49633326D01*
X59165566Y49658805D01*
X59165572Y49658809D01*
X59165576Y49658811D01*
X59343240Y49797094D01*
X59464594Y49928918D01*
X59495715Y49962724D01*
X59495715Y49962725D01*
X59495722Y49962732D01*
X59586193Y50101210D01*
X59639338Y50146563D01*
X59708569Y50155987D01*
X59771905Y50126485D01*
X59793804Y50101213D01*
X59884278Y49962732D01*
X59884283Y49962727D01*
X59884284Y49962724D01*
X60005240Y49831333D01*
X60036760Y49797094D01*
X60214424Y49658811D01*
X60214425Y49658811D01*
X60214427Y49658809D01*
X60261516Y49633326D01*
X60412426Y49551658D01*
X60625365Y49478556D01*
X60847431Y49441500D01*
X61072569Y49441500D01*
X61294635Y49478556D01*
X61507574Y49551658D01*
X61705576Y49658811D01*
X61883240Y49797094D01*
X62004594Y49928918D01*
X62035715Y49962724D01*
X62035715Y49962725D01*
X62035722Y49962732D01*
X62126193Y50101210D01*
X62179338Y50146563D01*
X62248569Y50155987D01*
X62311905Y50126485D01*
X62333804Y50101213D01*
X62424278Y49962732D01*
X62424283Y49962727D01*
X62424284Y49962724D01*
X62545240Y49831333D01*
X62576760Y49797094D01*
X62754424Y49658811D01*
X62754425Y49658811D01*
X62754427Y49658809D01*
X62801516Y49633326D01*
X62952426Y49551658D01*
X63165365Y49478556D01*
X63387431Y49441500D01*
X63612569Y49441500D01*
X63834635Y49478556D01*
X64047574Y49551658D01*
X64245576Y49658811D01*
X64423240Y49797094D01*
X64544594Y49928918D01*
X64575715Y49962724D01*
X64575717Y49962727D01*
X64575722Y49962732D01*
X64698860Y50151209D01*
X64789296Y50357384D01*
X64844564Y50575632D01*
X64847164Y50607007D01*
X64863156Y50799995D01*
X64863156Y50800006D01*
X64844565Y51024360D01*
X64844563Y51024372D01*
X64789296Y51242615D01*
X64779071Y51265925D01*
X64749627Y51333051D01*
X64698861Y51448790D01*
X64688765Y51464242D01*
X64668577Y51531132D01*
X64687756Y51598317D01*
X64740214Y51644468D01*
X64809296Y51654932D01*
X64873068Y51626386D01*
X64880254Y51619746D01*
X65463681Y51036319D01*
X65497166Y50974996D01*
X65500000Y50948638D01*
X65500000Y624000D01*
X65480315Y556961D01*
X65427511Y511206D01*
X65376000Y500000D01*
X1124000Y500000D01*
X1056961Y519685D01*
X1011206Y572489D01*
X1000000Y624000D01*
X1000000Y2751013D01*
X2124000Y2751013D01*
X2124000Y1624000D01*
X2750000Y1624000D01*
X2750000Y2751013D01*
X3748000Y2751013D01*
X3748000Y1624000D01*
X5250000Y1624000D01*
X5250000Y2751013D01*
X6248000Y2751013D01*
X6248000Y1624000D01*
X7750000Y1624000D01*
X7750000Y2751013D01*
X8748000Y2751013D01*
X8748000Y1624000D01*
X10250000Y1624000D01*
X10250000Y2751013D01*
X11248000Y2751013D01*
X11248000Y1624000D01*
X12750000Y1624000D01*
X12750000Y2751013D01*
X13748000Y2751013D01*
X13748000Y1624000D01*
X15250000Y1624000D01*
X15250000Y2751013D01*
X16248000Y2751013D01*
X16248000Y1624000D01*
X17750000Y1624000D01*
X17750000Y2751013D01*
X18748000Y2751013D01*
X18748000Y1624000D01*
X20250000Y1624000D01*
X20250000Y2751013D01*
X21248000Y2751013D01*
X21248000Y1624000D01*
X22750000Y1624000D01*
X22750000Y2751013D01*
X23748000Y2751013D01*
X23748000Y1624000D01*
X25250000Y1624000D01*
X25250000Y2751013D01*
X23748000Y2751013D01*
X22750000Y2751013D01*
X21248000Y2751013D01*
X20250000Y2751013D01*
X18748000Y2751013D01*
X17750000Y2751013D01*
X16248000Y2751013D01*
X15250000Y2751013D01*
X13748000Y2751013D01*
X12750000Y2751013D01*
X11248000Y2751013D01*
X10250000Y2751013D01*
X8748000Y2751013D01*
X7750000Y2751013D01*
X6248000Y2751013D01*
X5250000Y2751013D01*
X3748000Y2751013D01*
X2750000Y2751013D01*
X2124000Y2751013D01*
X1000000Y2751013D01*
X1000000Y5251013D01*
X2124000Y5251013D01*
X2124000Y3749013D01*
X2750000Y3749013D01*
X2750000Y5251013D01*
X3748000Y5251013D01*
X3748000Y3749013D01*
X5250000Y3749013D01*
X5250000Y5251013D01*
X6248000Y5251013D01*
X6248000Y3749013D01*
X7750000Y3749013D01*
X7750000Y5251013D01*
X8748000Y5251013D01*
X8748000Y3749013D01*
X10250000Y3749013D01*
X10250000Y5251013D01*
X11248000Y5251013D01*
X11248000Y3749013D01*
X12750000Y3749013D01*
X12750000Y5251013D01*
X13748000Y5251013D01*
X13748000Y3749013D01*
X15250000Y3749013D01*
X15250000Y5251013D01*
X16248000Y5251013D01*
X16248000Y3749013D01*
X17750000Y3749013D01*
X17750000Y5251013D01*
X18748000Y5251013D01*
X18748000Y3749013D01*
X20250000Y3749013D01*
X20250000Y5251013D01*
X21248000Y5251013D01*
X21248000Y3749013D01*
X22750000Y3749013D01*
X22750000Y5251013D01*
X23748000Y5251013D01*
X23748000Y3749013D01*
X25250000Y3749013D01*
X25250000Y5251013D01*
X26248000Y5251013D01*
X26248000Y4641539D01*
X26274263Y4661199D01*
X26281535Y4666248D01*
X26326617Y4695220D01*
X26334234Y4699739D01*
X26396822Y4733911D01*
X26404733Y4737871D01*
X26453448Y4760118D01*
X26461624Y4763504D01*
X26661264Y4837968D01*
X26668608Y4840449D01*
X26713487Y4854061D01*
X26720968Y4856077D01*
X26781683Y4870421D01*
X26789271Y4871965D01*
X26835444Y4879869D01*
X26843110Y4880936D01*
X26947974Y4892211D01*
X26951285Y4892523D01*
X26971333Y4894136D01*
X26974648Y4894358D01*
X27001335Y4895787D01*
X27004651Y4895920D01*
X27024699Y4896456D01*
X27028013Y4896500D01*
X27750000Y4896500D01*
X27750000Y5251013D01*
X28748000Y5251013D01*
X28748000Y4896500D01*
X28851987Y4896500D01*
X28855301Y4896456D01*
X28875349Y4895920D01*
X28878665Y4895787D01*
X28905352Y4894358D01*
X28908667Y4894136D01*
X28928715Y4892523D01*
X28932026Y4892211D01*
X29036890Y4880936D01*
X29044556Y4879869D01*
X29090729Y4871965D01*
X29098317Y4870421D01*
X29159032Y4856077D01*
X29166513Y4854061D01*
X29211392Y4840449D01*
X29218736Y4837968D01*
X29418376Y4763504D01*
X29426552Y4760118D01*
X29475267Y4737871D01*
X29483178Y4733911D01*
X29536841Y4704612D01*
X29550460Y4710585D01*
X29555194Y4712546D01*
X29584061Y4723809D01*
X29588870Y4725571D01*
X29840830Y4812069D01*
X29845710Y4813632D01*
X29875435Y4822482D01*
X29880381Y4823844D01*
X29920384Y4833973D01*
X29925374Y4835128D01*
X29955716Y4841490D01*
X29960754Y4842438D01*
X30223519Y4886285D01*
X30228591Y4887024D01*
X30250000Y4889693D01*
X30250000Y5251013D01*
X31248000Y5251013D01*
X31248000Y4767842D01*
X31371130Y4725571D01*
X31375939Y4723809D01*
X31404806Y4712546D01*
X31409540Y4710585D01*
X31447329Y4694011D01*
X31451981Y4691855D01*
X31479855Y4678229D01*
X31484414Y4675882D01*
X31718718Y4549083D01*
X31723174Y4546551D01*
X31749816Y4530676D01*
X31750000Y4530562D01*
X31750184Y4530676D01*
X31776826Y4546551D01*
X31781282Y4549083D01*
X32015586Y4675882D01*
X32020145Y4678229D01*
X32048019Y4691855D01*
X32052671Y4694011D01*
X32090460Y4710585D01*
X32095194Y4712546D01*
X32124061Y4723809D01*
X32128870Y4725571D01*
X32380830Y4812069D01*
X32385710Y4813632D01*
X32415435Y4822482D01*
X32420381Y4823844D01*
X32460384Y4833973D01*
X32465374Y4835128D01*
X32495716Y4841490D01*
X32500754Y4842438D01*
X32750000Y4884030D01*
X32750000Y5251013D01*
X31248000Y5251013D01*
X30250000Y5251013D01*
X28748000Y5251013D01*
X27750000Y5251013D01*
X26248000Y5251013D01*
X25250000Y5251013D01*
X23748000Y5251013D01*
X22750000Y5251013D01*
X21248000Y5251013D01*
X20250000Y5251013D01*
X18748000Y5251013D01*
X17750000Y5251013D01*
X16248000Y5251013D01*
X15250000Y5251013D01*
X13748000Y5251013D01*
X12750000Y5251013D01*
X11248000Y5251013D01*
X10250000Y5251013D01*
X8748000Y5251013D01*
X7750000Y5251013D01*
X6248000Y5251013D01*
X5250000Y5251013D01*
X3748000Y5251013D01*
X2750000Y5251013D01*
X2124000Y5251013D01*
X1000000Y5251013D01*
X1000000Y7751013D01*
X2124000Y7751013D01*
X2124000Y6249013D01*
X2750000Y6249013D01*
X2750000Y7751013D01*
X3748000Y7751013D01*
X3748000Y6249013D01*
X5250000Y6249013D01*
X5250000Y7751013D01*
X6248000Y7751013D01*
X6248000Y6249013D01*
X7750000Y6249013D01*
X7750000Y7751013D01*
X8748000Y7751013D01*
X8748000Y6249013D01*
X10250000Y6249013D01*
X10250000Y7751013D01*
X11248000Y7751013D01*
X11248000Y6249013D01*
X12750000Y6249013D01*
X12750000Y7751013D01*
X13748000Y7751013D01*
X13748000Y6249013D01*
X15250000Y6249013D01*
X15250000Y7751013D01*
X16248000Y7751013D01*
X16248000Y6249013D01*
X17750000Y6249013D01*
X17750000Y7751013D01*
X18748000Y7751013D01*
X18748000Y6249013D01*
X20250000Y6249013D01*
X20250000Y7444711D01*
X21248000Y7444711D01*
X21248000Y6249013D01*
X22750000Y6249013D01*
X22750000Y6868500D01*
X23748000Y6868500D01*
X23748000Y6249013D01*
X25250000Y6249013D01*
X25250000Y6868500D01*
X26248000Y6868500D01*
X26248000Y6249013D01*
X27750000Y6249013D01*
X27750000Y6868500D01*
X28748000Y6868500D01*
X28748000Y6249013D01*
X30250000Y6249013D01*
X30250000Y6868500D01*
X28748000Y6868500D01*
X27750000Y6868500D01*
X26248000Y6868500D01*
X25250000Y6868500D01*
X23748000Y6868500D01*
X22750000Y6868500D01*
X22413104Y6868500D01*
X22407022Y6868649D01*
X22370247Y6870455D01*
X22364176Y6870903D01*
X22315406Y6875706D01*
X22309363Y6876451D01*
X22272936Y6881855D01*
X22266941Y6882896D01*
X22096479Y6916803D01*
X22090542Y6918136D01*
X22054814Y6927085D01*
X22048944Y6928709D01*
X22002048Y6942936D01*
X21996269Y6944845D01*
X21961607Y6957248D01*
X21955931Y6959438D01*
X21795373Y7025943D01*
X21789810Y7028409D01*
X21756530Y7044149D01*
X21751095Y7046885D01*
X21707874Y7069986D01*
X21702579Y7072985D01*
X21670986Y7091920D01*
X21665841Y7095178D01*
X21521334Y7191736D01*
X21516360Y7195239D01*
X21486787Y7217171D01*
X21481987Y7220917D01*
X21444105Y7252006D01*
X21439498Y7255980D01*
X21412211Y7280711D01*
X21407802Y7284909D01*
X21248000Y7444711D01*
X20250000Y7444711D01*
X20250000Y7751013D01*
X18748000Y7751013D01*
X17750000Y7751013D01*
X16248000Y7751013D01*
X15250000Y7751013D01*
X13748000Y7751013D01*
X12750000Y7751013D01*
X11248000Y7751013D01*
X10250000Y7751013D01*
X8748000Y7751013D01*
X7750000Y7751013D01*
X6248000Y7751013D01*
X5250000Y7751013D01*
X3748000Y7751013D01*
X2750000Y7751013D01*
X2124000Y7751013D01*
X1000000Y7751013D01*
X1000000Y10251013D01*
X2124000Y10251013D01*
X2124000Y8749013D01*
X2750000Y8749013D01*
X2750000Y10251013D01*
X3748000Y10251013D01*
X3748000Y8749013D01*
X5250000Y8749013D01*
X5250000Y10251013D01*
X6248000Y10251013D01*
X6248000Y8749013D01*
X7750000Y8749013D01*
X7750000Y10251013D01*
X8748000Y10251013D01*
X8748000Y8749013D01*
X10250000Y8749013D01*
X10250000Y10251013D01*
X11248000Y10251013D01*
X11248000Y8749013D01*
X12750000Y8749013D01*
X12750000Y10251013D01*
X13748000Y10251013D01*
X13748000Y8749013D01*
X15250000Y8749013D01*
X15250000Y10251013D01*
X16248000Y10251013D01*
X16248000Y8749013D01*
X17750000Y8749013D01*
X17750000Y9944711D01*
X18748000Y9944711D01*
X18748000Y8749013D01*
X19943698Y8749013D01*
X18748000Y9944711D01*
X17750000Y9944711D01*
X17750000Y10251013D01*
X16248000Y10251013D01*
X15250000Y10251013D01*
X13748000Y10251013D01*
X12750000Y10251013D01*
X11248000Y10251013D01*
X10250000Y10251013D01*
X8748000Y10251013D01*
X7750000Y10251013D01*
X6248000Y10251013D01*
X5250000Y10251013D01*
X3748000Y10251013D01*
X2750000Y10251013D01*
X2124000Y10251013D01*
X1000000Y10251013D01*
X1000000Y12751013D01*
X2124000Y12751013D01*
X2124000Y11249013D01*
X2750000Y11249013D01*
X2750000Y12751013D01*
X3748000Y12751013D01*
X3748000Y11249013D01*
X5250000Y11249013D01*
X5250000Y12751013D01*
X6248000Y12751013D01*
X6248000Y11249013D01*
X7750000Y11249013D01*
X7750000Y12751013D01*
X8748000Y12751013D01*
X8748000Y11249013D01*
X10250000Y11249013D01*
X10250000Y12751013D01*
X11248000Y12751013D01*
X11248000Y11249013D01*
X12750000Y11249013D01*
X12750000Y12751013D01*
X13748000Y12751013D01*
X13748000Y11249013D01*
X15250000Y11249013D01*
X15250000Y12448987D01*
X16248000Y12448987D01*
X16248000Y11249013D01*
X17443698Y11249013D01*
X16284909Y12407802D01*
X16280711Y12412211D01*
X16255980Y12439498D01*
X16252006Y12444105D01*
X16248000Y12448987D01*
X15250000Y12448987D01*
X15250000Y12751013D01*
X13748000Y12751013D01*
X12750000Y12751013D01*
X11248000Y12751013D01*
X10250000Y12751013D01*
X8748000Y12751013D01*
X7750000Y12751013D01*
X6248000Y12751013D01*
X5250000Y12751013D01*
X3748000Y12751013D01*
X2750000Y12751013D01*
X2124000Y12751013D01*
X1000000Y12751013D01*
X1000000Y15251013D01*
X2124000Y15251013D01*
X2124000Y13749013D01*
X2750000Y13749013D01*
X2750000Y15251013D01*
X3748000Y15251013D01*
X3748000Y13749013D01*
X5250000Y13749013D01*
X5250000Y15251013D01*
X6248000Y15251013D01*
X6248000Y13749013D01*
X7750000Y13749013D01*
X7750000Y15251013D01*
X8748000Y15251013D01*
X8748000Y13749013D01*
X10250000Y13749013D01*
X10250000Y15251013D01*
X11248000Y15251013D01*
X11248000Y13749013D01*
X12750000Y13749013D01*
X12750000Y15251013D01*
X13748000Y15251013D01*
X13748000Y13749013D01*
X15250000Y13749013D01*
X15250000Y15251013D01*
X13748000Y15251013D01*
X12750000Y15251013D01*
X11248000Y15251013D01*
X10250000Y15251013D01*
X8748000Y15251013D01*
X7750000Y15251013D01*
X6248000Y15251013D01*
X5250000Y15251013D01*
X3748000Y15251013D01*
X2750000Y15251013D01*
X2124000Y15251013D01*
X1000000Y15251013D01*
X1000000Y17751013D01*
X2124000Y17751013D01*
X2124000Y16249013D01*
X2750000Y16249013D01*
X2750000Y17751013D01*
X3748000Y17751013D01*
X3748000Y16249013D01*
X5250000Y16249013D01*
X5250000Y17751013D01*
X6248000Y17751013D01*
X6248000Y16249013D01*
X7750000Y16249013D01*
X7750000Y17751013D01*
X8748000Y17751013D01*
X8748000Y16249013D01*
X10250000Y16249013D01*
X10250000Y17751013D01*
X11248000Y17751013D01*
X11248000Y16249013D01*
X12750000Y16249013D01*
X12750000Y17751013D01*
X13748000Y17751013D01*
X13748000Y16249013D01*
X15250000Y16249013D01*
X15250000Y17751013D01*
X13748000Y17751013D01*
X12750000Y17751013D01*
X11248000Y17751013D01*
X10250000Y17751013D01*
X8748000Y17751013D01*
X7750000Y17751013D01*
X6248000Y17751013D01*
X5250000Y17751013D01*
X3748000Y17751013D01*
X2750000Y17751013D01*
X2124000Y17751013D01*
X1000000Y17751013D01*
X1000000Y20251013D01*
X2124000Y20251013D01*
X2124000Y18749013D01*
X2750000Y18749013D01*
X2750000Y20251013D01*
X3748000Y20251013D01*
X3748000Y18749013D01*
X5250000Y18749013D01*
X5250000Y20251013D01*
X6248000Y20251013D01*
X6248000Y18749013D01*
X7750000Y18749013D01*
X7750000Y20251013D01*
X8748000Y20251013D01*
X8748000Y18749013D01*
X10250000Y18749013D01*
X10250000Y20251013D01*
X11248000Y20251013D01*
X11248000Y18749013D01*
X12750000Y18749013D01*
X12750000Y20251013D01*
X13748000Y20251013D01*
X13748000Y18749013D01*
X15250000Y18749013D01*
X15250000Y19189502D01*
X15228547Y19434716D01*
X15228193Y19440113D01*
X15226765Y19472811D01*
X15226647Y19478221D01*
X15226647Y19499998D01*
X16224647Y19499998D01*
X16244021Y19278543D01*
X16244022Y19278535D01*
X16301558Y19063809D01*
X16301559Y19063807D01*
X16301560Y19063804D01*
X16314976Y19035034D01*
X16395511Y18862324D01*
X16411001Y18840203D01*
X16523023Y18680219D01*
X16680219Y18523023D01*
X16813626Y18429610D01*
X16857248Y18375036D01*
X16866500Y18328038D01*
X16866500Y13437602D01*
X16890843Y13315223D01*
X16890845Y13315215D01*
X16938598Y13199928D01*
X16938603Y13199919D01*
X17007928Y13096168D01*
X17007931Y13096164D01*
X22096163Y8007932D01*
X22096167Y8007929D01*
X22199918Y7938604D01*
X22199924Y7938601D01*
X22199925Y7938600D01*
X22315215Y7890845D01*
X22437601Y7866501D01*
X22437605Y7866500D01*
X22437606Y7866500D01*
X22562394Y7866500D01*
X31826234Y7866500D01*
X31893273Y7846815D01*
X31913915Y7830181D01*
X35633915Y4110181D01*
X35667400Y4048858D01*
X35662416Y3979166D01*
X35620544Y3923233D01*
X35555080Y3898816D01*
X35546234Y3898500D01*
X35447431Y3898500D01*
X35225362Y3861444D01*
X35012430Y3788344D01*
X35012419Y3788339D01*
X34814427Y3681192D01*
X34814422Y3681188D01*
X34636761Y3542908D01*
X34636756Y3542903D01*
X34484284Y3377277D01*
X34484276Y3377266D01*
X34393808Y3238794D01*
X34340662Y3193438D01*
X34271431Y3184014D01*
X34208095Y3213516D01*
X34186192Y3238794D01*
X34095723Y3377266D01*
X34095715Y3377277D01*
X33943243Y3542903D01*
X33943238Y3542908D01*
X33765577Y3681188D01*
X33765572Y3681192D01*
X33567580Y3788339D01*
X33567577Y3788341D01*
X33567574Y3788342D01*
X33567571Y3788343D01*
X33567569Y3788344D01*
X33354637Y3861444D01*
X33132569Y3898500D01*
X32907431Y3898500D01*
X32685362Y3861444D01*
X32472430Y3788344D01*
X32472419Y3788339D01*
X32274427Y3681192D01*
X32274422Y3681188D01*
X32096761Y3542908D01*
X32096756Y3542903D01*
X31944284Y3377277D01*
X31944276Y3377266D01*
X31853808Y3238794D01*
X31800662Y3193438D01*
X31731431Y3184014D01*
X31668095Y3213516D01*
X31646192Y3238794D01*
X31555723Y3377266D01*
X31555715Y3377277D01*
X31403243Y3542903D01*
X31403238Y3542908D01*
X31225577Y3681188D01*
X31225572Y3681192D01*
X31027580Y3788339D01*
X31027577Y3788341D01*
X31027574Y3788342D01*
X31027571Y3788343D01*
X31027569Y3788344D01*
X30814637Y3861444D01*
X30592569Y3898500D01*
X30367431Y3898500D01*
X30145362Y3861444D01*
X29932430Y3788344D01*
X29932419Y3788339D01*
X29734427Y3681192D01*
X29734422Y3681188D01*
X29556761Y3542908D01*
X29493548Y3474240D01*
X29433661Y3438250D01*
X29363823Y3440351D01*
X29306207Y3479876D01*
X29286138Y3514890D01*
X29240889Y3636204D01*
X29207214Y3681188D01*
X29153261Y3753261D01*
X29036204Y3840889D01*
X28899203Y3891989D01*
X28838654Y3898500D01*
X28838638Y3898500D01*
X27041362Y3898500D01*
X27041345Y3898500D01*
X26980797Y3891989D01*
X26980795Y3891989D01*
X26843795Y3840889D01*
X26726739Y3753261D01*
X26639111Y3636205D01*
X26588011Y3499205D01*
X26588011Y3499203D01*
X26581500Y3438655D01*
X26581500Y1641346D01*
X26588011Y1580798D01*
X26588011Y1580796D01*
X26639111Y1443796D01*
X26726739Y1326739D01*
X26843796Y1239111D01*
X26980799Y1188011D01*
X27008050Y1185082D01*
X27041345Y1181501D01*
X27041362Y1181500D01*
X28838638Y1181500D01*
X28838654Y1181501D01*
X28865692Y1184409D01*
X28899201Y1188011D01*
X29036204Y1239111D01*
X29153261Y1326739D01*
X29240889Y1443796D01*
X29286138Y1565113D01*
X29328009Y1621044D01*
X29393474Y1645461D01*
X29461746Y1630609D01*
X29493545Y1605764D01*
X29556760Y1537094D01*
X29734424Y1398811D01*
X29734425Y1398811D01*
X29734427Y1398809D01*
X29861135Y1330239D01*
X29932426Y1291658D01*
X30145365Y1218556D01*
X30367431Y1181500D01*
X30592569Y1181500D01*
X30814635Y1218556D01*
X31027574Y1291658D01*
X31225576Y1398811D01*
X31403240Y1537094D01*
X31524594Y1668918D01*
X31555715Y1702724D01*
X31555715Y1702725D01*
X31555722Y1702732D01*
X31646193Y1841210D01*
X31699338Y1886563D01*
X31768569Y1895987D01*
X31831905Y1866485D01*
X31853804Y1841213D01*
X31944278Y1702732D01*
X31944283Y1702727D01*
X31944284Y1702724D01*
X32070968Y1565111D01*
X32096760Y1537094D01*
X32274424Y1398811D01*
X32274425Y1398811D01*
X32274427Y1398809D01*
X32401135Y1330239D01*
X32472426Y1291658D01*
X32685365Y1218556D01*
X32907431Y1181500D01*
X33132569Y1181500D01*
X33354635Y1218556D01*
X33567574Y1291658D01*
X33765576Y1398811D01*
X33943240Y1537094D01*
X34064594Y1668918D01*
X34095715Y1702724D01*
X34095715Y1702725D01*
X34095722Y1702732D01*
X34186193Y1841210D01*
X34239338Y1886563D01*
X34308569Y1895987D01*
X34371905Y1866485D01*
X34393804Y1841213D01*
X34484278Y1702732D01*
X34484283Y1702727D01*
X34484284Y1702724D01*
X34610968Y1565111D01*
X34636760Y1537094D01*
X34814424Y1398811D01*
X34814425Y1398811D01*
X34814427Y1398809D01*
X34941135Y1330239D01*
X35012426Y1291658D01*
X35225365Y1218556D01*
X35447431Y1181500D01*
X35672569Y1181500D01*
X35894635Y1218556D01*
X36107574Y1291658D01*
X36305576Y1398811D01*
X36483240Y1537094D01*
X36604594Y1668918D01*
X36635715Y1702724D01*
X36635715Y1702725D01*
X36635722Y1702732D01*
X36726193Y1841210D01*
X36779338Y1886563D01*
X36848569Y1895987D01*
X36911905Y1866485D01*
X36933804Y1841213D01*
X37024278Y1702732D01*
X37024283Y1702727D01*
X37024284Y1702724D01*
X37150968Y1565111D01*
X37176760Y1537094D01*
X37354424Y1398811D01*
X37354425Y1398811D01*
X37354427Y1398809D01*
X37481135Y1330239D01*
X37552426Y1291658D01*
X37765365Y1218556D01*
X37987431Y1181500D01*
X38212569Y1181500D01*
X38434635Y1218556D01*
X38647574Y1291658D01*
X38845576Y1398811D01*
X39023240Y1537094D01*
X39144594Y1668918D01*
X39175715Y1702724D01*
X39175715Y1702725D01*
X39175722Y1702732D01*
X39269749Y1846653D01*
X39322894Y1892006D01*
X39392125Y1901430D01*
X39455461Y1871928D01*
X39475130Y1849952D01*
X39601890Y1668922D01*
X39768917Y1501895D01*
X39962421Y1366400D01*
X40176507Y1266571D01*
X40176516Y1266567D01*
X40390000Y1209366D01*
X40390000Y2106988D01*
X40447007Y2074075D01*
X40574174Y2040000D01*
X40705826Y2040000D01*
X40832993Y2074075D01*
X40890000Y2106988D01*
X40890000Y1209367D01*
X41103483Y1266567D01*
X41103492Y1266571D01*
X41317578Y1366400D01*
X41511082Y1501895D01*
X41678105Y1668918D01*
X41808425Y1855032D01*
X41863002Y1898656D01*
X41932501Y1905849D01*
X41994855Y1874327D01*
X42011575Y1855032D01*
X42141894Y1668918D01*
X42308917Y1501895D01*
X42502421Y1366400D01*
X42716507Y1266571D01*
X42716516Y1266567D01*
X42930000Y1209366D01*
X42930000Y2106988D01*
X42987007Y2074075D01*
X43114174Y2040000D01*
X43245826Y2040000D01*
X43372993Y2074075D01*
X43430000Y2106988D01*
X43430000Y1209367D01*
X43643483Y1266567D01*
X43643492Y1266571D01*
X43857578Y1366400D01*
X44051082Y1501895D01*
X44218105Y1668918D01*
X44344868Y1849952D01*
X44399445Y1893577D01*
X44468944Y1900769D01*
X44531298Y1869247D01*
X44550251Y1846650D01*
X44644276Y1702735D01*
X44644284Y1702724D01*
X44770968Y1565111D01*
X44796760Y1537094D01*
X44974424Y1398811D01*
X44974425Y1398811D01*
X44974427Y1398809D01*
X45101135Y1330239D01*
X45172426Y1291658D01*
X45385365Y1218556D01*
X45607431Y1181500D01*
X45832569Y1181500D01*
X46054635Y1218556D01*
X46267574Y1291658D01*
X46465576Y1398811D01*
X46643240Y1537094D01*
X46764594Y1668918D01*
X46795715Y1702724D01*
X46795717Y1702727D01*
X46795722Y1702732D01*
X46918860Y1891209D01*
X47009296Y2097384D01*
X47064564Y2315632D01*
X47067164Y2347007D01*
X47083156Y2539995D01*
X47083156Y2540006D01*
X47064565Y2764360D01*
X47064563Y2764372D01*
X47009296Y2982615D01*
X46999071Y3005925D01*
X46918860Y3188791D01*
X46902706Y3213516D01*
X46795723Y3377266D01*
X46795715Y3377277D01*
X46643243Y3542903D01*
X46643238Y3542908D01*
X46465577Y3681188D01*
X46465572Y3681192D01*
X46267580Y3788339D01*
X46267577Y3788341D01*
X46267574Y3788342D01*
X46267571Y3788343D01*
X46267569Y3788344D01*
X46054637Y3861444D01*
X45832569Y3898500D01*
X45607431Y3898500D01*
X45385362Y3861444D01*
X45172430Y3788344D01*
X45172419Y3788339D01*
X44974427Y3681192D01*
X44974422Y3681188D01*
X44796761Y3542908D01*
X44796756Y3542903D01*
X44644284Y3377277D01*
X44644276Y3377266D01*
X44550251Y3233350D01*
X44497105Y3187993D01*
X44427873Y3178570D01*
X44364538Y3208072D01*
X44344868Y3230049D01*
X44218113Y3411074D01*
X44218108Y3411080D01*
X44051082Y3578106D01*
X43857578Y3713601D01*
X43643492Y3813430D01*
X43643486Y3813433D01*
X43430000Y3870636D01*
X43430000Y2973012D01*
X43372993Y3005925D01*
X43245826Y3040000D01*
X43114174Y3040000D01*
X42987007Y3005925D01*
X42930000Y2973012D01*
X42930000Y3870636D01*
X42929999Y3870636D01*
X42716513Y3813433D01*
X42716507Y3813430D01*
X42502422Y3713601D01*
X42502420Y3713600D01*
X42308926Y3578114D01*
X42308920Y3578109D01*
X42141891Y3411080D01*
X42141890Y3411078D01*
X42011575Y3224969D01*
X41956998Y3181345D01*
X41887499Y3174152D01*
X41825145Y3205674D01*
X41808425Y3224969D01*
X41678109Y3411078D01*
X41678108Y3411080D01*
X41511082Y3578106D01*
X41317578Y3713601D01*
X41103492Y3813430D01*
X41103486Y3813433D01*
X40890000Y3870636D01*
X40890000Y2973012D01*
X40832993Y3005925D01*
X40705826Y3040000D01*
X40574174Y3040000D01*
X40447007Y3005925D01*
X40390000Y2973012D01*
X40390000Y3870636D01*
X40389999Y3870636D01*
X40176513Y3813433D01*
X40176507Y3813430D01*
X39962422Y3713601D01*
X39962420Y3713600D01*
X39768926Y3578114D01*
X39768920Y3578109D01*
X39601891Y3411080D01*
X39601890Y3411078D01*
X39475131Y3230048D01*
X39420554Y3186423D01*
X39351055Y3179231D01*
X39288701Y3210753D01*
X39269752Y3233344D01*
X39175722Y3377268D01*
X39175715Y3377275D01*
X39175715Y3377277D01*
X39023243Y3542903D01*
X39023238Y3542908D01*
X38845577Y3681188D01*
X38845572Y3681192D01*
X38647580Y3788339D01*
X38647577Y3788341D01*
X38647574Y3788342D01*
X38647571Y3788343D01*
X38647569Y3788344D01*
X38434637Y3861444D01*
X38212569Y3898500D01*
X37987431Y3898500D01*
X37765358Y3861444D01*
X37761115Y3860369D01*
X37691295Y3863002D01*
X37643007Y3892897D01*
X36284891Y5251013D01*
X38748000Y5251013D01*
X38748000Y4809038D01*
X38991130Y4725571D01*
X38995939Y4723809D01*
X39024806Y4712546D01*
X39029540Y4710585D01*
X39067329Y4694011D01*
X39071981Y4691855D01*
X39099855Y4678229D01*
X39104414Y4675882D01*
X39338718Y4549083D01*
X39343174Y4546551D01*
X39369816Y4530676D01*
X39374165Y4527961D01*
X39380023Y4524134D01*
X39407832Y4543605D01*
X39412328Y4546609D01*
X39439927Y4564192D01*
X39444550Y4566998D01*
X39482272Y4588778D01*
X39487020Y4591382D01*
X39516057Y4606497D01*
X39520907Y4608889D01*
X39774465Y4727126D01*
X39779416Y4729304D01*
X39809636Y4741822D01*
X39814674Y4743782D01*
X39855605Y4758682D01*
X39860729Y4760422D01*
X39891962Y4770271D01*
X39897160Y4771786D01*
X40250000Y4866330D01*
X40250000Y5251013D01*
X41248000Y5251013D01*
X41248000Y4807917D01*
X41382840Y4771786D01*
X41388038Y4770271D01*
X41419271Y4760422D01*
X41424395Y4758682D01*
X41465326Y4743782D01*
X41470364Y4741822D01*
X41500584Y4729304D01*
X41505535Y4727126D01*
X41759086Y4608893D01*
X41763937Y4606501D01*
X41792958Y4591394D01*
X41797700Y4588792D01*
X41835424Y4567013D01*
X41840048Y4564208D01*
X41867664Y4546616D01*
X41872166Y4543607D01*
X41909999Y4517115D01*
X41947831Y4543604D01*
X41952328Y4546609D01*
X41979927Y4564192D01*
X41984550Y4566998D01*
X42022272Y4588778D01*
X42027020Y4591382D01*
X42056057Y4606497D01*
X42060907Y4608889D01*
X42314465Y4727126D01*
X42319416Y4729304D01*
X42349636Y4741822D01*
X42354674Y4743782D01*
X42395605Y4758682D01*
X42400729Y4760422D01*
X42431962Y4770271D01*
X42437160Y4771786D01*
X42750000Y4855612D01*
X42750000Y4868500D01*
X46248000Y4868500D01*
X46248000Y4840711D01*
X46274626Y4835128D01*
X46279616Y4833973D01*
X46319619Y4823844D01*
X46324565Y4822482D01*
X46354290Y4813632D01*
X46359170Y4812069D01*
X46611130Y4725571D01*
X46615939Y4723809D01*
X46644806Y4712546D01*
X46649540Y4710585D01*
X46687329Y4694011D01*
X46691981Y4691855D01*
X46719855Y4678229D01*
X46724414Y4675882D01*
X46958718Y4549083D01*
X46963174Y4546551D01*
X46989816Y4530676D01*
X46994165Y4527961D01*
X47028712Y4505390D01*
X47032945Y4502498D01*
X47058177Y4484482D01*
X47062285Y4481419D01*
X47272514Y4317789D01*
X47276495Y4314556D01*
X47300162Y4294510D01*
X47304002Y4291119D01*
X47334359Y4263173D01*
X47338058Y4259623D01*
X47359973Y4237707D01*
X47363519Y4234011D01*
X47543951Y4038012D01*
X47547346Y4034169D01*
X47567398Y4010493D01*
X47570631Y4006511D01*
X47595975Y3973946D01*
X47599038Y3969838D01*
X47617044Y3944617D01*
X47619932Y3940389D01*
X47744965Y3749013D01*
X47750000Y3749013D01*
X47750000Y4868500D01*
X46248000Y4868500D01*
X42750000Y4868500D01*
X42750000Y5251013D01*
X41248000Y5251013D01*
X40250000Y5251013D01*
X38748000Y5251013D01*
X36284891Y5251013D01*
X33784892Y7751013D01*
X36248000Y7751013D01*
X36248000Y6699289D01*
X36698275Y6249013D01*
X37750000Y6249013D01*
X37750000Y7751013D01*
X38748000Y7751013D01*
X38748000Y6249013D01*
X40250000Y6249013D01*
X40250000Y7444712D01*
X41248000Y7444712D01*
X41248000Y6249013D01*
X42443698Y6249013D01*
X41248000Y7444712D01*
X40250000Y7444712D01*
X40250000Y7751013D01*
X38748000Y7751013D01*
X37750000Y7751013D01*
X36248000Y7751013D01*
X33784892Y7751013D01*
X32543836Y8992069D01*
X32543832Y8992072D01*
X32440081Y9061397D01*
X32440072Y9061402D01*
X32324785Y9109155D01*
X32324777Y9109157D01*
X32202398Y9133500D01*
X32202394Y9133500D01*
X22813766Y9133500D01*
X22746727Y9153185D01*
X22726085Y9169819D01*
X21644891Y10251013D01*
X33748000Y10251013D01*
X33748000Y9199289D01*
X34198276Y8749013D01*
X35250000Y8749013D01*
X35250000Y10251013D01*
X36248000Y10251013D01*
X36248000Y8749013D01*
X37750000Y8749013D01*
X37750000Y9944712D01*
X38748000Y9944712D01*
X38748000Y8749013D01*
X39943698Y8749013D01*
X38748000Y9944712D01*
X37750000Y9944712D01*
X37750000Y10251013D01*
X36248000Y10251013D01*
X35250000Y10251013D01*
X33748000Y10251013D01*
X21644891Y10251013D01*
X19144891Y12751013D01*
X21248000Y12751013D01*
X21248000Y12059288D01*
X22058275Y11249013D01*
X22750000Y11249013D01*
X22750000Y12751013D01*
X23748000Y12751013D01*
X23748000Y11249013D01*
X25250000Y11249013D01*
X25250000Y12751013D01*
X26248000Y12751013D01*
X26248000Y11249013D01*
X27750000Y11249013D01*
X27750000Y12751013D01*
X28748000Y12751013D01*
X28748000Y11249013D01*
X30250000Y11249013D01*
X30250000Y12751013D01*
X31248000Y12751013D01*
X31248000Y11249013D01*
X32750000Y11249013D01*
X32750000Y12751013D01*
X33748000Y12751013D01*
X33748000Y11249013D01*
X35250000Y11249013D01*
X35250000Y12444712D01*
X36248000Y12444712D01*
X36248000Y11249013D01*
X37443698Y11249013D01*
X36248000Y12444712D01*
X35250000Y12444712D01*
X35250000Y12751013D01*
X33748000Y12751013D01*
X32750000Y12751013D01*
X31248000Y12751013D01*
X30250000Y12751013D01*
X28748000Y12751013D01*
X27750000Y12751013D01*
X26248000Y12751013D01*
X25250000Y12751013D01*
X23748000Y12751013D01*
X22750000Y12751013D01*
X21248000Y12751013D01*
X19144891Y12751013D01*
X18169819Y13726085D01*
X18136334Y13787408D01*
X18133500Y13813766D01*
X18133500Y15251013D01*
X19131500Y15251013D01*
X19131500Y14175788D01*
X19558275Y13749013D01*
X20250000Y13749013D01*
X20250000Y15251013D01*
X21248000Y15251013D01*
X21248000Y13749013D01*
X22750000Y13749013D01*
X22750000Y15251013D01*
X23748000Y15251013D01*
X23748000Y13749013D01*
X25250000Y13749013D01*
X25250000Y15251013D01*
X26248000Y15251013D01*
X26248000Y13749013D01*
X27750000Y13749013D01*
X27750000Y15251013D01*
X28748000Y15251013D01*
X28748000Y13749013D01*
X30250000Y13749013D01*
X30250000Y15251013D01*
X31248000Y15251013D01*
X31248000Y13749013D01*
X32750000Y13749013D01*
X32750000Y14944712D01*
X33748000Y14944712D01*
X33748000Y13749013D01*
X34943699Y13749013D01*
X33748000Y14944712D01*
X32750000Y14944712D01*
X32750000Y15251013D01*
X31248000Y15251013D01*
X30250000Y15251013D01*
X28748000Y15251013D01*
X27750000Y15251013D01*
X26248000Y15251013D01*
X25250000Y15251013D01*
X23748000Y15251013D01*
X22750000Y15251013D01*
X21248000Y15251013D01*
X20250000Y15251013D01*
X19131500Y15251013D01*
X18133500Y15251013D01*
X18133500Y17751013D01*
X19131500Y17751013D01*
X19131500Y16249013D01*
X20250000Y16249013D01*
X20250000Y17751013D01*
X21248000Y17751013D01*
X21248000Y16249013D01*
X22750000Y16249013D01*
X23748000Y16249013D01*
X25250000Y16249013D01*
X25250000Y17605933D01*
X25192264Y17565505D01*
X25187762Y17562496D01*
X25160146Y17544904D01*
X25155522Y17542099D01*
X25117798Y17520320D01*
X25113054Y17517717D01*
X25084032Y17502610D01*
X25079183Y17500219D01*
X24838240Y17387865D01*
X24833289Y17385687D01*
X24803069Y17373169D01*
X24798031Y17371209D01*
X24757100Y17356309D01*
X24751975Y17354569D01*
X24720741Y17344720D01*
X24715544Y17343205D01*
X24458725Y17274390D01*
X24453468Y17273104D01*
X24421508Y17266019D01*
X24416201Y17264963D01*
X24373305Y17257400D01*
X24367959Y17256578D01*
X24335514Y17252307D01*
X24330137Y17251718D01*
X24065284Y17228547D01*
X24059887Y17228193D01*
X24027189Y17226765D01*
X24021779Y17226647D01*
X23978221Y17226647D01*
X23972811Y17226765D01*
X23940113Y17228193D01*
X23934716Y17228547D01*
X23748000Y17244883D01*
X23748000Y16249013D01*
X22750000Y16249013D01*
X22750000Y17605933D01*
X22589951Y17718001D01*
X22585591Y17721198D01*
X22559632Y17741116D01*
X22555412Y17744503D01*
X22547653Y17751013D01*
X26248000Y17751013D01*
X26248000Y16249013D01*
X27750000Y16249013D01*
X27750000Y17751013D01*
X28748000Y17751013D01*
X28748000Y16249013D01*
X30250000Y16249013D01*
X30250000Y17444712D01*
X31248000Y17444712D01*
X31248000Y16249013D01*
X32443699Y16249013D01*
X31248000Y17444712D01*
X30250000Y17444712D01*
X30250000Y17751013D01*
X28748000Y17751013D01*
X27750000Y17751013D01*
X26248000Y17751013D01*
X22547653Y17751013D01*
X21248000Y17751013D01*
X20250000Y17751013D01*
X19131500Y17751013D01*
X18133500Y17751013D01*
X18133500Y18328038D01*
X18153185Y18395077D01*
X18186371Y18429609D01*
X18319781Y18523023D01*
X18476977Y18680219D01*
X18604488Y18862323D01*
X18698440Y19063804D01*
X18755978Y19278537D01*
X18775353Y19500000D01*
X18773008Y19526800D01*
X18758947Y19687522D01*
X18755978Y19721463D01*
X18698440Y19936196D01*
X18604488Y20137676D01*
X18604486Y20137679D01*
X18604485Y20137681D01*
X18525129Y20251013D01*
X19645734Y20251013D01*
X19655284Y20220726D01*
X19656798Y20215531D01*
X19725609Y19958727D01*
X19726894Y19953473D01*
X19733980Y19921512D01*
X19735037Y19916202D01*
X19742600Y19873305D01*
X19743422Y19867959D01*
X19747693Y19835514D01*
X19748282Y19830137D01*
X19771453Y19565284D01*
X19771807Y19559887D01*
X19773235Y19527189D01*
X19773353Y19521779D01*
X19773353Y19478221D01*
X19773235Y19472811D01*
X19771807Y19440113D01*
X19771453Y19434716D01*
X19748282Y19169863D01*
X19747693Y19164486D01*
X19743422Y19132041D01*
X19742600Y19126695D01*
X19735037Y19083799D01*
X19733981Y19078492D01*
X19726896Y19046532D01*
X19725610Y19041275D01*
X19656795Y18784456D01*
X19655280Y18779259D01*
X19645743Y18749013D01*
X20250000Y18749013D01*
X20250000Y19944711D01*
X21248000Y19944711D01*
X21248000Y18749013D01*
X21854257Y18749013D01*
X21844720Y18779259D01*
X21843205Y18784456D01*
X21774390Y19041275D01*
X21773104Y19046532D01*
X21766019Y19078492D01*
X21764963Y19083799D01*
X21757400Y19126695D01*
X21756578Y19132041D01*
X21752307Y19164486D01*
X21751718Y19169863D01*
X21728547Y19434716D01*
X21728193Y19440113D01*
X21727078Y19465633D01*
X21248000Y19944711D01*
X20250000Y19944711D01*
X20250000Y20251013D01*
X19645734Y20251013D01*
X18525129Y20251013D01*
X18476978Y20319780D01*
X18404097Y20392661D01*
X18319781Y20476977D01*
X18137677Y20604488D01*
X18137678Y20604488D01*
X18137676Y20604489D01*
X18018459Y20660080D01*
X17936196Y20698440D01*
X17936193Y20698441D01*
X17936191Y20698442D01*
X17721465Y20755978D01*
X17721457Y20755979D01*
X17500002Y20775353D01*
X17499998Y20775353D01*
X17278542Y20755979D01*
X17278535Y20755978D01*
X17063800Y20698439D01*
X16862323Y20604488D01*
X16862319Y20604486D01*
X16680217Y20476977D01*
X16523023Y20319783D01*
X16395514Y20137681D01*
X16395512Y20137677D01*
X16301561Y19936200D01*
X16244022Y19721465D01*
X16244021Y19721458D01*
X16224647Y19500003D01*
X16224647Y19499998D01*
X15226647Y19499998D01*
X15226647Y19521779D01*
X15226765Y19527189D01*
X15228193Y19559887D01*
X15228547Y19565284D01*
X15250000Y19810500D01*
X15250000Y20251013D01*
X13748000Y20251013D01*
X12750000Y20251013D01*
X11248000Y20251013D01*
X10250000Y20251013D01*
X8748000Y20251013D01*
X7750000Y20251013D01*
X6248000Y20251013D01*
X5250000Y20251013D01*
X3748000Y20251013D01*
X2750000Y20251013D01*
X2124000Y20251013D01*
X1000000Y20251013D01*
X1000000Y22751013D01*
X2124000Y22751013D01*
X2124000Y21249013D01*
X2750000Y21249013D01*
X2750000Y22751013D01*
X3748000Y22751013D01*
X3748000Y21249013D01*
X5250000Y21249013D01*
X5250000Y22751013D01*
X6248000Y22751013D01*
X6248000Y21249013D01*
X7750000Y21249013D01*
X7750000Y22751013D01*
X8748000Y22751013D01*
X8748000Y21249013D01*
X10250000Y21249013D01*
X10250000Y22751013D01*
X11248000Y22751013D01*
X11248000Y21249013D01*
X12750000Y21249013D01*
X12750000Y22751013D01*
X13748000Y22751013D01*
X13748000Y21249013D01*
X15250000Y21249013D01*
X15250000Y21395469D01*
X18748000Y21395469D01*
X18910049Y21281998D01*
X18914409Y21278802D01*
X18940368Y21258884D01*
X18944588Y21255497D01*
X18952316Y21249013D01*
X19943698Y21249013D01*
X19784909Y21407802D01*
X19780711Y21412211D01*
X19755980Y21439498D01*
X19752006Y21444105D01*
X19720917Y21481987D01*
X19717171Y21486787D01*
X19695239Y21516360D01*
X19691736Y21521334D01*
X19595178Y21665841D01*
X19591920Y21670986D01*
X19572985Y21702579D01*
X19569986Y21707874D01*
X19546885Y21751095D01*
X19544149Y21756530D01*
X19528409Y21789810D01*
X19525943Y21795373D01*
X19459438Y21955931D01*
X19457248Y21961607D01*
X19444845Y21996269D01*
X19442936Y22002048D01*
X19428709Y22048944D01*
X19427085Y22054814D01*
X19418136Y22090542D01*
X19416803Y22096479D01*
X19382896Y22266941D01*
X19381855Y22272936D01*
X19376451Y22309363D01*
X19375706Y22315406D01*
X19370903Y22364176D01*
X19370455Y22370247D01*
X19368649Y22407022D01*
X19368500Y22413104D01*
X19368500Y22713488D01*
X19281998Y22589951D01*
X19278802Y22585591D01*
X19258884Y22559632D01*
X19255497Y22555412D01*
X19227500Y22522045D01*
X19223932Y22517977D01*
X19201814Y22493839D01*
X19198072Y22489930D01*
X19010070Y22301928D01*
X19006161Y22298186D01*
X18982023Y22276068D01*
X18977955Y22272500D01*
X18944588Y22244503D01*
X18940368Y22241116D01*
X18914409Y22221198D01*
X18910049Y22218002D01*
X18748000Y22104533D01*
X18748000Y21395469D01*
X15250000Y21395469D01*
X15250000Y22751013D01*
X13748000Y22751013D01*
X12750000Y22751013D01*
X11248000Y22751013D01*
X10250000Y22751013D01*
X8748000Y22751013D01*
X7750000Y22751013D01*
X6248000Y22751013D01*
X5250000Y22751013D01*
X3748000Y22751013D01*
X2750000Y22751013D01*
X2124000Y22751013D01*
X1000000Y22751013D01*
X1000000Y25251013D01*
X2124000Y25251013D01*
X2124000Y23749013D01*
X2750000Y23749013D01*
X2750000Y25251013D01*
X3748000Y25251013D01*
X3748000Y23749013D01*
X5250000Y23749013D01*
X5250000Y25251013D01*
X6248000Y25251013D01*
X6248000Y23749013D01*
X7750000Y23749013D01*
X7750000Y25251013D01*
X8748000Y25251013D01*
X8748000Y23749013D01*
X10250000Y23749013D01*
X10250000Y25251013D01*
X11248000Y25251013D01*
X11248000Y23749013D01*
X12750000Y23749013D01*
X12750000Y25251013D01*
X13748000Y25251013D01*
X13748000Y23749013D01*
X15244794Y23749013D01*
X15228547Y23934716D01*
X15228193Y23940113D01*
X15226765Y23972811D01*
X15226647Y23978221D01*
X15226647Y23999998D01*
X16224647Y23999998D01*
X16244021Y23778543D01*
X16244022Y23778535D01*
X16301558Y23563809D01*
X16301559Y23563807D01*
X16301560Y23563804D01*
X16348536Y23463064D01*
X16395511Y23362324D01*
X16395512Y23362323D01*
X16523023Y23180219D01*
X16680219Y23023023D01*
X16862323Y22895512D01*
X17063804Y22801560D01*
X17278537Y22744022D01*
X17436724Y22730183D01*
X17499998Y22724647D01*
X17500000Y22724647D01*
X17500002Y22724647D01*
X17555365Y22729491D01*
X17721463Y22744022D01*
X17936196Y22801560D01*
X18137677Y22895512D01*
X18319781Y23023023D01*
X18476977Y23180219D01*
X18604488Y23362323D01*
X18698440Y23563804D01*
X18755978Y23778537D01*
X18775353Y24000000D01*
X18772974Y24027189D01*
X18755978Y24221458D01*
X18755978Y24221463D01*
X18698440Y24436196D01*
X18604488Y24637676D01*
X18604486Y24637679D01*
X18604485Y24637681D01*
X18476978Y24819780D01*
X18476975Y24819783D01*
X18319781Y24976977D01*
X18137677Y25104488D01*
X18137678Y25104488D01*
X18137676Y25104489D01*
X18036936Y25151464D01*
X17936196Y25198440D01*
X17936193Y25198441D01*
X17936191Y25198442D01*
X17721465Y25255978D01*
X17721457Y25255979D01*
X17500002Y25275353D01*
X17499998Y25275353D01*
X17278542Y25255979D01*
X17278535Y25255978D01*
X17063800Y25198439D01*
X16862323Y25104488D01*
X16862319Y25104486D01*
X16680217Y24976977D01*
X16523023Y24819783D01*
X16395514Y24637681D01*
X16395512Y24637677D01*
X16301561Y24436200D01*
X16244022Y24221465D01*
X16244021Y24221458D01*
X16224647Y24000003D01*
X16224647Y23999998D01*
X15226647Y23999998D01*
X15226647Y24021779D01*
X15226765Y24027189D01*
X15228193Y24059887D01*
X15228547Y24065284D01*
X15250000Y24310500D01*
X15250000Y25251013D01*
X13748000Y25251013D01*
X12750000Y25251013D01*
X11248000Y25251013D01*
X10250000Y25251013D01*
X8748000Y25251013D01*
X7750000Y25251013D01*
X6248000Y25251013D01*
X5250000Y25251013D01*
X3748000Y25251013D01*
X2750000Y25251013D01*
X2124000Y25251013D01*
X1000000Y25251013D01*
X1000000Y27751013D01*
X2124000Y27751013D01*
X2124000Y26249013D01*
X2750000Y26249013D01*
X2750000Y27751013D01*
X3748000Y27751013D01*
X3748000Y26249013D01*
X5250000Y26249013D01*
X5250000Y27751013D01*
X6248000Y27751013D01*
X6248000Y26249013D01*
X7750000Y26249013D01*
X7750000Y27751013D01*
X8748000Y27751013D01*
X8748000Y26249013D01*
X10250000Y26249013D01*
X10250000Y27751013D01*
X11248000Y27751013D01*
X11248000Y26249013D01*
X12750000Y26249013D01*
X12750000Y27751013D01*
X13748000Y27751013D01*
X13748000Y26249013D01*
X15250000Y26249013D01*
X15250000Y27751013D01*
X16248000Y27751013D01*
X16248000Y26249013D01*
X17178218Y26249013D01*
X17434716Y26271453D01*
X17440113Y26271807D01*
X17472811Y26273235D01*
X17478221Y26273353D01*
X17521779Y26273353D01*
X17527189Y26273235D01*
X17559887Y26271807D01*
X17565284Y26271453D01*
X17750000Y26255293D01*
X17750000Y27751013D01*
X18748000Y27751013D01*
X18748000Y26249013D01*
X19368500Y26249013D01*
X19368500Y27289618D01*
X19272707Y27385411D01*
X19268965Y27389320D01*
X19246847Y27413458D01*
X19243279Y27417526D01*
X19215282Y27450893D01*
X19211897Y27455111D01*
X19191978Y27481070D01*
X19188779Y27485432D01*
X19032469Y27708664D01*
X19029461Y27713166D01*
X19011869Y27740782D01*
X19009064Y27745406D01*
X19005827Y27751013D01*
X18748000Y27751013D01*
X17750000Y27751013D01*
X16248000Y27751013D01*
X15250000Y27751013D01*
X13748000Y27751013D01*
X12750000Y27751013D01*
X11248000Y27751013D01*
X10250000Y27751013D01*
X8748000Y27751013D01*
X7750000Y27751013D01*
X6248000Y27751013D01*
X5250000Y27751013D01*
X3748000Y27751013D01*
X2750000Y27751013D01*
X2124000Y27751013D01*
X1000000Y27751013D01*
X1000000Y30251013D01*
X2124000Y30251013D01*
X2124000Y28749013D01*
X2750000Y28749013D01*
X2750000Y30251013D01*
X3748000Y30251013D01*
X3748000Y28749013D01*
X5250000Y28749013D01*
X5250000Y30251013D01*
X6248000Y30251013D01*
X6248000Y28749013D01*
X7750000Y28749013D01*
X7750000Y30251013D01*
X8748000Y30251013D01*
X8748000Y28749013D01*
X10250000Y28749013D01*
X10250000Y30251013D01*
X11248000Y30251013D01*
X11248000Y28749013D01*
X12750000Y28749013D01*
X12750000Y30251013D01*
X13748000Y30251013D01*
X13748000Y28749013D01*
X15250000Y28749013D01*
X15250000Y30251013D01*
X16248000Y30251013D01*
X16248000Y28749013D01*
X17750000Y28749013D01*
X17750000Y28919999D01*
X19686502Y28919999D01*
X19706456Y28691919D01*
X19706457Y28691911D01*
X19765714Y28470762D01*
X19765718Y28470751D01*
X19862475Y28263255D01*
X19862477Y28263251D01*
X19993802Y28075700D01*
X20155700Y27913802D01*
X20313625Y27803221D01*
X20357249Y27748646D01*
X20366500Y27701648D01*
X20366500Y22437602D01*
X20390843Y22315223D01*
X20390845Y22315215D01*
X20438598Y22199928D01*
X20438603Y22199919D01*
X20507928Y22096168D01*
X20507931Y22096164D01*
X22722690Y19881405D01*
X22756175Y19820082D01*
X22754785Y19761634D01*
X22744023Y19721467D01*
X22744021Y19721457D01*
X22724647Y19500003D01*
X22724647Y19499998D01*
X22744021Y19278543D01*
X22744022Y19278535D01*
X22801558Y19063809D01*
X22801559Y19063807D01*
X22801560Y19063804D01*
X22814976Y19035034D01*
X22895511Y18862324D01*
X22911001Y18840203D01*
X23023023Y18680219D01*
X23180219Y18523023D01*
X23362323Y18395512D01*
X23563804Y18301560D01*
X23778537Y18244022D01*
X23936724Y18230183D01*
X23999998Y18224647D01*
X24000000Y18224647D01*
X24000002Y18224647D01*
X24055365Y18229491D01*
X24221463Y18244022D01*
X24436196Y18301560D01*
X24637677Y18395512D01*
X24819781Y18523023D01*
X24976977Y18680219D01*
X25049965Y18784456D01*
X25070389Y18813624D01*
X25124966Y18857249D01*
X25171963Y18866500D01*
X31186234Y18866500D01*
X31253273Y18846815D01*
X31273915Y18830181D01*
X44096163Y6007932D01*
X44096167Y6007929D01*
X44199918Y5938604D01*
X44199924Y5938601D01*
X44199925Y5938600D01*
X44315215Y5890845D01*
X44437601Y5866501D01*
X44437605Y5866500D01*
X44437606Y5866500D01*
X44562393Y5866500D01*
X56686234Y5866500D01*
X56753273Y5846815D01*
X56773915Y5830181D01*
X58493915Y4110181D01*
X58527400Y4048858D01*
X58522416Y3979166D01*
X58480544Y3923233D01*
X58415080Y3898816D01*
X58406234Y3898500D01*
X58307431Y3898500D01*
X58085362Y3861444D01*
X57872430Y3788344D01*
X57872419Y3788339D01*
X57674427Y3681192D01*
X57674422Y3681188D01*
X57496761Y3542908D01*
X57496756Y3542903D01*
X57344284Y3377277D01*
X57344276Y3377266D01*
X57253808Y3238794D01*
X57200662Y3193438D01*
X57131431Y3184014D01*
X57068095Y3213516D01*
X57046192Y3238794D01*
X56955723Y3377266D01*
X56955715Y3377277D01*
X56803243Y3542903D01*
X56803238Y3542908D01*
X56625577Y3681188D01*
X56625572Y3681192D01*
X56427580Y3788339D01*
X56427577Y3788341D01*
X56427574Y3788342D01*
X56427571Y3788343D01*
X56427569Y3788344D01*
X56214637Y3861444D01*
X55992569Y3898500D01*
X55767431Y3898500D01*
X55545362Y3861444D01*
X55332430Y3788344D01*
X55332419Y3788339D01*
X55134427Y3681192D01*
X55134422Y3681188D01*
X54956761Y3542908D01*
X54956756Y3542903D01*
X54804284Y3377277D01*
X54804276Y3377266D01*
X54713808Y3238794D01*
X54660662Y3193438D01*
X54591431Y3184014D01*
X54528095Y3213516D01*
X54506192Y3238794D01*
X54415723Y3377266D01*
X54415715Y3377277D01*
X54263243Y3542903D01*
X54263238Y3542908D01*
X54085577Y3681188D01*
X54085572Y3681192D01*
X53887580Y3788339D01*
X53887577Y3788341D01*
X53887574Y3788342D01*
X53887571Y3788343D01*
X53887569Y3788344D01*
X53674637Y3861444D01*
X53452569Y3898500D01*
X53227431Y3898500D01*
X53005362Y3861444D01*
X52792430Y3788344D01*
X52792419Y3788339D01*
X52594427Y3681192D01*
X52594422Y3681188D01*
X52416761Y3542908D01*
X52353548Y3474240D01*
X52293661Y3438250D01*
X52223823Y3440351D01*
X52166207Y3479876D01*
X52146138Y3514890D01*
X52100889Y3636204D01*
X52067214Y3681188D01*
X52013261Y3753261D01*
X51896204Y3840889D01*
X51759203Y3891989D01*
X51698654Y3898500D01*
X51698638Y3898500D01*
X49901362Y3898500D01*
X49901345Y3898500D01*
X49840797Y3891989D01*
X49840795Y3891989D01*
X49703795Y3840889D01*
X49586739Y3753261D01*
X49499111Y3636205D01*
X49448011Y3499205D01*
X49448011Y3499203D01*
X49441500Y3438655D01*
X49441500Y1641346D01*
X49448011Y1580798D01*
X49448011Y1580796D01*
X49499111Y1443796D01*
X49586739Y1326739D01*
X49703796Y1239111D01*
X49840799Y1188011D01*
X49868050Y1185082D01*
X49901345Y1181501D01*
X49901362Y1181500D01*
X51698638Y1181500D01*
X51698654Y1181501D01*
X51725692Y1184409D01*
X51759201Y1188011D01*
X51896204Y1239111D01*
X52013261Y1326739D01*
X52100889Y1443796D01*
X52146138Y1565113D01*
X52188009Y1621044D01*
X52253474Y1645461D01*
X52321746Y1630609D01*
X52353545Y1605764D01*
X52416760Y1537094D01*
X52594424Y1398811D01*
X52594425Y1398811D01*
X52594427Y1398809D01*
X52721135Y1330239D01*
X52792426Y1291658D01*
X53005365Y1218556D01*
X53227431Y1181500D01*
X53452569Y1181500D01*
X53674635Y1218556D01*
X53887574Y1291658D01*
X54085576Y1398811D01*
X54263240Y1537094D01*
X54384594Y1668918D01*
X54415715Y1702724D01*
X54415715Y1702725D01*
X54415722Y1702732D01*
X54506193Y1841210D01*
X54559338Y1886563D01*
X54628569Y1895987D01*
X54691905Y1866485D01*
X54713804Y1841213D01*
X54804278Y1702732D01*
X54804283Y1702727D01*
X54804284Y1702724D01*
X54930968Y1565111D01*
X54956760Y1537094D01*
X55134424Y1398811D01*
X55134425Y1398811D01*
X55134427Y1398809D01*
X55261135Y1330239D01*
X55332426Y1291658D01*
X55545365Y1218556D01*
X55767431Y1181500D01*
X55992569Y1181500D01*
X56214635Y1218556D01*
X56427574Y1291658D01*
X56625576Y1398811D01*
X56803240Y1537094D01*
X56924594Y1668918D01*
X56955715Y1702724D01*
X56955715Y1702725D01*
X56955722Y1702732D01*
X57046193Y1841210D01*
X57099338Y1886563D01*
X57168569Y1895987D01*
X57231905Y1866485D01*
X57253804Y1841213D01*
X57344278Y1702732D01*
X57344283Y1702727D01*
X57344284Y1702724D01*
X57470968Y1565111D01*
X57496760Y1537094D01*
X57674424Y1398811D01*
X57674425Y1398811D01*
X57674427Y1398809D01*
X57801135Y1330239D01*
X57872426Y1291658D01*
X58085365Y1218556D01*
X58307431Y1181500D01*
X58532569Y1181500D01*
X58754635Y1218556D01*
X58967574Y1291658D01*
X59165576Y1398811D01*
X59343240Y1537094D01*
X59464594Y1668918D01*
X59495715Y1702724D01*
X59495715Y1702725D01*
X59495722Y1702732D01*
X59586193Y1841210D01*
X59639338Y1886563D01*
X59708569Y1895987D01*
X59771905Y1866485D01*
X59793804Y1841213D01*
X59884278Y1702732D01*
X59884283Y1702727D01*
X59884284Y1702724D01*
X60010968Y1565111D01*
X60036760Y1537094D01*
X60214424Y1398811D01*
X60214425Y1398811D01*
X60214427Y1398809D01*
X60341135Y1330239D01*
X60412426Y1291658D01*
X60625365Y1218556D01*
X60847431Y1181500D01*
X61072569Y1181500D01*
X61294635Y1218556D01*
X61507574Y1291658D01*
X61705576Y1398811D01*
X61883240Y1537094D01*
X62004594Y1668918D01*
X62035715Y1702724D01*
X62035715Y1702725D01*
X62035722Y1702732D01*
X62126193Y1841210D01*
X62179338Y1886563D01*
X62248569Y1895987D01*
X62311905Y1866485D01*
X62333804Y1841213D01*
X62424278Y1702732D01*
X62424283Y1702727D01*
X62424284Y1702724D01*
X62550968Y1565111D01*
X62576760Y1537094D01*
X62754424Y1398811D01*
X62754425Y1398811D01*
X62754427Y1398809D01*
X62881135Y1330239D01*
X62952426Y1291658D01*
X63165365Y1218556D01*
X63387431Y1181500D01*
X63612569Y1181500D01*
X63834635Y1218556D01*
X64047574Y1291658D01*
X64245576Y1398811D01*
X64423240Y1537094D01*
X64544594Y1668918D01*
X64575715Y1702724D01*
X64575717Y1702727D01*
X64575722Y1702732D01*
X64698860Y1891209D01*
X64789296Y2097384D01*
X64844564Y2315632D01*
X64847164Y2347007D01*
X64863156Y2539995D01*
X64863156Y2540006D01*
X64844565Y2764360D01*
X64844563Y2764372D01*
X64789296Y2982615D01*
X64779071Y3005925D01*
X64698860Y3188791D01*
X64682706Y3213516D01*
X64575723Y3377266D01*
X64575715Y3377277D01*
X64423243Y3542903D01*
X64423238Y3542908D01*
X64245577Y3681188D01*
X64245572Y3681192D01*
X64047580Y3788339D01*
X64047577Y3788341D01*
X64047574Y3788342D01*
X64047571Y3788343D01*
X64047569Y3788344D01*
X63834637Y3861444D01*
X63612569Y3898500D01*
X63387431Y3898500D01*
X63165362Y3861444D01*
X62952430Y3788344D01*
X62952419Y3788339D01*
X62754427Y3681192D01*
X62754422Y3681188D01*
X62576761Y3542908D01*
X62576756Y3542903D01*
X62424284Y3377277D01*
X62424276Y3377266D01*
X62333808Y3238794D01*
X62280662Y3193438D01*
X62211431Y3184014D01*
X62148095Y3213516D01*
X62126192Y3238794D01*
X62035723Y3377266D01*
X62035715Y3377277D01*
X61883243Y3542903D01*
X61883238Y3542908D01*
X61705577Y3681188D01*
X61705572Y3681192D01*
X61507580Y3788339D01*
X61507577Y3788341D01*
X61507574Y3788342D01*
X61507571Y3788343D01*
X61507569Y3788344D01*
X61294637Y3861444D01*
X61072569Y3898500D01*
X60847431Y3898500D01*
X60625359Y3861444D01*
X60621120Y3860370D01*
X60551299Y3863001D01*
X60503008Y3892897D01*
X59144892Y5251013D01*
X61248000Y5251013D01*
X61248000Y4881026D01*
X61479246Y4842438D01*
X61484284Y4841490D01*
X61514626Y4835128D01*
X61519616Y4833973D01*
X61559619Y4823844D01*
X61564565Y4822482D01*
X61594290Y4813632D01*
X61599170Y4812069D01*
X61851130Y4725571D01*
X61855939Y4723809D01*
X61884806Y4712546D01*
X61889540Y4710585D01*
X61927329Y4694011D01*
X61931981Y4691855D01*
X61959855Y4678229D01*
X61964414Y4675882D01*
X62198718Y4549083D01*
X62203174Y4546551D01*
X62229816Y4530676D01*
X62230000Y4530562D01*
X62230184Y4530676D01*
X62256826Y4546551D01*
X62261282Y4549083D01*
X62495586Y4675882D01*
X62500145Y4678229D01*
X62528019Y4691855D01*
X62532671Y4694011D01*
X62570460Y4710585D01*
X62575194Y4712546D01*
X62604061Y4723809D01*
X62608870Y4725571D01*
X62750000Y4774022D01*
X62750000Y5251013D01*
X61248000Y5251013D01*
X59144892Y5251013D01*
X57403836Y6992069D01*
X57403832Y6992072D01*
X57300081Y7061397D01*
X57300072Y7061402D01*
X57184785Y7109155D01*
X57184777Y7109157D01*
X57062398Y7133500D01*
X57062394Y7133500D01*
X44813766Y7133500D01*
X44746727Y7153185D01*
X44726085Y7169819D01*
X44144891Y7751013D01*
X58748000Y7751013D01*
X58748000Y7059289D01*
X59558276Y6249013D01*
X60250000Y6249013D01*
X60250000Y7751013D01*
X61248000Y7751013D01*
X61248000Y6249013D01*
X62750000Y6249013D01*
X62750000Y7751013D01*
X63748000Y7751013D01*
X63748000Y6249013D01*
X64376000Y6249013D01*
X64376000Y7751013D01*
X63748000Y7751013D01*
X62750000Y7751013D01*
X61248000Y7751013D01*
X60250000Y7751013D01*
X58748000Y7751013D01*
X44144891Y7751013D01*
X41644892Y10251013D01*
X43748000Y10251013D01*
X43748000Y9559289D01*
X44558275Y8749013D01*
X45250000Y8749013D01*
X45250000Y10251013D01*
X46248000Y10251013D01*
X46248000Y8749013D01*
X47750000Y8749013D01*
X47750000Y10251013D01*
X48748000Y10251013D01*
X48748000Y8749013D01*
X50250000Y8749013D01*
X50250000Y10251013D01*
X51248000Y10251013D01*
X51248000Y8749013D01*
X52750000Y8749013D01*
X52750000Y10251013D01*
X53748000Y10251013D01*
X53748000Y8749013D01*
X55250000Y8749013D01*
X55250000Y10251013D01*
X56248000Y10251013D01*
X56248000Y8749013D01*
X57750000Y8749013D01*
X57750000Y10251013D01*
X58748000Y10251013D01*
X58748000Y8749013D01*
X60250000Y8749013D01*
X60250000Y10251013D01*
X61248000Y10251013D01*
X61248000Y8749013D01*
X62750000Y8749013D01*
X62750000Y10251013D01*
X63748000Y10251013D01*
X63748000Y8749013D01*
X64376000Y8749013D01*
X64376000Y10251013D01*
X63748000Y10251013D01*
X62750000Y10251013D01*
X61248000Y10251013D01*
X60250000Y10251013D01*
X58748000Y10251013D01*
X57750000Y10251013D01*
X56248000Y10251013D01*
X55250000Y10251013D01*
X53748000Y10251013D01*
X52750000Y10251013D01*
X51248000Y10251013D01*
X50250000Y10251013D01*
X48748000Y10251013D01*
X47750000Y10251013D01*
X46248000Y10251013D01*
X45250000Y10251013D01*
X43748000Y10251013D01*
X41644892Y10251013D01*
X39144892Y12751013D01*
X41248000Y12751013D01*
X41248000Y12059289D01*
X42058275Y11249013D01*
X42750000Y11249013D01*
X42750000Y12751013D01*
X43748000Y12751013D01*
X43748000Y11249013D01*
X45250000Y11249013D01*
X45250000Y12751013D01*
X46248000Y12751013D01*
X46248000Y11249013D01*
X47750000Y11249013D01*
X47750000Y12751013D01*
X48748000Y12751013D01*
X48748000Y11249013D01*
X50250000Y11249013D01*
X50250000Y12751013D01*
X51248000Y12751013D01*
X51248000Y11249013D01*
X52750000Y11249013D01*
X52750000Y12751013D01*
X53748000Y12751013D01*
X53748000Y11249013D01*
X55250000Y11249013D01*
X55250000Y12751013D01*
X56248000Y12751013D01*
X56248000Y11249013D01*
X57750000Y11249013D01*
X57750000Y12751013D01*
X58748000Y12751013D01*
X58748000Y11249013D01*
X60250000Y11249013D01*
X60250000Y12751013D01*
X61248000Y12751013D01*
X61248000Y11249013D01*
X62750000Y11249013D01*
X62750000Y12751013D01*
X63748000Y12751013D01*
X63748000Y11249013D01*
X64376000Y11249013D01*
X64376000Y12751013D01*
X63748000Y12751013D01*
X62750000Y12751013D01*
X61248000Y12751013D01*
X60250000Y12751013D01*
X58748000Y12751013D01*
X57750000Y12751013D01*
X56248000Y12751013D01*
X55250000Y12751013D01*
X53748000Y12751013D01*
X52750000Y12751013D01*
X51248000Y12751013D01*
X50250000Y12751013D01*
X48748000Y12751013D01*
X47750000Y12751013D01*
X46248000Y12751013D01*
X45250000Y12751013D01*
X43748000Y12751013D01*
X42750000Y12751013D01*
X41248000Y12751013D01*
X39144892Y12751013D01*
X36644892Y15251013D01*
X38748000Y15251013D01*
X38748000Y14559289D01*
X39558275Y13749013D01*
X40250000Y13749013D01*
X40250000Y15251013D01*
X41248000Y15251013D01*
X41248000Y13749013D01*
X42750000Y13749013D01*
X42750000Y15251013D01*
X43748000Y15251013D01*
X43748000Y13749013D01*
X45250000Y13749013D01*
X45250000Y15251013D01*
X46248000Y15251013D01*
X46248000Y13749013D01*
X47750000Y13749013D01*
X47750000Y15251013D01*
X48748000Y15251013D01*
X48748000Y13749013D01*
X50250000Y13749013D01*
X50250000Y15251013D01*
X51248000Y15251013D01*
X51248000Y13749013D01*
X52750000Y13749013D01*
X52750000Y15251013D01*
X53748000Y15251013D01*
X53748000Y13749013D01*
X55250000Y13749013D01*
X55250000Y15251013D01*
X56248000Y15251013D01*
X56248000Y13749013D01*
X57750000Y13749013D01*
X57750000Y15251013D01*
X58748000Y15251013D01*
X58748000Y13749013D01*
X60250000Y13749013D01*
X60250000Y15251013D01*
X61248000Y15251013D01*
X61248000Y13749013D01*
X62750000Y13749013D01*
X62750000Y15251013D01*
X63748000Y15251013D01*
X63748000Y13749013D01*
X64376000Y13749013D01*
X64376000Y15251013D01*
X63748000Y15251013D01*
X62750000Y15251013D01*
X61248000Y15251013D01*
X60250000Y15251013D01*
X58748000Y15251013D01*
X57750000Y15251013D01*
X56248000Y15251013D01*
X55250000Y15251013D01*
X53748000Y15251013D01*
X52750000Y15251013D01*
X51248000Y15251013D01*
X50250000Y15251013D01*
X48748000Y15251013D01*
X47750000Y15251013D01*
X46248000Y15251013D01*
X45250000Y15251013D01*
X43748000Y15251013D01*
X42750000Y15251013D01*
X41248000Y15251013D01*
X40250000Y15251013D01*
X38748000Y15251013D01*
X36644892Y15251013D01*
X34144892Y17751013D01*
X36248000Y17751013D01*
X36248000Y17059289D01*
X37058276Y16249013D01*
X37750000Y16249013D01*
X37750000Y17751013D01*
X38748000Y17751013D01*
X38748000Y16249013D01*
X40250000Y16249013D01*
X40250000Y17751013D01*
X41248000Y17751013D01*
X41248000Y16249013D01*
X42750000Y16249013D01*
X42750000Y17751013D01*
X43748000Y17751013D01*
X43748000Y16249013D01*
X45250000Y16249013D01*
X45250000Y17751013D01*
X46248000Y17751013D01*
X46248000Y16249013D01*
X47750000Y16249013D01*
X47750000Y17751013D01*
X48748000Y17751013D01*
X48748000Y16249013D01*
X50250000Y16249013D01*
X50250000Y17751013D01*
X51248000Y17751013D01*
X51248000Y16249013D01*
X52750000Y16249013D01*
X52750000Y17751013D01*
X53748000Y17751013D01*
X53748000Y16249013D01*
X55250000Y16249013D01*
X55250000Y17751013D01*
X56248000Y17751013D01*
X56248000Y16249013D01*
X57750000Y16249013D01*
X57750000Y17751013D01*
X58748000Y17751013D01*
X58748000Y16249013D01*
X60250000Y16249013D01*
X60250000Y17751013D01*
X61248000Y17751013D01*
X61248000Y16249013D01*
X62750000Y16249013D01*
X62750000Y17751013D01*
X63748000Y17751013D01*
X63748000Y16249013D01*
X64376000Y16249013D01*
X64376000Y17751013D01*
X63748000Y17751013D01*
X62750000Y17751013D01*
X61248000Y17751013D01*
X60250000Y17751013D01*
X58748000Y17751013D01*
X57750000Y17751013D01*
X56248000Y17751013D01*
X55250000Y17751013D01*
X53748000Y17751013D01*
X52750000Y17751013D01*
X51248000Y17751013D01*
X50250000Y17751013D01*
X48748000Y17751013D01*
X47750000Y17751013D01*
X46248000Y17751013D01*
X45250000Y17751013D01*
X43748000Y17751013D01*
X42750000Y17751013D01*
X41248000Y17751013D01*
X40250000Y17751013D01*
X38748000Y17751013D01*
X37750000Y17751013D01*
X36248000Y17751013D01*
X34144892Y17751013D01*
X31903836Y19992069D01*
X31903832Y19992072D01*
X31800081Y20061397D01*
X31800072Y20061402D01*
X31684785Y20109155D01*
X31684777Y20109157D01*
X31562398Y20133500D01*
X31562394Y20133500D01*
X25171962Y20133500D01*
X25104923Y20153185D01*
X25070387Y20186377D01*
X25025129Y20251013D01*
X33748000Y20251013D01*
X33748000Y19559289D01*
X34558276Y18749013D01*
X35250000Y18749013D01*
X35250000Y20251013D01*
X33748000Y20251013D01*
X25025129Y20251013D01*
X24976978Y20319780D01*
X24956760Y20339998D01*
X36695034Y20339998D01*
X36714858Y20113401D01*
X36714860Y20113390D01*
X36773730Y19893683D01*
X36773735Y19893669D01*
X36869863Y19687522D01*
X36920974Y19614528D01*
X37600000Y20293554D01*
X37600000Y20287339D01*
X37627259Y20185606D01*
X37679920Y20094394D01*
X37754394Y20019920D01*
X37845606Y19967259D01*
X37947339Y19940000D01*
X37953553Y19940000D01*
X37274526Y19260975D01*
X37347513Y19209868D01*
X37347521Y19209864D01*
X37553668Y19113736D01*
X37553682Y19113731D01*
X37773389Y19054861D01*
X37773400Y19054859D01*
X37999998Y19035034D01*
X38000002Y19035034D01*
X38226599Y19054859D01*
X38226610Y19054861D01*
X38446317Y19113731D01*
X38446331Y19113736D01*
X38652478Y19209864D01*
X38725471Y19260976D01*
X38046447Y19940000D01*
X38052661Y19940000D01*
X38154394Y19967259D01*
X38245606Y20019920D01*
X38320080Y20094394D01*
X38372741Y20185606D01*
X38400000Y20287339D01*
X38400000Y20293553D01*
X39079024Y19614529D01*
X39130136Y19687522D01*
X39226264Y19893669D01*
X39226269Y19893683D01*
X39285139Y20113390D01*
X39285141Y20113401D01*
X39297181Y20251013D01*
X41248000Y20251013D01*
X41248000Y18749013D01*
X42750000Y18749013D01*
X42750000Y20251013D01*
X43748000Y20251013D01*
X43748000Y18749013D01*
X45250000Y18749013D01*
X49101545Y18749013D01*
X50250000Y18749013D01*
X50250000Y20251013D01*
X51248000Y20251013D01*
X51248000Y18749013D01*
X52750000Y18749013D01*
X52750000Y20251013D01*
X53748000Y20251013D01*
X53748000Y18749013D01*
X55250000Y18749013D01*
X58748000Y18749013D01*
X60250000Y18749013D01*
X60250000Y20251013D01*
X61248000Y20251013D01*
X61248000Y18749013D01*
X62750000Y18749013D01*
X62750000Y20251013D01*
X63748000Y20251013D01*
X63748000Y18749013D01*
X64376000Y18749013D01*
X64376000Y20251013D01*
X63748000Y20251013D01*
X62750000Y20251013D01*
X61248000Y20251013D01*
X60250000Y20251013D01*
X59298992Y20251013D01*
X59277445Y20004721D01*
X59276856Y19999344D01*
X59272585Y19966899D01*
X59271763Y19961553D01*
X59264200Y19918657D01*
X59263144Y19913349D01*
X59256059Y19881390D01*
X59254773Y19876134D01*
X59184622Y19614327D01*
X59183107Y19609130D01*
X59173258Y19577896D01*
X59171518Y19572772D01*
X59156619Y19531842D01*
X59154658Y19526800D01*
X59142139Y19496580D01*
X59139962Y19491633D01*
X59025421Y19245998D01*
X59023027Y19241143D01*
X59007905Y19212095D01*
X59005301Y19207349D01*
X58983518Y19169624D01*
X58980712Y19165000D01*
X58963132Y19137407D01*
X58960128Y19132911D01*
X58767995Y18858524D01*
X58748000Y18840203D01*
X58748000Y18749013D01*
X55250000Y18749013D01*
X55250000Y18842034D01*
X55231997Y18858530D01*
X55039863Y19132923D01*
X55036858Y19137421D01*
X55019274Y19165022D01*
X55016468Y19169645D01*
X54994688Y19207367D01*
X54992084Y19212114D01*
X54976968Y19241152D01*
X54974576Y19246004D01*
X54860038Y19491633D01*
X54857861Y19496580D01*
X54845342Y19526800D01*
X54843381Y19531842D01*
X54828482Y19572772D01*
X54826742Y19577896D01*
X54816893Y19609130D01*
X54815378Y19614327D01*
X54745227Y19876134D01*
X54743941Y19881390D01*
X54736856Y19913349D01*
X54735800Y19918657D01*
X54728237Y19961553D01*
X54727415Y19966899D01*
X54723144Y19999344D01*
X54722555Y20004721D01*
X54701008Y20251013D01*
X53748000Y20251013D01*
X52750000Y20251013D01*
X51248000Y20251013D01*
X50250000Y20251013D01*
X49798992Y20251013D01*
X49777445Y20004721D01*
X49776856Y19999344D01*
X49772585Y19966899D01*
X49771763Y19961553D01*
X49764200Y19918657D01*
X49763144Y19913349D01*
X49756059Y19881390D01*
X49754773Y19876134D01*
X49684622Y19614327D01*
X49683107Y19609130D01*
X49673258Y19577896D01*
X49671518Y19572772D01*
X49656619Y19531842D01*
X49654658Y19526800D01*
X49642139Y19496580D01*
X49639962Y19491633D01*
X49525421Y19245998D01*
X49523027Y19241143D01*
X49507905Y19212095D01*
X49505301Y19207349D01*
X49483518Y19169624D01*
X49480712Y19165000D01*
X49463132Y19137407D01*
X49460128Y19132911D01*
X49267995Y18858524D01*
X49228419Y18822261D01*
X49101545Y18749013D01*
X45250000Y18749013D01*
X45250000Y19858322D01*
X45245227Y19876134D01*
X45243941Y19881390D01*
X45236856Y19913349D01*
X45235800Y19918657D01*
X45228237Y19961553D01*
X45227415Y19966899D01*
X45223144Y19999344D01*
X45222555Y20004721D01*
X45201008Y20251013D01*
X43748000Y20251013D01*
X42750000Y20251013D01*
X41248000Y20251013D01*
X39297181Y20251013D01*
X39304966Y20339998D01*
X46195034Y20339998D01*
X46214858Y20113401D01*
X46214860Y20113390D01*
X46273730Y19893683D01*
X46273735Y19893669D01*
X46369863Y19687522D01*
X46420974Y19614528D01*
X47100000Y20293554D01*
X47100000Y20287339D01*
X47127259Y20185606D01*
X47179920Y20094394D01*
X47254394Y20019920D01*
X47345606Y19967259D01*
X47447339Y19940000D01*
X47453553Y19940000D01*
X46774526Y19260975D01*
X46847513Y19209868D01*
X46847521Y19209864D01*
X47053668Y19113736D01*
X47053682Y19113731D01*
X47273389Y19054861D01*
X47273400Y19054859D01*
X47499998Y19035034D01*
X47500002Y19035034D01*
X47726599Y19054859D01*
X47726610Y19054861D01*
X47946317Y19113731D01*
X47946331Y19113736D01*
X48152478Y19209864D01*
X48225471Y19260976D01*
X47546447Y19940000D01*
X47552661Y19940000D01*
X47654394Y19967259D01*
X47745606Y20019920D01*
X47820080Y20094394D01*
X47872741Y20185606D01*
X47900000Y20287339D01*
X47900000Y20293553D01*
X48579024Y19614529D01*
X48630136Y19687522D01*
X48726264Y19893669D01*
X48726269Y19893683D01*
X48785139Y20113390D01*
X48785141Y20113401D01*
X48804966Y20339998D01*
X55695034Y20339998D01*
X55714858Y20113401D01*
X55714860Y20113390D01*
X55773730Y19893683D01*
X55773735Y19893669D01*
X55869863Y19687522D01*
X55920974Y19614528D01*
X56600000Y20293554D01*
X56600000Y20287339D01*
X56627259Y20185606D01*
X56679920Y20094394D01*
X56754394Y20019920D01*
X56845606Y19967259D01*
X56947339Y19940000D01*
X56953553Y19940000D01*
X56274526Y19260975D01*
X56347513Y19209868D01*
X56347521Y19209864D01*
X56553668Y19113736D01*
X56553682Y19113731D01*
X56773389Y19054861D01*
X56773400Y19054859D01*
X56999998Y19035034D01*
X57000002Y19035034D01*
X57226599Y19054859D01*
X57226610Y19054861D01*
X57446317Y19113731D01*
X57446331Y19113736D01*
X57652478Y19209864D01*
X57725471Y19260976D01*
X57046447Y19940000D01*
X57052661Y19940000D01*
X57154394Y19967259D01*
X57245606Y20019920D01*
X57320080Y20094394D01*
X57372741Y20185606D01*
X57400000Y20287339D01*
X57400000Y20293553D01*
X58079024Y19614529D01*
X58130136Y19687522D01*
X58226264Y19893669D01*
X58226269Y19893683D01*
X58285139Y20113390D01*
X58285141Y20113401D01*
X58304966Y20339998D01*
X58304966Y20340003D01*
X58285141Y20566600D01*
X58285139Y20566611D01*
X58226269Y20786318D01*
X58226264Y20786332D01*
X58130136Y20992479D01*
X58130132Y20992487D01*
X58079025Y21065474D01*
X57400000Y20386449D01*
X57400000Y20392661D01*
X57372741Y20494394D01*
X57320080Y20585606D01*
X57245606Y20660080D01*
X57154394Y20712741D01*
X57052661Y20740000D01*
X57046448Y20740000D01*
X57725472Y21419026D01*
X57652478Y21470137D01*
X57446331Y21566265D01*
X57446317Y21566270D01*
X57226610Y21625140D01*
X57226599Y21625142D01*
X57000002Y21644966D01*
X56999998Y21644966D01*
X56773400Y21625142D01*
X56773389Y21625140D01*
X56553682Y21566270D01*
X56553673Y21566266D01*
X56347516Y21470134D01*
X56347512Y21470132D01*
X56274526Y21419027D01*
X56274526Y21419026D01*
X56953553Y20740000D01*
X56947339Y20740000D01*
X56845606Y20712741D01*
X56754394Y20660080D01*
X56679920Y20585606D01*
X56627259Y20494394D01*
X56600000Y20392661D01*
X56600000Y20386448D01*
X55920974Y21065474D01*
X55920973Y21065474D01*
X55869868Y20992488D01*
X55869866Y20992484D01*
X55773734Y20786327D01*
X55773730Y20786318D01*
X55714860Y20566611D01*
X55714858Y20566600D01*
X55695034Y20340003D01*
X55695034Y20339998D01*
X48804966Y20339998D01*
X48804966Y20340003D01*
X48785141Y20566600D01*
X48785139Y20566611D01*
X48726269Y20786318D01*
X48726264Y20786332D01*
X48630136Y20992479D01*
X48630132Y20992487D01*
X48579025Y21065474D01*
X47900000Y20386449D01*
X47900000Y20392661D01*
X47872741Y20494394D01*
X47820080Y20585606D01*
X47745606Y20660080D01*
X47654394Y20712741D01*
X47552661Y20740000D01*
X47546448Y20740000D01*
X48225472Y21419026D01*
X48152478Y21470137D01*
X47946331Y21566265D01*
X47946317Y21566270D01*
X47726610Y21625140D01*
X47726599Y21625142D01*
X47500002Y21644966D01*
X47499998Y21644966D01*
X47273400Y21625142D01*
X47273389Y21625140D01*
X47053682Y21566270D01*
X47053673Y21566266D01*
X46847516Y21470134D01*
X46847512Y21470132D01*
X46774526Y21419027D01*
X46774526Y21419026D01*
X47453553Y20740000D01*
X47447339Y20740000D01*
X47345606Y20712741D01*
X47254394Y20660080D01*
X47179920Y20585606D01*
X47127259Y20494394D01*
X47100000Y20392661D01*
X47100000Y20386448D01*
X46420974Y21065474D01*
X46420973Y21065474D01*
X46369868Y20992488D01*
X46369866Y20992484D01*
X46273734Y20786327D01*
X46273730Y20786318D01*
X46214860Y20566611D01*
X46214858Y20566600D01*
X46195034Y20340003D01*
X46195034Y20339998D01*
X39304966Y20339998D01*
X39304966Y20340003D01*
X39285141Y20566600D01*
X39285139Y20566611D01*
X39226269Y20786318D01*
X39226264Y20786332D01*
X39130136Y20992479D01*
X39130132Y20992487D01*
X39079025Y21065474D01*
X38400000Y20386449D01*
X38400000Y20392661D01*
X38372741Y20494394D01*
X38320080Y20585606D01*
X38245606Y20660080D01*
X38154394Y20712741D01*
X38052661Y20740000D01*
X38046448Y20740000D01*
X38725472Y21419026D01*
X38652478Y21470137D01*
X38446331Y21566265D01*
X38446317Y21566270D01*
X38226610Y21625140D01*
X38226599Y21625142D01*
X38000002Y21644966D01*
X37999998Y21644966D01*
X37773400Y21625142D01*
X37773389Y21625140D01*
X37553682Y21566270D01*
X37553673Y21566266D01*
X37347516Y21470134D01*
X37347512Y21470132D01*
X37274526Y21419027D01*
X37274526Y21419026D01*
X37953553Y20740000D01*
X37947339Y20740000D01*
X37845606Y20712741D01*
X37754394Y20660080D01*
X37679920Y20585606D01*
X37627259Y20494394D01*
X37600000Y20392661D01*
X37600000Y20386448D01*
X36920974Y21065474D01*
X36920973Y21065474D01*
X36869868Y20992488D01*
X36869866Y20992484D01*
X36773734Y20786327D01*
X36773730Y20786318D01*
X36714860Y20566611D01*
X36714858Y20566600D01*
X36695034Y20340003D01*
X36695034Y20339998D01*
X24956760Y20339998D01*
X24904097Y20392661D01*
X24819781Y20476977D01*
X24637677Y20604488D01*
X24637678Y20604488D01*
X24637676Y20604489D01*
X24518459Y20660080D01*
X24436196Y20698440D01*
X24436193Y20698441D01*
X24436191Y20698442D01*
X24221465Y20755978D01*
X24221457Y20755979D01*
X24000002Y20775353D01*
X23999998Y20775353D01*
X23778543Y20755979D01*
X23778538Y20755979D01*
X23778537Y20755978D01*
X23778534Y20755978D01*
X23778533Y20755977D01*
X23738366Y20745215D01*
X23668516Y20746880D01*
X23618595Y20777310D01*
X21669819Y22726086D01*
X21636334Y22787409D01*
X21633500Y22813767D01*
X21633500Y23999998D01*
X22724647Y23999998D01*
X22744021Y23778543D01*
X22744022Y23778535D01*
X22801558Y23563809D01*
X22801559Y23563807D01*
X22801560Y23563804D01*
X22848536Y23463064D01*
X22895511Y23362324D01*
X22895512Y23362323D01*
X23023023Y23180219D01*
X23180219Y23023023D01*
X23362323Y22895512D01*
X23563804Y22801560D01*
X23778537Y22744022D01*
X23936724Y22730183D01*
X23999998Y22724647D01*
X24000000Y22724647D01*
X24000002Y22724647D01*
X24055365Y22729491D01*
X24221463Y22744022D01*
X24247554Y22751013D01*
X26248000Y22751013D01*
X26248000Y21249013D01*
X27750000Y21249013D01*
X27750000Y22751013D01*
X28748000Y22751013D01*
X28748000Y21249013D01*
X30250000Y21249013D01*
X30250000Y22751013D01*
X31248000Y22751013D01*
X31248000Y21249013D01*
X32750000Y21249013D01*
X32750000Y22751013D01*
X33748000Y22751013D01*
X33748000Y21249013D01*
X35250000Y21249013D01*
X35250000Y22751013D01*
X36248000Y22751013D01*
X36248000Y21836137D01*
X36271566Y21857731D01*
X36405145Y21934855D01*
X36482269Y22068434D01*
X36518533Y22108008D01*
X36792935Y22300145D01*
X36797437Y22303153D01*
X36825050Y22320743D01*
X36829674Y22323549D01*
X36867397Y22345327D01*
X36872140Y22347929D01*
X36901162Y22363036D01*
X36906011Y22365427D01*
X37151631Y22479962D01*
X37156582Y22482140D01*
X37186802Y22494658D01*
X37191840Y22496618D01*
X37232771Y22511518D01*
X37237896Y22513258D01*
X37269130Y22523107D01*
X37274327Y22524622D01*
X37536134Y22594773D01*
X37541390Y22596059D01*
X37573349Y22603144D01*
X37578657Y22604200D01*
X37621553Y22611763D01*
X37626899Y22612585D01*
X37659344Y22616856D01*
X37664721Y22617445D01*
X37750000Y22624906D01*
X37750000Y22751013D01*
X38748000Y22751013D01*
X38748000Y22517706D01*
X38762104Y22513258D01*
X38767228Y22511518D01*
X38808158Y22496619D01*
X38813200Y22494658D01*
X38843420Y22482139D01*
X38848367Y22479962D01*
X39093996Y22365424D01*
X39098848Y22363032D01*
X39127886Y22347916D01*
X39132633Y22345312D01*
X39170355Y22323532D01*
X39174978Y22320726D01*
X39202579Y22303142D01*
X39207077Y22300137D01*
X39481470Y22108003D01*
X39517733Y22068428D01*
X39594852Y21934853D01*
X39728424Y21857736D01*
X39767999Y21821473D01*
X39960135Y21547078D01*
X39963139Y21542582D01*
X39980724Y21514981D01*
X39983532Y21510354D01*
X40005312Y21472631D01*
X40007916Y21467886D01*
X40023032Y21438848D01*
X40025424Y21433996D01*
X40111682Y21249013D01*
X40250000Y21249013D01*
X40250000Y22751013D01*
X41248000Y22751013D01*
X41248000Y21249013D01*
X42750000Y21249013D01*
X42750000Y22751013D01*
X43748000Y22751013D01*
X43748000Y21249013D01*
X45250000Y21249013D01*
X45250000Y22751013D01*
X48748000Y22751013D01*
X48748000Y22271483D01*
X48981470Y22108003D01*
X49017733Y22068428D01*
X49094852Y21934853D01*
X49228424Y21857736D01*
X49267999Y21821473D01*
X49460135Y21547078D01*
X49463139Y21542582D01*
X49480724Y21514981D01*
X49483532Y21510354D01*
X49505312Y21472631D01*
X49507916Y21467886D01*
X49523032Y21438848D01*
X49525424Y21433996D01*
X49611682Y21249013D01*
X50250000Y21249013D01*
X50250000Y22751013D01*
X51248000Y22751013D01*
X51248000Y21249013D01*
X52750000Y21249013D01*
X52750000Y22751013D01*
X53748000Y22751013D01*
X53748000Y21249013D01*
X54888317Y21249013D01*
X54974573Y21433989D01*
X54976964Y21438838D01*
X54992071Y21467860D01*
X54994673Y21472603D01*
X55016451Y21510326D01*
X55019257Y21514950D01*
X55036847Y21542563D01*
X55039855Y21547065D01*
X55231992Y21821467D01*
X55250000Y21837969D01*
X55250000Y22751013D01*
X58748000Y22751013D01*
X58748000Y21839799D01*
X58767999Y21821473D01*
X58960135Y21547078D01*
X58963139Y21542582D01*
X58980724Y21514981D01*
X58983532Y21510354D01*
X59005312Y21472631D01*
X59007916Y21467886D01*
X59023032Y21438848D01*
X59025424Y21433996D01*
X59111682Y21249013D01*
X60250000Y21249013D01*
X60250000Y22751013D01*
X61248000Y22751013D01*
X61248000Y21249013D01*
X62750000Y21249013D01*
X62750000Y22751013D01*
X63748000Y22751013D01*
X63748000Y21249013D01*
X64376000Y21249013D01*
X64376000Y22751013D01*
X63748000Y22751013D01*
X62750000Y22751013D01*
X61248000Y22751013D01*
X60250000Y22751013D01*
X58748000Y22751013D01*
X55250000Y22751013D01*
X53748000Y22751013D01*
X52750000Y22751013D01*
X51248000Y22751013D01*
X50250000Y22751013D01*
X48748000Y22751013D01*
X45250000Y22751013D01*
X43748000Y22751013D01*
X42750000Y22751013D01*
X41248000Y22751013D01*
X40250000Y22751013D01*
X38748000Y22751013D01*
X37750000Y22751013D01*
X36248000Y22751013D01*
X35250000Y22751013D01*
X33748000Y22751013D01*
X32750000Y22751013D01*
X31248000Y22751013D01*
X30250000Y22751013D01*
X28748000Y22751013D01*
X27750000Y22751013D01*
X26248000Y22751013D01*
X24247554Y22751013D01*
X24436196Y22801560D01*
X24637677Y22895512D01*
X24819781Y23023023D01*
X24976977Y23180219D01*
X25104488Y23362323D01*
X25198440Y23563804D01*
X25255978Y23778537D01*
X25275353Y24000000D01*
X25272974Y24027189D01*
X25255978Y24221458D01*
X25255978Y24221463D01*
X25198440Y24436196D01*
X25104488Y24637676D01*
X25104486Y24637679D01*
X25104485Y24637681D01*
X24976978Y24819780D01*
X24976975Y24819783D01*
X24819781Y24976977D01*
X24637677Y25104488D01*
X24637678Y25104488D01*
X24637676Y25104489D01*
X24536936Y25151464D01*
X24436196Y25198440D01*
X24436193Y25198441D01*
X24436191Y25198442D01*
X24239995Y25251013D01*
X26248000Y25251013D01*
X26248000Y24332711D01*
X26248282Y24330137D01*
X26271453Y24065284D01*
X26271807Y24059887D01*
X26273235Y24027189D01*
X26273353Y24021779D01*
X26273353Y23978221D01*
X26273235Y23972811D01*
X26271807Y23940113D01*
X26271453Y23934716D01*
X26255207Y23749013D01*
X27750000Y23749013D01*
X27750000Y25251013D01*
X28748000Y25251013D01*
X28748000Y23749013D01*
X30250000Y23749013D01*
X30250000Y25251013D01*
X31248000Y25251013D01*
X31248000Y23749013D01*
X32750000Y23749013D01*
X32750000Y25251013D01*
X33748000Y25251013D01*
X33748000Y23749013D01*
X35250000Y23749013D01*
X35250000Y25251013D01*
X36248000Y25251013D01*
X36248000Y23749013D01*
X37750000Y23749013D01*
X37750000Y25251013D01*
X38748000Y25251013D01*
X38748000Y23749013D01*
X40250000Y23749013D01*
X40250000Y25251013D01*
X41248000Y25251013D01*
X41248000Y23749013D01*
X42750000Y23749013D01*
X42750000Y25251013D01*
X43748000Y25251013D01*
X43748000Y23749013D01*
X45250000Y23749013D01*
X45250000Y25251013D01*
X46248000Y25251013D01*
X46248000Y23749013D01*
X47750000Y23749013D01*
X47750000Y25251013D01*
X48748000Y25251013D01*
X48748000Y23749013D01*
X50250000Y23749013D01*
X50250000Y25251013D01*
X51248000Y25251013D01*
X51248000Y23749013D01*
X52750000Y23749013D01*
X52750000Y25251013D01*
X53748000Y25251013D01*
X53748000Y23749013D01*
X55250000Y23749013D01*
X55250000Y25251013D01*
X56248000Y25251013D01*
X56248000Y23749013D01*
X57750000Y23749013D01*
X57750000Y25251013D01*
X58748000Y25251013D01*
X58748000Y23749013D01*
X60250000Y23749013D01*
X60250000Y25251013D01*
X61248000Y25251013D01*
X61248000Y23749013D01*
X62750000Y23749013D01*
X62750000Y25251013D01*
X63748000Y25251013D01*
X63748000Y23749013D01*
X64376000Y23749013D01*
X64376000Y25251013D01*
X63748000Y25251013D01*
X62750000Y25251013D01*
X61248000Y25251013D01*
X60250000Y25251013D01*
X58748000Y25251013D01*
X57750000Y25251013D01*
X56248000Y25251013D01*
X55250000Y25251013D01*
X53748000Y25251013D01*
X52750000Y25251013D01*
X51248000Y25251013D01*
X50250000Y25251013D01*
X48748000Y25251013D01*
X47750000Y25251013D01*
X46248000Y25251013D01*
X45250000Y25251013D01*
X43748000Y25251013D01*
X42750000Y25251013D01*
X41248000Y25251013D01*
X40250000Y25251013D01*
X38748000Y25251013D01*
X37750000Y25251013D01*
X36248000Y25251013D01*
X35250000Y25251013D01*
X33748000Y25251013D01*
X32750000Y25251013D01*
X31248000Y25251013D01*
X30250000Y25251013D01*
X28748000Y25251013D01*
X27750000Y25251013D01*
X26248000Y25251013D01*
X24239995Y25251013D01*
X24221465Y25255978D01*
X24221457Y25255979D01*
X24000002Y25275353D01*
X23999998Y25275353D01*
X23778542Y25255979D01*
X23778535Y25255978D01*
X23563800Y25198439D01*
X23362323Y25104488D01*
X23362319Y25104486D01*
X23180217Y24976977D01*
X23023023Y24819783D01*
X22895514Y24637681D01*
X22895512Y24637677D01*
X22801561Y24436200D01*
X22744022Y24221465D01*
X22744021Y24221458D01*
X22724647Y24000003D01*
X22724647Y23999998D01*
X21633500Y23999998D01*
X21633500Y27701648D01*
X21647995Y27751013D01*
X23748000Y27751013D01*
X23748000Y26255118D01*
X23934716Y26271453D01*
X23940113Y26271807D01*
X23972811Y26273235D01*
X23978221Y26273353D01*
X24021779Y26273353D01*
X24027189Y26273235D01*
X24059887Y26271807D01*
X24065284Y26271453D01*
X24321782Y26249013D01*
X25250000Y26249013D01*
X25250000Y27751013D01*
X26248000Y27751013D01*
X26248000Y26249013D01*
X27750000Y26249013D01*
X27750000Y27751013D01*
X28748000Y27751013D01*
X28748000Y26249013D01*
X30250000Y26249013D01*
X30250000Y27751013D01*
X31248000Y27751013D01*
X31248000Y26249013D01*
X32750000Y26249013D01*
X32750000Y27751013D01*
X33748000Y27751013D01*
X33748000Y26249013D01*
X35250000Y26249013D01*
X35250000Y27751013D01*
X36248000Y27751013D01*
X36248000Y26249013D01*
X37750000Y26249013D01*
X37750000Y27751013D01*
X38748000Y27751013D01*
X38748000Y26249013D01*
X40250000Y26249013D01*
X40250000Y27751013D01*
X41248000Y27751013D01*
X41248000Y26249013D01*
X42750000Y26249013D01*
X42750000Y27751013D01*
X43748000Y27751013D01*
X43748000Y26249013D01*
X45250000Y26249013D01*
X45250000Y27751013D01*
X46248000Y27751013D01*
X46248000Y26249013D01*
X47750000Y26249013D01*
X47750000Y27751013D01*
X48748000Y27751013D01*
X48748000Y26249013D01*
X50250000Y26249013D01*
X50250000Y27751013D01*
X51248000Y27751013D01*
X51248000Y26249013D01*
X52750000Y26249013D01*
X52750000Y27751013D01*
X53748000Y27751013D01*
X53748000Y26249013D01*
X55250000Y26249013D01*
X55250000Y27751013D01*
X56248000Y27751013D01*
X56248000Y26249013D01*
X57750000Y26249013D01*
X57750000Y27751013D01*
X58748000Y27751013D01*
X58748000Y26249013D01*
X60250000Y26249013D01*
X60250000Y27751013D01*
X61248000Y27751013D01*
X61248000Y26249013D01*
X62750000Y26249013D01*
X62750000Y27751013D01*
X63748000Y27751013D01*
X63748000Y26249013D01*
X64376000Y26249013D01*
X64376000Y27751013D01*
X63748000Y27751013D01*
X62750000Y27751013D01*
X61248000Y27751013D01*
X60250000Y27751013D01*
X58748000Y27751013D01*
X57750000Y27751013D01*
X56248000Y27751013D01*
X55250000Y27751013D01*
X53748000Y27751013D01*
X52750000Y27751013D01*
X51248000Y27751013D01*
X50250000Y27751013D01*
X48748000Y27751013D01*
X47750000Y27751013D01*
X46248000Y27751013D01*
X45250000Y27751013D01*
X43748000Y27751013D01*
X42750000Y27751013D01*
X41248000Y27751013D01*
X40250000Y27751013D01*
X38748000Y27751013D01*
X37750000Y27751013D01*
X36248000Y27751013D01*
X35250000Y27751013D01*
X33748000Y27751013D01*
X32750000Y27751013D01*
X31248000Y27751013D01*
X30250000Y27751013D01*
X28748000Y27751013D01*
X27750000Y27751013D01*
X26248000Y27751013D01*
X25250000Y27751013D01*
X23748000Y27751013D01*
X21647995Y27751013D01*
X21653185Y27768687D01*
X21686373Y27803221D01*
X21844300Y27913802D01*
X22006198Y28075700D01*
X22137523Y28263251D01*
X22234284Y28470757D01*
X22293543Y28691913D01*
X22313498Y28920000D01*
X22293543Y29148087D01*
X22234284Y29369243D01*
X22137523Y29576749D01*
X22006198Y29764300D01*
X21844300Y29926198D01*
X21656749Y30057523D01*
X21614605Y30077175D01*
X21449249Y30154282D01*
X21449238Y30154286D01*
X21228089Y30213543D01*
X21228081Y30213544D01*
X21000002Y30233498D01*
X20999998Y30233498D01*
X20771918Y30213544D01*
X20771910Y30213543D01*
X20550761Y30154286D01*
X20550750Y30154282D01*
X20343254Y30057525D01*
X20343252Y30057524D01*
X20318094Y30039908D01*
X20155700Y29926198D01*
X20155698Y29926197D01*
X20155695Y29926194D01*
X19993806Y29764305D01*
X19993803Y29764302D01*
X19993802Y29764300D01*
X19969683Y29729854D01*
X19862476Y29576748D01*
X19862475Y29576746D01*
X19765718Y29369250D01*
X19765714Y29369239D01*
X19706457Y29148090D01*
X19706456Y29148082D01*
X19686502Y28920002D01*
X19686502Y28919999D01*
X17750000Y28919999D01*
X17750000Y30251013D01*
X23748000Y30251013D01*
X23748000Y28749013D01*
X25250000Y28749013D01*
X25250000Y30251013D01*
X26248000Y30251013D01*
X26248000Y28749013D01*
X27750000Y28749013D01*
X27750000Y30251013D01*
X28748000Y30251013D01*
X28748000Y28749013D01*
X30250000Y28749013D01*
X30250000Y30251013D01*
X31248000Y30251013D01*
X31248000Y28749013D01*
X32750000Y28749013D01*
X32750000Y30251013D01*
X33748000Y30251013D01*
X33748000Y28749013D01*
X35250000Y28749013D01*
X35250000Y30251013D01*
X33748000Y30251013D01*
X32750000Y30251013D01*
X31248000Y30251013D01*
X30250000Y30251013D01*
X28748000Y30251013D01*
X27750000Y30251013D01*
X26248000Y30251013D01*
X25250000Y30251013D01*
X23748000Y30251013D01*
X17750000Y30251013D01*
X16248000Y30251013D01*
X15250000Y30251013D01*
X13748000Y30251013D01*
X12750000Y30251013D01*
X11248000Y30251013D01*
X10250000Y30251013D01*
X8748000Y30251013D01*
X7750000Y30251013D01*
X6248000Y30251013D01*
X5250000Y30251013D01*
X3748000Y30251013D01*
X2750000Y30251013D01*
X2124000Y30251013D01*
X1000000Y30251013D01*
X1000000Y32751013D01*
X2124000Y32751013D01*
X2124000Y31249013D01*
X2750000Y31249013D01*
X2750000Y32751013D01*
X3748000Y32751013D01*
X3748000Y31249013D01*
X5250000Y31249013D01*
X5250000Y32751013D01*
X6248000Y32751013D01*
X6248000Y31249013D01*
X7750000Y31249013D01*
X7750000Y32751013D01*
X8748000Y32751013D01*
X8748000Y31249013D01*
X10250000Y31249013D01*
X10250000Y32751013D01*
X11248000Y32751013D01*
X11248000Y31249013D01*
X12750000Y31249013D01*
X12750000Y32751013D01*
X13748000Y32751013D01*
X13748000Y31249013D01*
X15250000Y31249013D01*
X15250000Y32751013D01*
X16248000Y32751013D01*
X16248000Y31249013D01*
X17750000Y31249013D01*
X17750000Y32751013D01*
X18748000Y32751013D01*
X18748000Y31249013D01*
X20250000Y31249013D01*
X20250000Y32751013D01*
X21248000Y32751013D01*
X21248000Y31249013D01*
X22750000Y31249013D01*
X22750000Y32751013D01*
X23748000Y32751013D01*
X23748000Y31249013D01*
X25250000Y31249013D01*
X25250000Y32751013D01*
X26248000Y32751013D01*
X26248000Y31249013D01*
X27750000Y31249013D01*
X27750000Y32751013D01*
X28748000Y32751013D01*
X28748000Y31249013D01*
X30250000Y31249013D01*
X30250000Y32751013D01*
X31248000Y32751013D01*
X31248000Y31249013D01*
X32750000Y31249013D01*
X32750000Y32751013D01*
X33748000Y32751013D01*
X33748000Y31249013D01*
X35250000Y31249013D01*
X35250000Y32751013D01*
X33748000Y32751013D01*
X32750000Y32751013D01*
X31248000Y32751013D01*
X30250000Y32751013D01*
X28748000Y32751013D01*
X27750000Y32751013D01*
X26248000Y32751013D01*
X25250000Y32751013D01*
X23748000Y32751013D01*
X22750000Y32751013D01*
X21248000Y32751013D01*
X20250000Y32751013D01*
X18748000Y32751013D01*
X17750000Y32751013D01*
X16248000Y32751013D01*
X15250000Y32751013D01*
X13748000Y32751013D01*
X12750000Y32751013D01*
X11248000Y32751013D01*
X10250000Y32751013D01*
X8748000Y32751013D01*
X7750000Y32751013D01*
X6248000Y32751013D01*
X5250000Y32751013D01*
X3748000Y32751013D01*
X2750000Y32751013D01*
X2124000Y32751013D01*
X1000000Y32751013D01*
X1000000Y35251013D01*
X2124000Y35251013D01*
X2124000Y33749013D01*
X2750000Y33749013D01*
X2750000Y35251013D01*
X3748000Y35251013D01*
X3748000Y33749013D01*
X5250000Y33749013D01*
X5250000Y35251013D01*
X6248000Y35251013D01*
X6248000Y33749013D01*
X7750000Y33749013D01*
X7750000Y35251013D01*
X8748000Y35251013D01*
X8748000Y33749013D01*
X10250000Y33749013D01*
X10250000Y35251013D01*
X11248000Y35251013D01*
X11248000Y33749013D01*
X12750000Y33749013D01*
X12750000Y35251013D01*
X13748000Y35251013D01*
X13748000Y33749013D01*
X15250000Y33749013D01*
X15250000Y35251013D01*
X16248000Y35251013D01*
X16248000Y33749013D01*
X17750000Y33749013D01*
X17750000Y35251013D01*
X18748000Y35251013D01*
X18748000Y33749013D01*
X20250000Y33749013D01*
X20250000Y35251013D01*
X21248000Y35251013D01*
X21248000Y33749013D01*
X22750000Y33749013D01*
X22750000Y35251013D01*
X23748000Y35251013D01*
X23748000Y33749013D01*
X25250000Y33749013D01*
X25250000Y35251013D01*
X26248000Y35251013D01*
X26248000Y33749013D01*
X27750000Y33749013D01*
X27750000Y35251013D01*
X28748000Y35251013D01*
X28748000Y33749013D01*
X30250000Y33749013D01*
X30250000Y35251013D01*
X31248000Y35251013D01*
X31248000Y33749013D01*
X32750000Y33749013D01*
X32750000Y35251013D01*
X33748000Y35251013D01*
X33748000Y33749013D01*
X35250000Y33749013D01*
X35250000Y35251013D01*
X33748000Y35251013D01*
X32750000Y35251013D01*
X31248000Y35251013D01*
X30250000Y35251013D01*
X28748000Y35251013D01*
X27750000Y35251013D01*
X26248000Y35251013D01*
X25250000Y35251013D01*
X23748000Y35251013D01*
X22750000Y35251013D01*
X21248000Y35251013D01*
X20250000Y35251013D01*
X18748000Y35251013D01*
X17750000Y35251013D01*
X16248000Y35251013D01*
X15250000Y35251013D01*
X13748000Y35251013D01*
X12750000Y35251013D01*
X11248000Y35251013D01*
X10250000Y35251013D01*
X8748000Y35251013D01*
X7750000Y35251013D01*
X6248000Y35251013D01*
X5250000Y35251013D01*
X3748000Y35251013D01*
X2750000Y35251013D01*
X2124000Y35251013D01*
X1000000Y35251013D01*
X1000000Y37751013D01*
X2124000Y37751013D01*
X2124000Y36249013D01*
X2750000Y36249013D01*
X2750000Y37751013D01*
X3748000Y37751013D01*
X3748000Y36249013D01*
X5250000Y36249013D01*
X5250000Y37751013D01*
X6248000Y37751013D01*
X6248000Y36249013D01*
X7750000Y36249013D01*
X7750000Y37751013D01*
X8748000Y37751013D01*
X8748000Y36249013D01*
X10250000Y36249013D01*
X10250000Y37751013D01*
X11248000Y37751013D01*
X11248000Y36249013D01*
X12750000Y36249013D01*
X12750000Y37751013D01*
X13748000Y37751013D01*
X13748000Y36249013D01*
X15250000Y36249013D01*
X15250000Y37751013D01*
X16248000Y37751013D01*
X16248000Y36249013D01*
X17750000Y36249013D01*
X17750000Y37751013D01*
X18748000Y37751013D01*
X18748000Y36249013D01*
X20250000Y36249013D01*
X21248000Y36249013D01*
X22750000Y36249013D01*
X22750000Y37582800D01*
X22746617Y37578942D01*
X22724499Y37554804D01*
X22720757Y37550895D01*
X22529105Y37359243D01*
X22525196Y37355501D01*
X22501058Y37333383D01*
X22496990Y37329815D01*
X22463623Y37301818D01*
X22459405Y37298433D01*
X22433446Y37278514D01*
X22429084Y37275315D01*
X22207070Y37119858D01*
X22202568Y37116850D01*
X22174952Y37099258D01*
X22170328Y37096453D01*
X22132604Y37074674D01*
X22127860Y37072071D01*
X22098838Y37056964D01*
X22093989Y37054573D01*
X21848369Y36940038D01*
X21843418Y36937860D01*
X21813198Y36925342D01*
X21808160Y36923382D01*
X21767229Y36908482D01*
X21762104Y36906742D01*
X21730870Y36896893D01*
X21725673Y36895378D01*
X21280317Y36776045D01*
X21248000Y36774988D01*
X21248000Y36249013D01*
X20250000Y36249013D01*
X20250000Y36902926D01*
X20237896Y36906742D01*
X20232771Y36908482D01*
X20191840Y36923382D01*
X20186802Y36925342D01*
X20156582Y36937860D01*
X20151631Y36940038D01*
X19906011Y37054573D01*
X19901162Y37056964D01*
X19872140Y37072071D01*
X19867396Y37074674D01*
X19829672Y37096453D01*
X19825048Y37099258D01*
X19797432Y37116850D01*
X19792930Y37119858D01*
X19570916Y37275315D01*
X19566554Y37278514D01*
X19540595Y37298433D01*
X19536377Y37301818D01*
X19503010Y37329815D01*
X19498942Y37333383D01*
X19474804Y37355501D01*
X19470895Y37359243D01*
X19279243Y37550895D01*
X19275501Y37554804D01*
X19253383Y37578942D01*
X19249815Y37583010D01*
X19221818Y37616377D01*
X19218433Y37620595D01*
X19198514Y37646554D01*
X19195316Y37650916D01*
X19125227Y37751013D01*
X23748000Y37751013D01*
X23748000Y36249013D01*
X25250000Y36249013D01*
X25250000Y37751013D01*
X26248000Y37751013D01*
X26248000Y36249013D01*
X27750000Y36249013D01*
X27750000Y37751013D01*
X28748000Y37751013D01*
X28748000Y36249013D01*
X30250000Y36249013D01*
X30250000Y37751013D01*
X31248000Y37751013D01*
X31248000Y36249013D01*
X32750000Y36249013D01*
X32750000Y37751013D01*
X33748000Y37751013D01*
X33748000Y36249013D01*
X35250000Y36249013D01*
X35250000Y37751013D01*
X33748000Y37751013D01*
X32750000Y37751013D01*
X31248000Y37751013D01*
X30250000Y37751013D01*
X28748000Y37751013D01*
X27750000Y37751013D01*
X26248000Y37751013D01*
X25250000Y37751013D01*
X23748000Y37751013D01*
X19125227Y37751013D01*
X18748000Y37751013D01*
X17750000Y37751013D01*
X16248000Y37751013D01*
X15250000Y37751013D01*
X13748000Y37751013D01*
X12750000Y37751013D01*
X11248000Y37751013D01*
X10250000Y37751013D01*
X8748000Y37751013D01*
X7750000Y37751013D01*
X6248000Y37751013D01*
X5250000Y37751013D01*
X3748000Y37751013D01*
X2750000Y37751013D01*
X2124000Y37751013D01*
X1000000Y37751013D01*
X1000000Y40251013D01*
X2124000Y40251013D01*
X2124000Y38749013D01*
X2750000Y38749013D01*
X2750000Y40251013D01*
X3748000Y40251013D01*
X3748000Y38749013D01*
X5250000Y38749013D01*
X5250000Y40251013D01*
X6248000Y40251013D01*
X6248000Y38749013D01*
X7750000Y38749013D01*
X7750000Y40251013D01*
X8748000Y40251013D01*
X8748000Y38749013D01*
X10250000Y38749013D01*
X10250000Y40251013D01*
X11248000Y40251013D01*
X11248000Y38749013D01*
X12750000Y38749013D01*
X12750000Y40251013D01*
X13748000Y40251013D01*
X13748000Y38749013D01*
X15250000Y38749013D01*
X15250000Y40251013D01*
X16248000Y40251013D01*
X16248000Y38749013D01*
X17750000Y38749013D01*
X17750000Y39330001D01*
X19721127Y39330001D01*
X19721128Y39330000D01*
X20684314Y39330000D01*
X20679920Y39325606D01*
X20627259Y39234394D01*
X20600000Y39132661D01*
X20600000Y39027339D01*
X20627259Y38925606D01*
X20679920Y38834394D01*
X20684314Y38830000D01*
X19721128Y38830000D01*
X19773730Y38633683D01*
X19773734Y38633674D01*
X19869865Y38427518D01*
X20000342Y38241180D01*
X20161179Y38080343D01*
X20347517Y37949866D01*
X20553673Y37853735D01*
X20553682Y37853731D01*
X20749999Y37801128D01*
X20750000Y37801129D01*
X20750000Y38764314D01*
X20754394Y38759920D01*
X20845606Y38707259D01*
X20947339Y38680000D01*
X21052661Y38680000D01*
X21154394Y38707259D01*
X21245606Y38759920D01*
X21250000Y38764314D01*
X21250000Y37801128D01*
X21446317Y37853731D01*
X21446326Y37853735D01*
X21652482Y37949866D01*
X21838820Y38080343D01*
X21999657Y38241180D01*
X22130134Y38427518D01*
X22226265Y38633674D01*
X22226269Y38633683D01*
X22278872Y38830000D01*
X21315686Y38830000D01*
X21320080Y38834394D01*
X21372741Y38925606D01*
X21400000Y39027339D01*
X21400000Y39132661D01*
X21372741Y39234394D01*
X21320080Y39325606D01*
X21315686Y39330000D01*
X22278872Y39330000D01*
X22278872Y39330001D01*
X22226269Y39526318D01*
X22226265Y39526327D01*
X22130134Y39732483D01*
X21999657Y39918821D01*
X21838820Y40079658D01*
X21652482Y40210135D01*
X21564819Y40251013D01*
X23748000Y40251013D01*
X23748000Y38749013D01*
X25250000Y38749013D01*
X25250000Y40251013D01*
X26248000Y40251013D01*
X26248000Y38749013D01*
X27750000Y38749013D01*
X27750000Y40251013D01*
X28748000Y40251013D01*
X28748000Y38749013D01*
X30250000Y38749013D01*
X30250000Y40251013D01*
X31248000Y40251013D01*
X31248000Y38749013D01*
X32750000Y38749013D01*
X32750000Y40251013D01*
X33748000Y40251013D01*
X33748000Y38749013D01*
X35250000Y38749013D01*
X35250000Y40251013D01*
X33748000Y40251013D01*
X32750000Y40251013D01*
X31248000Y40251013D01*
X30250000Y40251013D01*
X28748000Y40251013D01*
X27750000Y40251013D01*
X26248000Y40251013D01*
X25250000Y40251013D01*
X23748000Y40251013D01*
X21564819Y40251013D01*
X21446328Y40306266D01*
X21250000Y40358873D01*
X21250000Y39395686D01*
X21245606Y39400080D01*
X21154394Y39452741D01*
X21052661Y39480000D01*
X20947339Y39480000D01*
X20845606Y39452741D01*
X20754394Y39400080D01*
X20750000Y39395686D01*
X20750000Y40358873D01*
X20553671Y40306266D01*
X20347517Y40210135D01*
X20161179Y40079658D01*
X20000342Y39918821D01*
X19869865Y39732483D01*
X19773734Y39526327D01*
X19773730Y39526318D01*
X19721127Y39330001D01*
X17750000Y39330001D01*
X17750000Y40251013D01*
X16248000Y40251013D01*
X15250000Y40251013D01*
X13748000Y40251013D01*
X12750000Y40251013D01*
X11248000Y40251013D01*
X10250000Y40251013D01*
X8748000Y40251013D01*
X7750000Y40251013D01*
X6248000Y40251013D01*
X5250000Y40251013D01*
X3748000Y40251013D01*
X2750000Y40251013D01*
X2124000Y40251013D01*
X1000000Y40251013D01*
X1000000Y42751013D01*
X2124000Y42751013D01*
X2124000Y41249013D01*
X2750000Y41249013D01*
X2750000Y42751013D01*
X3748000Y42751013D01*
X3748000Y41249013D01*
X5250000Y41249013D01*
X5250000Y42751013D01*
X6248000Y42751013D01*
X6248000Y41249013D01*
X7750000Y41249013D01*
X7750000Y42751013D01*
X8748000Y42751013D01*
X8748000Y41249013D01*
X10250000Y41249013D01*
X10250000Y42751013D01*
X11248000Y42751013D01*
X11248000Y41249013D01*
X12750000Y41249013D01*
X12750000Y42751013D01*
X13748000Y42751013D01*
X13748000Y41249013D01*
X15250000Y41249013D01*
X15250000Y42751013D01*
X16248000Y42751013D01*
X16248000Y41249013D01*
X17750000Y41249013D01*
X17750000Y42751013D01*
X18748000Y42751013D01*
X18748000Y41249013D01*
X20225894Y41249013D01*
X20232824Y41251535D01*
X20237947Y41253274D01*
X20250000Y41257075D01*
X20250000Y42751013D01*
X21248000Y42751013D01*
X21248000Y41385015D01*
X21280325Y41383956D01*
X21725662Y41264624D01*
X21730852Y41263111D01*
X21762053Y41253274D01*
X21767176Y41251535D01*
X21774106Y41249013D01*
X22750000Y41249013D01*
X22750000Y42751013D01*
X23748000Y42751013D01*
X23748000Y41249013D01*
X25250000Y41249013D01*
X25250000Y42751013D01*
X26248000Y42751013D01*
X26248000Y41249013D01*
X27750000Y41249013D01*
X27750000Y42751013D01*
X28748000Y42751013D01*
X28748000Y41249013D01*
X30250000Y41249013D01*
X30250000Y42751013D01*
X31248000Y42751013D01*
X31248000Y41249013D01*
X32750000Y41249013D01*
X32750000Y42751013D01*
X33748000Y42751013D01*
X33748000Y41249013D01*
X35250000Y41249013D01*
X35250000Y42751013D01*
X36248000Y42751013D01*
X36248000Y41249013D01*
X37750000Y41249013D01*
X37750000Y42751013D01*
X38748000Y42751013D01*
X38748000Y41249013D01*
X38901722Y41249013D01*
X40250000Y42597291D01*
X40250000Y42751013D01*
X38748000Y42751013D01*
X37750000Y42751013D01*
X36248000Y42751013D01*
X35250000Y42751013D01*
X33748000Y42751013D01*
X32750000Y42751013D01*
X31248000Y42751013D01*
X30250000Y42751013D01*
X28748000Y42751013D01*
X27750000Y42751013D01*
X26248000Y42751013D01*
X25250000Y42751013D01*
X23748000Y42751013D01*
X22750000Y42751013D01*
X21248000Y42751013D01*
X20250000Y42751013D01*
X18748000Y42751013D01*
X17750000Y42751013D01*
X16248000Y42751013D01*
X15250000Y42751013D01*
X13748000Y42751013D01*
X12750000Y42751013D01*
X11248000Y42751013D01*
X10250000Y42751013D01*
X8748000Y42751013D01*
X7750000Y42751013D01*
X6248000Y42751013D01*
X5250000Y42751013D01*
X3748000Y42751013D01*
X2750000Y42751013D01*
X2124000Y42751013D01*
X1000000Y42751013D01*
X1000000Y45251013D01*
X2124000Y45251013D01*
X2124000Y43749013D01*
X2750000Y43749013D01*
X2750000Y45251013D01*
X3748000Y45251013D01*
X3748000Y43749013D01*
X5250000Y43749013D01*
X5250000Y45251013D01*
X6248000Y45251013D01*
X6248000Y43749013D01*
X7750000Y43749013D01*
X7750000Y45251013D01*
X8748000Y45251013D01*
X8748000Y43749013D01*
X10250000Y43749013D01*
X10250000Y45251013D01*
X11248000Y45251013D01*
X11248000Y43749013D01*
X12750000Y43749013D01*
X12750000Y45251013D01*
X13748000Y45251013D01*
X13748000Y43749013D01*
X15250000Y43749013D01*
X15250000Y45251013D01*
X16248000Y45251013D01*
X16248000Y43749013D01*
X17750000Y43749013D01*
X17750000Y45251013D01*
X18748000Y45251013D01*
X18748000Y43749013D01*
X20250000Y43749013D01*
X20250000Y45251013D01*
X21248000Y45251013D01*
X21248000Y43749013D01*
X22750000Y43749013D01*
X22750000Y45251013D01*
X23748000Y45251013D01*
X23748000Y43749013D01*
X25250000Y43749013D01*
X25250000Y45251013D01*
X26248000Y45251013D01*
X26248000Y43749013D01*
X27750000Y43749013D01*
X27750000Y45251013D01*
X28748000Y45251013D01*
X28748000Y43749013D01*
X30250000Y43749013D01*
X30250000Y45251013D01*
X31248000Y45251013D01*
X31248000Y43749013D01*
X32750000Y43749013D01*
X32750000Y45251013D01*
X33748000Y45251013D01*
X33748000Y43749013D01*
X35250000Y43749013D01*
X35250000Y45251013D01*
X36248000Y45251013D01*
X36248000Y43749013D01*
X37750000Y43749013D01*
X37750000Y45251013D01*
X38748000Y45251013D01*
X38748000Y43749013D01*
X40250000Y43749013D01*
X40250000Y45251013D01*
X41248000Y45251013D01*
X41248000Y43749013D01*
X42750000Y43749013D01*
X42750000Y45251013D01*
X43748000Y45251013D01*
X43748000Y43749013D01*
X43981725Y43749013D01*
X45250000Y45017289D01*
X45250000Y45251013D01*
X43748000Y45251013D01*
X42750000Y45251013D01*
X41248000Y45251013D01*
X40250000Y45251013D01*
X38748000Y45251013D01*
X37750000Y45251013D01*
X36248000Y45251013D01*
X35250000Y45251013D01*
X33748000Y45251013D01*
X32750000Y45251013D01*
X31248000Y45251013D01*
X30250000Y45251013D01*
X28748000Y45251013D01*
X27750000Y45251013D01*
X26248000Y45251013D01*
X25250000Y45251013D01*
X23748000Y45251013D01*
X22750000Y45251013D01*
X21248000Y45251013D01*
X20250000Y45251013D01*
X18748000Y45251013D01*
X17750000Y45251013D01*
X16248000Y45251013D01*
X15250000Y45251013D01*
X13748000Y45251013D01*
X12750000Y45251013D01*
X11248000Y45251013D01*
X10250000Y45251013D01*
X8748000Y45251013D01*
X7750000Y45251013D01*
X6248000Y45251013D01*
X5250000Y45251013D01*
X3748000Y45251013D01*
X2750000Y45251013D01*
X2124000Y45251013D01*
X1000000Y45251013D01*
X1000000Y47751013D01*
X2124000Y47751013D01*
X2124000Y46249013D01*
X2750000Y46249013D01*
X2750000Y47751013D01*
X3748000Y47751013D01*
X3748000Y46249013D01*
X5250000Y46249013D01*
X5250000Y47751013D01*
X6248000Y47751013D01*
X6248000Y46249013D01*
X7750000Y46249013D01*
X7750000Y47751013D01*
X8748000Y47751013D01*
X8748000Y46249013D01*
X10250000Y46249013D01*
X10250000Y47751013D01*
X11248000Y47751013D01*
X11248000Y46249013D01*
X12750000Y46249013D01*
X12750000Y47751013D01*
X13748000Y47751013D01*
X13748000Y46249013D01*
X15250000Y46249013D01*
X15250000Y47751013D01*
X16248000Y47751013D01*
X16248000Y46249013D01*
X17750000Y46249013D01*
X17750000Y47751013D01*
X18748000Y47751013D01*
X18748000Y46249013D01*
X20250000Y46249013D01*
X20250000Y47751013D01*
X21248000Y47751013D01*
X21248000Y46249013D01*
X22750000Y46249013D01*
X22750000Y47751013D01*
X23748000Y47751013D01*
X23748000Y46249013D01*
X25250000Y46249013D01*
X25250000Y47751013D01*
X26248000Y47751013D01*
X26248000Y46249013D01*
X27750000Y46249013D01*
X27750000Y47751013D01*
X28748000Y47751013D01*
X28748000Y46249013D01*
X30250000Y46249013D01*
X30250000Y47751013D01*
X31248000Y47751013D01*
X31248000Y46249013D01*
X32750000Y46249013D01*
X32750000Y47751013D01*
X33748000Y47751013D01*
X33748000Y46249013D01*
X35250000Y46249013D01*
X35250000Y47751013D01*
X36248000Y47751013D01*
X36248000Y46249013D01*
X37750000Y46249013D01*
X37750000Y47751013D01*
X38748000Y47751013D01*
X38748000Y46249013D01*
X40250000Y46249013D01*
X40250000Y47751013D01*
X41248000Y47751013D01*
X41248000Y46249013D01*
X42750000Y46249013D01*
X42750000Y47751013D01*
X43748000Y47751013D01*
X43748000Y46249013D01*
X45250000Y46249013D01*
X45250000Y47751013D01*
X46248000Y47751013D01*
X46248000Y46249013D01*
X46481724Y46249013D01*
X47750000Y47517290D01*
X47750000Y47751013D01*
X46248000Y47751013D01*
X45250000Y47751013D01*
X43748000Y47751013D01*
X42750000Y47751013D01*
X41248000Y47751013D01*
X40250000Y47751013D01*
X38748000Y47751013D01*
X37750000Y47751013D01*
X36248000Y47751013D01*
X35250000Y47751013D01*
X33748000Y47751013D01*
X32750000Y47751013D01*
X31248000Y47751013D01*
X30250000Y47751013D01*
X28748000Y47751013D01*
X27750000Y47751013D01*
X26248000Y47751013D01*
X25250000Y47751013D01*
X23748000Y47751013D01*
X22750000Y47751013D01*
X21248000Y47751013D01*
X20250000Y47751013D01*
X18748000Y47751013D01*
X17750000Y47751013D01*
X16248000Y47751013D01*
X15250000Y47751013D01*
X13748000Y47751013D01*
X12750000Y47751013D01*
X11248000Y47751013D01*
X10250000Y47751013D01*
X8748000Y47751013D01*
X7750000Y47751013D01*
X6248000Y47751013D01*
X5250000Y47751013D01*
X3748000Y47751013D01*
X2750000Y47751013D01*
X2124000Y47751013D01*
X1000000Y47751013D01*
X1000000Y50251013D01*
X2124000Y50251013D01*
X2124000Y48749013D01*
X2750000Y48749013D01*
X2750000Y50251013D01*
X3748000Y50251013D01*
X3748000Y48749013D01*
X5250000Y48749013D01*
X5250000Y50251013D01*
X6248000Y50251013D01*
X6248000Y48749013D01*
X7750000Y48749013D01*
X7750000Y50251013D01*
X8748000Y50251013D01*
X8748000Y48749013D01*
X10250000Y48749013D01*
X10250000Y50251013D01*
X11248000Y50251013D01*
X11248000Y48749013D01*
X12750000Y48749013D01*
X12750000Y50251013D01*
X13748000Y50251013D01*
X13748000Y48749013D01*
X15250000Y48749013D01*
X15250000Y50251013D01*
X16248000Y50251013D01*
X16248000Y48749013D01*
X17036471Y48749013D01*
X16956114Y48809168D01*
X16949221Y48814723D01*
X16908735Y48849805D01*
X16902258Y48855836D01*
X16851836Y48906258D01*
X16845805Y48912735D01*
X16810723Y48953221D01*
X16805168Y48960114D01*
X16674801Y49134263D01*
X16669752Y49141535D01*
X16640780Y49186617D01*
X16636261Y49194234D01*
X16602089Y49256822D01*
X16598129Y49264733D01*
X16575882Y49313448D01*
X16572496Y49321624D01*
X16498032Y49521264D01*
X16495551Y49528608D01*
X16481939Y49573487D01*
X16479923Y49580968D01*
X16465579Y49641683D01*
X16464035Y49649271D01*
X16456131Y49695444D01*
X16455064Y49703110D01*
X16443789Y49807974D01*
X16443477Y49811285D01*
X16441864Y49831333D01*
X16441642Y49834648D01*
X16440213Y49861335D01*
X16440080Y49864651D01*
X16439544Y49884699D01*
X16439500Y49888013D01*
X16439500Y49901346D01*
X17437500Y49901346D01*
X17444011Y49840798D01*
X17444011Y49840796D01*
X17495111Y49703796D01*
X17582739Y49586739D01*
X17699796Y49499111D01*
X17836799Y49448011D01*
X17864050Y49445082D01*
X17897345Y49441501D01*
X17897362Y49441500D01*
X19694638Y49441500D01*
X19694654Y49441501D01*
X19721692Y49444409D01*
X19755201Y49448011D01*
X19892204Y49499111D01*
X20009261Y49586739D01*
X20096889Y49703796D01*
X20142138Y49825113D01*
X20184009Y49881044D01*
X20249474Y49905461D01*
X20317746Y49890609D01*
X20349545Y49865764D01*
X20412760Y49797094D01*
X20590424Y49658811D01*
X20590425Y49658811D01*
X20590427Y49658809D01*
X20637516Y49633326D01*
X20788426Y49551658D01*
X21001365Y49478556D01*
X21223431Y49441500D01*
X21448569Y49441500D01*
X21670635Y49478556D01*
X21883574Y49551658D01*
X22081576Y49658811D01*
X22259240Y49797094D01*
X22380594Y49928918D01*
X22411715Y49962724D01*
X22411715Y49962725D01*
X22411722Y49962732D01*
X22502193Y50101210D01*
X22555338Y50146563D01*
X22624569Y50155987D01*
X22687905Y50126485D01*
X22709804Y50101213D01*
X22800278Y49962732D01*
X22800283Y49962727D01*
X22800284Y49962724D01*
X22921240Y49831333D01*
X22952760Y49797094D01*
X23130424Y49658811D01*
X23130425Y49658811D01*
X23130427Y49658809D01*
X23177516Y49633326D01*
X23328426Y49551658D01*
X23541365Y49478556D01*
X23763431Y49441500D01*
X23988569Y49441500D01*
X24210635Y49478556D01*
X24423574Y49551658D01*
X24621576Y49658811D01*
X24799240Y49797094D01*
X24920594Y49928918D01*
X24951715Y49962724D01*
X24951715Y49962725D01*
X24951722Y49962732D01*
X25045749Y50106653D01*
X25098894Y50152006D01*
X25168125Y50161430D01*
X25231461Y50131928D01*
X25251130Y50109952D01*
X25377890Y49928922D01*
X25544917Y49761895D01*
X25738421Y49626400D01*
X25952507Y49526571D01*
X25952516Y49526567D01*
X26166000Y49469366D01*
X26166000Y50366988D01*
X26223007Y50334075D01*
X26350174Y50300000D01*
X26481826Y50300000D01*
X26608993Y50334075D01*
X26666000Y50366988D01*
X26666000Y49469367D01*
X26879483Y49526567D01*
X26879492Y49526571D01*
X27093578Y49626400D01*
X27287082Y49761895D01*
X27454105Y49928918D01*
X27580868Y50109952D01*
X27635445Y50153577D01*
X27704944Y50160769D01*
X27767298Y50129247D01*
X27786251Y50106650D01*
X27880276Y49962735D01*
X27880284Y49962724D01*
X28001240Y49831333D01*
X28032760Y49797094D01*
X28210424Y49658811D01*
X28210425Y49658811D01*
X28210427Y49658809D01*
X28257516Y49633326D01*
X28408426Y49551658D01*
X28621365Y49478556D01*
X28843431Y49441500D01*
X29068569Y49441500D01*
X29290635Y49478556D01*
X29503574Y49551658D01*
X29701576Y49658811D01*
X29879240Y49797094D01*
X30000594Y49928918D01*
X30031715Y49962724D01*
X30031715Y49962725D01*
X30031722Y49962732D01*
X30122193Y50101210D01*
X30175338Y50146563D01*
X30244569Y50155987D01*
X30307905Y50126485D01*
X30329804Y50101213D01*
X30420278Y49962732D01*
X30420283Y49962727D01*
X30420284Y49962724D01*
X30541240Y49831333D01*
X30572760Y49797094D01*
X30750424Y49658811D01*
X30750425Y49658811D01*
X30750427Y49658809D01*
X30797516Y49633326D01*
X30948426Y49551658D01*
X31161365Y49478556D01*
X31383431Y49441500D01*
X31608569Y49441500D01*
X31830635Y49478556D01*
X32043574Y49551658D01*
X32241576Y49658811D01*
X32419240Y49797094D01*
X32540594Y49928918D01*
X32571715Y49962724D01*
X32571715Y49962725D01*
X32571722Y49962732D01*
X32662193Y50101210D01*
X32715338Y50146563D01*
X32784569Y50155987D01*
X32847905Y50126485D01*
X32869804Y50101213D01*
X32960278Y49962732D01*
X32960283Y49962727D01*
X32960284Y49962724D01*
X33081240Y49831333D01*
X33112760Y49797094D01*
X33290424Y49658811D01*
X33290425Y49658811D01*
X33290427Y49658809D01*
X33337516Y49633326D01*
X33488426Y49551658D01*
X33701365Y49478556D01*
X33923431Y49441500D01*
X34148569Y49441500D01*
X34370635Y49478556D01*
X34583574Y49551658D01*
X34781576Y49658811D01*
X34959240Y49797094D01*
X35080594Y49928918D01*
X35111715Y49962724D01*
X35111715Y49962725D01*
X35111722Y49962732D01*
X35202193Y50101210D01*
X35255338Y50146563D01*
X35324569Y50155987D01*
X35387905Y50126485D01*
X35409804Y50101213D01*
X35500278Y49962732D01*
X35500283Y49962727D01*
X35500284Y49962724D01*
X35621240Y49831333D01*
X35652760Y49797094D01*
X35830424Y49658811D01*
X35830425Y49658811D01*
X35830427Y49658809D01*
X35877516Y49633326D01*
X36028426Y49551658D01*
X36241365Y49478556D01*
X36463431Y49441500D01*
X36688569Y49441500D01*
X36910635Y49478556D01*
X37123574Y49551658D01*
X37321576Y49658811D01*
X37499240Y49797094D01*
X37620594Y49928918D01*
X37651715Y49962724D01*
X37651715Y49962725D01*
X37651722Y49962732D01*
X37742193Y50101210D01*
X37795338Y50146563D01*
X37864569Y50155987D01*
X37927905Y50126485D01*
X37949804Y50101213D01*
X38040278Y49962732D01*
X38040283Y49962727D01*
X38040284Y49962724D01*
X38161240Y49831333D01*
X38192760Y49797094D01*
X38370424Y49658811D01*
X38370425Y49658811D01*
X38370427Y49658809D01*
X38417516Y49633326D01*
X38568426Y49551658D01*
X38781365Y49478556D01*
X39003431Y49441500D01*
X39228569Y49441500D01*
X39450635Y49478556D01*
X39663574Y49551658D01*
X39861576Y49658811D01*
X40039240Y49797094D01*
X40160594Y49928918D01*
X40191715Y49962724D01*
X40191715Y49962725D01*
X40191722Y49962732D01*
X40282193Y50101210D01*
X40335338Y50146563D01*
X40404569Y50155987D01*
X40467905Y50126485D01*
X40489804Y50101213D01*
X40580278Y49962732D01*
X40580283Y49962727D01*
X40580284Y49962724D01*
X40701240Y49831333D01*
X40732760Y49797094D01*
X40910424Y49658811D01*
X40910425Y49658811D01*
X40910427Y49658809D01*
X40957516Y49633326D01*
X41108426Y49551658D01*
X41321365Y49478556D01*
X41543431Y49441500D01*
X41768569Y49441500D01*
X41990635Y49478556D01*
X42203574Y49551658D01*
X42401576Y49658811D01*
X42579240Y49797094D01*
X42700594Y49928918D01*
X42731715Y49962724D01*
X42731717Y49962727D01*
X42731722Y49962732D01*
X42854860Y50151209D01*
X42945296Y50357384D01*
X43000564Y50575632D01*
X43003164Y50607007D01*
X43019156Y50799995D01*
X43019156Y50800006D01*
X43000565Y51024360D01*
X43000563Y51024372D01*
X42945296Y51242615D01*
X42935071Y51265925D01*
X42854860Y51448791D01*
X42844765Y51464242D01*
X42757170Y51598317D01*
X42731722Y51637268D01*
X42731719Y51637271D01*
X42731715Y51637277D01*
X42579243Y51802903D01*
X42579238Y51802908D01*
X42401577Y51941188D01*
X42401572Y51941192D01*
X42203580Y52048339D01*
X42203577Y52048341D01*
X42203574Y52048342D01*
X42203571Y52048343D01*
X42203569Y52048344D01*
X41990637Y52121444D01*
X41768569Y52158500D01*
X41543431Y52158500D01*
X41321362Y52121444D01*
X41108430Y52048344D01*
X41108419Y52048339D01*
X40910427Y51941192D01*
X40910422Y51941188D01*
X40732761Y51802908D01*
X40732756Y51802903D01*
X40580284Y51637277D01*
X40580276Y51637266D01*
X40489808Y51498794D01*
X40436662Y51453438D01*
X40367431Y51444014D01*
X40304095Y51473516D01*
X40282192Y51498794D01*
X40217170Y51598317D01*
X40191722Y51637268D01*
X40191719Y51637271D01*
X40191715Y51637277D01*
X40039243Y51802903D01*
X40039238Y51802908D01*
X39861577Y51941188D01*
X39861572Y51941192D01*
X39663580Y52048339D01*
X39663577Y52048341D01*
X39663574Y52048342D01*
X39663571Y52048343D01*
X39663569Y52048344D01*
X39450637Y52121444D01*
X39228569Y52158500D01*
X39003431Y52158500D01*
X38781362Y52121444D01*
X38568430Y52048344D01*
X38568419Y52048339D01*
X38370427Y51941192D01*
X38370422Y51941188D01*
X38192761Y51802908D01*
X38192756Y51802903D01*
X38040284Y51637277D01*
X38040276Y51637266D01*
X37949808Y51498794D01*
X37896662Y51453438D01*
X37827431Y51444014D01*
X37764095Y51473516D01*
X37742192Y51498794D01*
X37677170Y51598317D01*
X37651722Y51637268D01*
X37651719Y51637271D01*
X37651715Y51637277D01*
X37499243Y51802903D01*
X37499238Y51802908D01*
X37321577Y51941188D01*
X37321572Y51941192D01*
X37123580Y52048339D01*
X37123577Y52048341D01*
X37123574Y52048342D01*
X37123571Y52048343D01*
X37123569Y52048344D01*
X36910637Y52121444D01*
X36688569Y52158500D01*
X36463431Y52158500D01*
X36241362Y52121444D01*
X36028430Y52048344D01*
X36028419Y52048339D01*
X35830427Y51941192D01*
X35830422Y51941188D01*
X35652761Y51802908D01*
X35652756Y51802903D01*
X35500284Y51637277D01*
X35500276Y51637266D01*
X35409808Y51498794D01*
X35356662Y51453438D01*
X35287431Y51444014D01*
X35224095Y51473516D01*
X35202192Y51498794D01*
X35137170Y51598317D01*
X35111722Y51637268D01*
X35111719Y51637271D01*
X35111715Y51637277D01*
X34959243Y51802903D01*
X34959238Y51802908D01*
X34781577Y51941188D01*
X34781572Y51941192D01*
X34583580Y52048339D01*
X34583577Y52048341D01*
X34583574Y52048342D01*
X34583571Y52048343D01*
X34583569Y52048344D01*
X34370637Y52121444D01*
X34148569Y52158500D01*
X33923431Y52158500D01*
X33701362Y52121444D01*
X33488430Y52048344D01*
X33488419Y52048339D01*
X33290427Y51941192D01*
X33290422Y51941188D01*
X33112761Y51802908D01*
X33112756Y51802903D01*
X32960284Y51637277D01*
X32960276Y51637266D01*
X32869808Y51498794D01*
X32816662Y51453438D01*
X32747431Y51444014D01*
X32684095Y51473516D01*
X32662192Y51498794D01*
X32597170Y51598317D01*
X32571722Y51637268D01*
X32571719Y51637271D01*
X32571715Y51637277D01*
X32419243Y51802903D01*
X32419238Y51802908D01*
X32241577Y51941188D01*
X32241572Y51941192D01*
X32043580Y52048339D01*
X32043577Y52048341D01*
X32043574Y52048342D01*
X32043571Y52048343D01*
X32043569Y52048344D01*
X31830637Y52121444D01*
X31608569Y52158500D01*
X31383431Y52158500D01*
X31161362Y52121444D01*
X30948430Y52048344D01*
X30948419Y52048339D01*
X30750427Y51941192D01*
X30750422Y51941188D01*
X30572761Y51802908D01*
X30572756Y51802903D01*
X30420284Y51637277D01*
X30420276Y51637266D01*
X30329808Y51498794D01*
X30276662Y51453438D01*
X30207431Y51444014D01*
X30144095Y51473516D01*
X30122192Y51498794D01*
X30057170Y51598317D01*
X30031722Y51637268D01*
X30031719Y51637271D01*
X30031715Y51637277D01*
X29879243Y51802903D01*
X29879238Y51802908D01*
X29701577Y51941188D01*
X29701572Y51941192D01*
X29503580Y52048339D01*
X29503577Y52048341D01*
X29503574Y52048342D01*
X29503571Y52048343D01*
X29503569Y52048344D01*
X29290637Y52121444D01*
X29068569Y52158500D01*
X28843431Y52158500D01*
X28621362Y52121444D01*
X28408430Y52048344D01*
X28408419Y52048339D01*
X28210427Y51941192D01*
X28210422Y51941188D01*
X28032761Y51802908D01*
X28032756Y51802903D01*
X27880284Y51637277D01*
X27880276Y51637266D01*
X27786251Y51493350D01*
X27733105Y51447993D01*
X27663873Y51438570D01*
X27600538Y51468072D01*
X27580868Y51490049D01*
X27454113Y51671074D01*
X27454108Y51671080D01*
X27287082Y51838106D01*
X27093578Y51973601D01*
X26879492Y52073430D01*
X26879486Y52073433D01*
X26666000Y52130636D01*
X26666000Y51233012D01*
X26608993Y51265925D01*
X26481826Y51300000D01*
X26350174Y51300000D01*
X26223007Y51265925D01*
X26166000Y51233012D01*
X26166000Y52130636D01*
X26165999Y52130636D01*
X25952513Y52073433D01*
X25952507Y52073430D01*
X25738422Y51973601D01*
X25738420Y51973600D01*
X25544926Y51838114D01*
X25544920Y51838109D01*
X25377891Y51671080D01*
X25377890Y51671078D01*
X25251131Y51490048D01*
X25196554Y51446423D01*
X25127055Y51439231D01*
X25064701Y51470753D01*
X25045752Y51493344D01*
X24951722Y51637268D01*
X24951715Y51637275D01*
X24951715Y51637277D01*
X24799243Y51802903D01*
X24799238Y51802908D01*
X24621577Y51941188D01*
X24621572Y51941192D01*
X24423580Y52048339D01*
X24423577Y52048341D01*
X24423574Y52048342D01*
X24423571Y52048343D01*
X24423569Y52048344D01*
X24210637Y52121444D01*
X23988569Y52158500D01*
X23763431Y52158500D01*
X23541362Y52121444D01*
X23328430Y52048344D01*
X23328419Y52048339D01*
X23130427Y51941192D01*
X23130422Y51941188D01*
X22952761Y51802908D01*
X22952756Y51802903D01*
X22800284Y51637277D01*
X22800276Y51637266D01*
X22709808Y51498794D01*
X22656662Y51453438D01*
X22587431Y51444014D01*
X22524095Y51473516D01*
X22502192Y51498794D01*
X22437170Y51598317D01*
X22411722Y51637268D01*
X22411719Y51637271D01*
X22411715Y51637277D01*
X22259243Y51802903D01*
X22259238Y51802908D01*
X22081577Y51941188D01*
X22081572Y51941192D01*
X21883580Y52048339D01*
X21883577Y52048341D01*
X21883574Y52048342D01*
X21883571Y52048343D01*
X21883569Y52048344D01*
X21670637Y52121444D01*
X21448569Y52158500D01*
X21223431Y52158500D01*
X21001362Y52121444D01*
X20788430Y52048344D01*
X20788419Y52048339D01*
X20590427Y51941192D01*
X20590422Y51941188D01*
X20412761Y51802908D01*
X20349548Y51734240D01*
X20289661Y51698250D01*
X20219823Y51700351D01*
X20162207Y51739876D01*
X20142138Y51774890D01*
X20096889Y51896204D01*
X20063214Y51941188D01*
X20009261Y52013261D01*
X19892204Y52100889D01*
X19755203Y52151989D01*
X19694654Y52158500D01*
X19694638Y52158500D01*
X17897362Y52158500D01*
X17897345Y52158500D01*
X17836797Y52151989D01*
X17836795Y52151989D01*
X17699795Y52100889D01*
X17582739Y52013261D01*
X17495111Y51896205D01*
X17444011Y51759205D01*
X17444011Y51759203D01*
X17437500Y51698655D01*
X17437500Y49901346D01*
X16439500Y49901346D01*
X16439500Y50251013D01*
X16248000Y50251013D01*
X15250000Y50251013D01*
X13748000Y50251013D01*
X12750000Y50251013D01*
X11248000Y50251013D01*
X10250000Y50251013D01*
X8748000Y50251013D01*
X7750000Y50251013D01*
X6248000Y50251013D01*
X5250000Y50251013D01*
X3748000Y50251013D01*
X2750000Y50251013D01*
X2124000Y50251013D01*
X1000000Y50251013D01*
X1000000Y51854157D01*
X3748000Y51854157D01*
X3748000Y51249013D01*
X5250000Y51249013D01*
X5250000Y51834315D01*
X6248000Y51834315D01*
X6248000Y51249013D01*
X7750000Y51249013D01*
X7750000Y51814474D01*
X8748000Y51814474D01*
X8748000Y51249013D01*
X10250000Y51249013D01*
X10250000Y51794633D01*
X11248000Y51794633D01*
X11248000Y51249013D01*
X12750000Y51249013D01*
X12750000Y51774792D01*
X13748000Y51774792D01*
X13748000Y51249013D01*
X15250000Y51249013D01*
X15250000Y51762871D01*
X13748000Y51774792D01*
X12750000Y51774792D01*
X12750000Y51782712D01*
X11248000Y51794633D01*
X10250000Y51794633D01*
X10250000Y51802553D01*
X8748000Y51814474D01*
X7750000Y51814474D01*
X7750000Y51822394D01*
X6248000Y51834315D01*
X5250000Y51834315D01*
X5250000Y51842236D01*
X3748000Y51854157D01*
X1000000Y51854157D01*
X1000000Y52875013D01*
X1019685Y52942052D01*
X1072489Y52987807D01*
X1124979Y52999009D01*
X63949217Y52500404D01*
G37*
%TD.AperFunction*%
%TD*%
D18*
X27940000Y2540000D03*
X30480000Y2540000D03*
X33020000Y2540000D03*
X35560000Y2540000D03*
X38100000Y2540000D03*
X40640000Y2540000D03*
X43180000Y2540000D03*
X45720000Y2540000D03*
X50800000Y2540000D03*
X53340000Y2540000D03*
X55880000Y2540000D03*
X58420000Y2540000D03*
X60960000Y2540000D03*
X63500000Y2540000D03*
X18796000Y50800000D03*
X21336000Y50800000D03*
X23876000Y50800000D03*
X26416000Y50800000D03*
X28956000Y50800000D03*
X31496000Y50800000D03*
X34036000Y50800000D03*
X36576000Y50800000D03*
X39116000Y50800000D03*
X41656000Y50800000D03*
X45720000Y50800000D03*
X48260000Y50800000D03*
X50800000Y50800000D03*
X53340000Y50800000D03*
X55880000Y50800000D03*
X58420000Y50800000D03*
X60960000Y50800000D03*
X63500000Y50800000D03*
X21000000Y28920000D03*
X21000000Y39080000D03*
X47500000Y20340000D03*
X47500000Y30500000D03*
X57000000Y35460000D03*
X57000000Y38000000D03*
X47500000Y35500000D03*
X47500000Y38040000D03*
X15240000Y50800000D03*
X38000000Y20340000D03*
X38000000Y30500000D03*
X57000000Y20340000D03*
X57000000Y30500000D03*
X38000000Y35500000D03*
X38000000Y38040000D03*
X24000000Y19500000D03*
X17500000Y19500000D03*
X17500000Y24000000D03*
X24000000Y24000000D03*
X13970000Y2540000D03*
X66040000Y35560000D03*
X66040000Y7620000D03*
M02*
