M48
METRIC,TZ
T1C0.800
T2C0.900
T3C1.000
%
G90
G05
T1
X21000Y39080
X21000Y28920
X38000Y30500
X38000Y20340
X47500Y30500
X47500Y20340
X57000Y30500
X57000Y20340
T2
X38000Y38040
X38000Y35500
X47500Y38040
X47500Y35500
X57000Y38000
X57000Y35460
T3
X17500Y24000
X17500Y19500
X18796Y50800
X21336Y50800
X23876Y50800
X24000Y24000
X24000Y19500
X26416Y50800
X27940Y2540
X28956Y50800
X30480Y2540
X31496Y50800
X33020Y2540
X34036Y50800
X35560Y2540
X36576Y50800
X38100Y2540
X39116Y50800
X40640Y2540
X41656Y50800
X43180Y2540
X45720Y50800
X45720Y2540
X48260Y50800
X50800Y50800
X50800Y2540
X53340Y50800
X53340Y2540
X55880Y50800
X55880Y2540
X58420Y50800
X58420Y2540
X60960Y50800
X60960Y2540
X63500Y50800
X63500Y2540
M30
