%TF.GenerationSoftware,KiCad,Pcbnew,8.0.0*%
%TF.CreationDate,2024-03-31T18:51:28-04:00*%
%TF.ProjectId,2_spaceship_interface_shield,325f7370-6163-4657-9368-69705f696e74,rev?*%
%TF.SameCoordinates,Original*%
%TF.FileFunction,Copper,L2,Bot*%
%TF.FilePolarity,Positive*%
%FSLAX46Y46*%
G04 Gerber Fmt 4.6, Leading zero omitted, Abs format (unit mm)*
G04 Created by KiCad (PCBNEW 8.0.0) date 2024-03-31 18:51:28*
%MOMM*%
%LPD*%
G01*
G04 APERTURE LIST*
%TA.AperFunction,ComponentPad*%
%ADD10R,1.700000X1.700000*%
%TD*%
%TA.AperFunction,ComponentPad*%
%ADD11O,1.700000X1.700000*%
%TD*%
%TA.AperFunction,ComponentPad*%
%ADD12C,1.600000*%
%TD*%
%TA.AperFunction,ComponentPad*%
%ADD13O,1.600000X1.600000*%
%TD*%
%TA.AperFunction,ComponentPad*%
%ADD14R,1.800000X1.800000*%
%TD*%
%TA.AperFunction,ComponentPad*%
%ADD15C,1.800000*%
%TD*%
%TA.AperFunction,ComponentPad*%
%ADD16C,1.524000*%
%TD*%
%TA.AperFunction,Conductor*%
%ADD17C,0.250000*%
%TD*%
%ADD18C,0.350000*%
G04 APERTURE END LIST*
D10*
%TO.P,J1,1,Pin_1*%
%TO.N,unconnected-(J1-Pin_1-Pad1)*%
X127940000Y-97460000D03*
D11*
%TO.P,J1,2,Pin_2*%
%TO.N,/IOREF*%
X130480000Y-97460000D03*
%TO.P,J1,3,Pin_3*%
%TO.N,/~{RESET}*%
X133020000Y-97460000D03*
%TO.P,J1,4,Pin_4*%
%TO.N,+3V3*%
X135560000Y-97460000D03*
%TO.P,J1,5,Pin_5*%
%TO.N,+5V*%
X138100000Y-97460000D03*
%TO.P,J1,6,Pin_6*%
%TO.N,GND*%
X140640000Y-97460000D03*
%TO.P,J1,7,Pin_7*%
X143180000Y-97460000D03*
%TO.P,J1,8,Pin_8*%
%TO.N,VCC*%
X145720000Y-97460000D03*
%TD*%
D10*
%TO.P,J3,1,Pin_1*%
%TO.N,/A0*%
X150800000Y-97460000D03*
D11*
%TO.P,J3,2,Pin_2*%
%TO.N,/A1*%
X153340000Y-97460000D03*
%TO.P,J3,3,Pin_3*%
%TO.N,/A2*%
X155880000Y-97460000D03*
%TO.P,J3,4,Pin_4*%
%TO.N,/A3*%
X158420000Y-97460000D03*
%TO.P,J3,5,Pin_5*%
%TO.N,/SDA{slash}A4*%
X160960000Y-97460000D03*
%TO.P,J3,6,Pin_6*%
%TO.N,/SCL{slash}A5*%
X163500000Y-97460000D03*
%TD*%
D10*
%TO.P,J2,1,Pin_1*%
%TO.N,/SCL{slash}A5*%
X118796000Y-49200000D03*
D11*
%TO.P,J2,2,Pin_2*%
%TO.N,/SDA{slash}A4*%
X121336000Y-49200000D03*
%TO.P,J2,3,Pin_3*%
%TO.N,/AREF*%
X123876000Y-49200000D03*
%TO.P,J2,4,Pin_4*%
%TO.N,GND*%
X126416000Y-49200000D03*
%TO.P,J2,5,Pin_5*%
%TO.N,/13*%
X128956000Y-49200000D03*
%TO.P,J2,6,Pin_6*%
%TO.N,/12*%
X131496000Y-49200000D03*
%TO.P,J2,7,Pin_7*%
%TO.N,/\u002A11*%
X134036000Y-49200000D03*
%TO.P,J2,8,Pin_8*%
%TO.N,/\u002A10*%
X136576000Y-49200000D03*
%TO.P,J2,9,Pin_9*%
%TO.N,/\u002A9*%
X139116000Y-49200000D03*
%TO.P,J2,10,Pin_10*%
%TO.N,/8*%
X141656000Y-49200000D03*
%TD*%
D10*
%TO.P,J4,1,Pin_1*%
%TO.N,/7*%
X145720000Y-49200000D03*
D11*
%TO.P,J4,2,Pin_2*%
%TO.N,/\u002A6*%
X148260000Y-49200000D03*
%TO.P,J4,3,Pin_3*%
%TO.N,/\u002A5*%
X150800000Y-49200000D03*
%TO.P,J4,4,Pin_4*%
%TO.N,/4*%
X153340000Y-49200000D03*
%TO.P,J4,5,Pin_5*%
%TO.N,/\u002A3*%
X155880000Y-49200000D03*
%TO.P,J4,6,Pin_6*%
%TO.N,/2*%
X158420000Y-49200000D03*
%TO.P,J4,7,Pin_7*%
%TO.N,/TX{slash}1*%
X160960000Y-49200000D03*
%TO.P,J4,8,Pin_8*%
%TO.N,/RX{slash}0*%
X163500000Y-49200000D03*
%TD*%
D12*
%TO.P,R1,1*%
%TO.N,/SDA{slash}A4*%
X121000000Y-71080000D03*
D13*
%TO.P,R1,2*%
%TO.N,GND*%
X121000000Y-60920000D03*
%TD*%
D12*
%TO.P,R3,1*%
%TO.N,GND*%
X147500000Y-79660000D03*
D13*
%TO.P,R3,2*%
%TO.N,Net-(D2-K)*%
X147500000Y-69500000D03*
%TD*%
D14*
%TO.P,D1,1,K*%
%TO.N,Net-(D1-K)*%
X157000000Y-64540000D03*
D15*
%TO.P,D1,2,A*%
%TO.N,/2*%
X157000000Y-62000000D03*
%TD*%
D14*
%TO.P,D2,1,K*%
%TO.N,Net-(D2-K)*%
X147500000Y-64500000D03*
D15*
%TO.P,D2,2,A*%
%TO.N,/\u002A3*%
X147500000Y-61960000D03*
%TD*%
D12*
%TO.P,R4,1*%
%TO.N,GND*%
X138000000Y-79660000D03*
D13*
%TO.P,R4,2*%
%TO.N,Net-(D3-K)*%
X138000000Y-69500000D03*
%TD*%
D12*
%TO.P,R2,1*%
%TO.N,GND*%
X157000000Y-79660000D03*
D13*
%TO.P,R2,2*%
%TO.N,Net-(D1-K)*%
X157000000Y-69500000D03*
%TD*%
D14*
%TO.P,D3,1,K*%
%TO.N,Net-(D3-K)*%
X138000000Y-64500000D03*
D15*
%TO.P,D3,2,A*%
%TO.N,/4*%
X138000000Y-61960000D03*
%TD*%
D16*
%TO.P,SW1,1,1*%
%TO.N,/SDA{slash}A4*%
X124000000Y-80500000D03*
%TO.P,SW1,2,2*%
%TO.N,+5V*%
X117500000Y-80500000D03*
%TO.P,SW1,3*%
%TO.N,N/C*%
X117500000Y-76000000D03*
%TO.P,SW1,4*%
X124000000Y-76000000D03*
%TD*%
D17*
%TO.N,/SDA{slash}A4*%
X165000000Y-95000000D02*
X166000000Y-96000000D01*
X166000000Y-96500000D02*
X165500000Y-97000000D01*
X165500000Y-97000000D02*
X165500000Y-99500000D01*
X165500000Y-99500000D02*
X163000000Y-99500000D01*
X128000000Y-55864000D02*
X128000000Y-72000000D01*
X162500000Y-95000000D02*
X165000000Y-95000000D01*
X152000000Y-84500000D02*
X162500000Y-95000000D01*
X166000000Y-96000000D02*
X166000000Y-96500000D01*
X128000000Y-72000000D02*
X140500000Y-84500000D01*
X140500000Y-84500000D02*
X152000000Y-84500000D01*
X163000000Y-99500000D02*
X160960000Y-97460000D01*
X121336000Y-49200000D02*
X128000000Y-55864000D01*
%TO.N,/SCL{slash}A5*%
X163500000Y-97460000D02*
X151540000Y-85500000D01*
X126500000Y-71500000D02*
X126500000Y-57500000D01*
X151540000Y-85500000D02*
X140500000Y-85500000D01*
X140500000Y-85500000D02*
X126500000Y-71500000D01*
X121500000Y-52500000D02*
X120000000Y-52500000D01*
X126500000Y-57500000D02*
X121500000Y-52500000D01*
X118796000Y-51296000D02*
X118796000Y-49200000D01*
X120000000Y-52500000D02*
X118796000Y-51296000D01*
%TD*%
D18*
X127940000Y-97460000D03*
X130480000Y-97460000D03*
X133020000Y-97460000D03*
X135560000Y-97460000D03*
X138100000Y-97460000D03*
X140640000Y-97460000D03*
X143180000Y-97460000D03*
X145720000Y-97460000D03*
X150800000Y-97460000D03*
X153340000Y-97460000D03*
X155880000Y-97460000D03*
X158420000Y-97460000D03*
X160960000Y-97460000D03*
X163500000Y-97460000D03*
X118796000Y-49200000D03*
X121336000Y-49200000D03*
X123876000Y-49200000D03*
X126416000Y-49200000D03*
X128956000Y-49200000D03*
X131496000Y-49200000D03*
X134036000Y-49200000D03*
X136576000Y-49200000D03*
X139116000Y-49200000D03*
X141656000Y-49200000D03*
X145720000Y-49200000D03*
X148260000Y-49200000D03*
X150800000Y-49200000D03*
X153340000Y-49200000D03*
X155880000Y-49200000D03*
X158420000Y-49200000D03*
X160960000Y-49200000D03*
X163500000Y-49200000D03*
X121000000Y-71080000D03*
X121000000Y-60920000D03*
X147500000Y-79660000D03*
X147500000Y-69500000D03*
X157000000Y-64540000D03*
X157000000Y-62000000D03*
X147500000Y-64500000D03*
X147500000Y-61960000D03*
X115240000Y-49200000D03*
X138000000Y-79660000D03*
X138000000Y-69500000D03*
X157000000Y-79660000D03*
X157000000Y-69500000D03*
X138000000Y-64500000D03*
X138000000Y-61960000D03*
X124000000Y-80500000D03*
X117500000Y-80500000D03*
X117500000Y-76000000D03*
X124000000Y-76000000D03*
X113970000Y-97460000D03*
X166040000Y-64440000D03*
X166040000Y-92380000D03*
M02*
